<svg width="1252" height="152" viewBox="0 0 1252 152" fill="none" xmlns="http://www.w3.org/2000/svg">
<rect x="876.5" y="0.5" width="375" height="151" rx="7.5" fill="white" stroke="#DCDCDC"/>
<path d="M951.768 24.4141V130.848" stroke="#DCDCDC"/>
<path d="M981.178 56.328V57.448H976.826V60.616H981.05V61.736H976.826V65.88H981.178V67H975.642V56.328H981.178ZM984.208 67H982.992L984.768 55.736L988.864 64.744L993.04 55.72L994.704 67H993.488L992.48 59.576L988.848 67.448L985.264 59.576L984.208 67ZM1004.31 67L1003.06 63.992H998.517L997.237 67H995.925L1000.84 55.816L1005.62 67H1004.31ZM998.981 62.872H1002.6L1000.8 58.6L998.981 62.872ZM1007.13 56.328H1008.31V67H1007.13V56.328ZM1011.06 56.328H1012.25V65.88H1015.19V67H1011.06V56.328ZM1016.45 61C1016.45 60.568 1016.81 60.2 1017.25 60.2C1017.68 60.2 1018.05 60.568 1018.05 61C1018.05 61.432 1017.68 61.8 1017.25 61.8C1016.81 61.8 1016.45 61.432 1016.45 61ZM1016.45 66.392C1016.45 65.96 1016.81 65.592 1017.25 65.592C1017.68 65.592 1018.05 65.96 1018.05 66.392C1018.05 66.824 1017.68 67.192 1017.25 67.192C1016.81 67.192 1016.45 66.824 1016.45 66.392Z" fill="#888888"/>
<path d="M975.986 81.66H977.466V95H975.986V81.66ZM982.388 95H980.908V81.1L991.308 92V81.66H992.788V95.6L982.388 84.7V95ZM1002.3 81.66V83.06H997.7V87H1002.14V88.4H997.7V95H996.22V81.66H1002.3ZM1011.11 95.24C1007.25 95.24 1004.17 92.3 1004.17 88.34C1004.17 84.36 1007.27 81.44 1011.11 81.44C1014.95 81.44 1018.05 84.36 1018.05 88.34C1018.05 92.3 1014.97 95.24 1011.11 95.24ZM1011.11 82.84C1008.11 82.84 1005.69 85.28 1005.69 88.34C1005.69 91.4 1008.11 93.84 1011.11 93.84C1014.11 93.84 1016.53 91.4 1016.53 88.34C1016.53 85.28 1014.11 82.84 1011.11 82.84ZM1028.65 86.46L1028.91 85.18H1029.95C1029.39 87.54 1029.05 89.76 1029.01 90.16C1029.01 90.22 1029.01 90.26 1029.01 90.32C1029.03 90.6 1029.09 91.24 1029.75 91.24C1030.69 91.24 1032.01 89.8 1032.01 87.42C1032.01 84.4 1029.59 82.44 1026.67 82.44C1023.35 82.44 1020.73 85.08 1020.73 88.4C1020.73 90.92 1022.25 94.3 1026.85 94.3C1027.79 94.3 1029.27 94.2 1031.03 93.38L1031.33 94.3C1029.71 95.08 1028.03 95.26 1026.83 95.26C1022.69 95.26 1019.71 92.44 1019.71 88.38C1019.71 84.52 1022.75 81.48 1026.65 81.48C1030.05 81.48 1032.97 83.82 1032.97 87.4C1032.97 90.18 1031.29 92.12 1029.71 92.12C1028.89 92.12 1028.31 91.58 1028.25 90.78C1028.07 91.06 1027.27 92.2 1025.75 92.2C1024.03 92.2 1022.95 90.76 1022.95 88.98C1022.95 86.84 1024.37 84.92 1026.45 84.92C1027.67 84.92 1028.37 85.64 1028.65 86.46ZM1025.97 91.12C1027.39 91.12 1028.27 89.56 1028.27 87.94C1028.27 86.54 1027.41 86 1026.55 86C1025.15 86 1024.11 87.44 1024.11 88.94C1024.11 90.38 1025.03 91.12 1025.97 91.12ZM1046.76 95.14L1045.68 94.02C1045.12 94.4 1043.78 95.24 1041.66 95.24C1037.82 95.24 1034.72 92.3 1034.72 88.34C1034.72 84.36 1037.82 81.44 1041.66 81.44C1045.48 81.44 1048.6 84.36 1048.6 88.34C1048.6 90.78 1047.5 92.3 1046.72 93.12L1048.68 95.14H1046.76ZM1043.32 89.64L1045.66 92.04C1046.16 91.5 1047.08 90.3 1047.08 88.34C1047.08 85.28 1044.64 82.84 1041.66 82.84C1038.66 82.84 1036.24 85.28 1036.24 88.34C1036.24 91.4 1038.66 93.84 1041.66 93.84C1042.5 93.84 1043.58 93.64 1044.62 92.96L1041.4 89.64H1043.32ZM1060.24 95L1058.68 91.24H1053L1051.4 95H1049.76L1055.9 81.02L1061.88 95H1060.24ZM1053.58 89.84H1058.1L1055.86 84.5L1053.58 89.84ZM1072.28 81.66L1065 93.6H1072.08V95H1062.52L1069.8 83.06H1063.46V81.66H1072.28ZM1081.4 81.66V83.06H1075.96V87.02H1081.24V88.42H1075.96V93.6H1081.4V95H1074.48V81.66H1081.4ZM1082.69 95L1086.63 88.1L1083.05 81.66H1084.73L1087.49 86.68L1090.33 81.66H1092.01L1088.35 88.1L1092.21 95H1090.53L1087.47 89.52L1084.37 95H1082.69ZM1094.21 81.66H1096.63C1097.97 81.66 1099.09 81.82 1099.99 82.6C1100.97 83.44 1101.21 84.62 1101.21 85.46C1101.21 87.34 1100.03 89.2 1096.99 89.2H1095.69V95H1094.21V81.66ZM1095.69 83.06V87.8H1096.91C1098.67 87.8 1099.73 86.92 1099.73 85.38C1099.73 83.26 1097.75 83.06 1096.79 83.06H1095.69ZM1109.55 95.24C1105.69 95.24 1102.61 92.3 1102.61 88.34C1102.61 84.36 1105.71 81.44 1109.55 81.44C1113.39 81.44 1116.49 84.36 1116.49 88.34C1116.49 92.3 1113.41 95.24 1109.55 95.24ZM1109.55 82.84C1106.55 82.84 1104.13 85.28 1104.13 88.34C1104.13 91.4 1106.55 93.84 1109.55 93.84C1112.55 93.84 1114.97 91.4 1114.97 88.34C1114.97 85.28 1112.55 82.84 1109.55 82.84ZM1119.21 81.66H1121.63C1122.97 81.66 1124.09 81.82 1124.99 82.6C1125.97 83.44 1126.21 84.62 1126.21 85.46C1126.21 87.34 1125.03 89.2 1121.99 89.2H1120.69V95H1119.21V81.66ZM1120.69 83.06V87.8H1121.91C1123.67 87.8 1124.73 86.92 1124.73 85.38C1124.73 83.26 1122.75 83.06 1121.79 83.06H1120.69ZM1128.33 81.66H1129.81V95H1128.33V81.66ZM1133.25 81.66H1135.67C1137.01 81.66 1138.13 81.82 1139.03 82.6C1140.01 83.44 1140.25 84.62 1140.25 85.46C1140.25 87.34 1139.07 89.2 1136.03 89.2H1134.73V95H1133.25V81.66ZM1134.73 83.06V87.8H1135.95C1137.71 87.8 1138.77 86.92 1138.77 85.38C1138.77 83.26 1136.79 83.06 1135.83 83.06H1134.73ZM1149.29 81.66V83.06H1143.85V87.02H1149.13V88.42H1143.85V93.6H1149.29V95H1142.37V81.66H1149.29ZM1151.58 94.2C1151.58 93.66 1152.04 93.2 1152.58 93.2C1153.12 93.2 1153.58 93.66 1153.58 94.2C1153.58 94.74 1153.12 95.2 1152.58 95.2C1152.04 95.2 1151.58 94.74 1151.58 94.2ZM1166.77 82.76V84.6C1166.35 84.18 1165.71 83.68 1165.03 83.36C1164.33 83.04 1163.51 82.84 1162.73 82.84C1159.65 82.84 1157.37 85.32 1157.37 88.4C1157.37 92.02 1160.31 93.84 1162.75 93.84C1163.65 93.84 1164.53 93.58 1165.23 93.22C1165.99 92.84 1166.53 92.34 1166.77 92.1V93.94C1165.29 95 1163.75 95.24 1162.75 95.24C1158.79 95.24 1155.85 92.24 1155.85 88.38C1155.85 84.4 1158.83 81.44 1162.83 81.44C1163.63 81.44 1165.17 81.54 1166.77 82.76ZM1175.72 95.24C1171.86 95.24 1168.78 92.3 1168.78 88.34C1168.78 84.36 1171.88 81.44 1175.72 81.44C1179.56 81.44 1182.66 84.36 1182.66 88.34C1182.66 92.3 1179.58 95.24 1175.72 95.24ZM1175.72 82.84C1172.72 82.84 1170.3 85.28 1170.3 88.34C1170.3 91.4 1172.72 93.84 1175.72 93.84C1178.72 93.84 1181.14 91.4 1181.14 88.34C1181.14 85.28 1178.72 82.84 1175.72 82.84ZM1186.44 95H1184.92L1187.14 80.92L1192.26 92.18L1197.48 80.9L1199.56 95H1198.04L1196.78 85.72L1192.24 95.56L1187.76 85.72L1186.44 95Z" fill="#151515"/>
<mask id="path-5-inside-1_273_734" fill="white">
<rect x="899.372" y="65.5928" width="29.8974" height="24.058" rx="2"/>
</mask>
<rect x="899.372" y="65.5928" width="29.8974" height="24.058" rx="2" stroke="#DD2020" stroke-width="6" mask="url(#path-5-inside-1_273_734)"/>
<path d="M900.535 71.6258L914.537 79.1036L928.28 71.6252" stroke="#DD2020" stroke-width="3"/>
<rect x="517.5" y="0.5" width="303" height="151" rx="7.5" fill="white" stroke="#DCDCDC"/>
<path d="M593.756 24.4141V130.848" stroke="#DCDCDC"/>
<path d="M621.348 57.448H618.756V67H617.572V57.448H614.98V56.328H621.348V57.448ZM628.48 56.328V57.448H624.128V60.616H628.352V61.736H624.128V65.88H628.48V67H622.944V56.328H628.48ZM631.751 56.328H638.247V67H637.063V57.448H632.935V63.176C632.935 64.136 632.983 65.544 631.975 66.456C631.511 66.872 630.855 67.096 630.151 67.096C630.071 67.096 629.831 67.08 629.511 67V65.88C629.671 65.928 629.879 65.976 630.103 65.976C630.583 65.976 630.935 65.768 631.143 65.56C631.767 64.936 631.751 63.784 631.751 62.696V56.328ZM646.543 56.328V57.448H642.191V60.616H646.415V61.736H642.191V65.88H646.543V67H641.007V56.328H646.543ZM653.334 67V65.496H653.046C649.078 65.496 648.15 63.064 648.15 61.336C648.15 59.608 649.078 57.176 653.046 57.176H653.334V55.896H654.518V57.176H654.806C658.774 57.176 659.702 59.608 659.702 61.336C659.702 63.064 658.774 65.496 654.806 65.496H654.518V67H653.334ZM653.334 64.376V58.296H653.014C650.102 58.296 649.366 59.976 649.366 61.336C649.366 62.696 650.102 64.376 653.014 64.376H653.334ZM654.518 58.296V64.376H654.838C657.75 64.376 658.486 62.696 658.486 61.336C658.486 59.976 657.75 58.296 654.838 58.296H654.518ZM666.858 67.192C663.77 67.192 661.306 64.84 661.306 61.672C661.306 58.488 663.786 56.152 666.858 56.152C669.93 56.152 672.41 58.488 672.41 61.672C672.41 64.84 669.946 67.192 666.858 67.192ZM666.858 57.272C664.458 57.272 662.522 59.224 662.522 61.672C662.522 64.12 664.458 66.072 666.858 66.072C669.258 66.072 671.194 64.12 671.194 61.672C671.194 59.224 669.258 57.272 666.858 57.272ZM675.769 56.328V60.664H681.241V56.328H682.425V67H681.241V61.784H675.769V67H674.585V56.328H675.769ZM684.827 61C684.827 60.568 685.195 60.2 685.627 60.2C686.059 60.2 686.427 60.568 686.427 61C686.427 61.432 686.059 61.8 685.627 61.8C685.195 61.8 684.827 61.432 684.827 61ZM684.827 66.392C684.827 65.96 685.195 65.592 685.627 65.592C686.059 65.592 686.427 65.96 686.427 66.392C686.427 66.824 686.059 67.192 685.627 67.192C685.195 67.192 684.827 66.824 684.827 66.392Z" fill="#888888"/>
<path d="M615.416 89V87.68H619.036V84.24H620.476V87.68H624.096V89H620.476V92.44H619.036V89H615.416ZM625.796 94.54L633.376 83.02H626.076V81.66H635.876L626.956 95.32L625.796 94.54ZM644.131 80.2L645.391 80.78C645.031 81.72 644.651 82.88 644.371 84.24C644.011 85.98 643.871 87.54 643.871 89.28C643.871 90.92 643.971 92.36 644.351 94.16C644.611 95.46 644.971 96.66 645.391 97.82L644.131 98.4C643.251 96.1 642.871 94.2 642.811 93.88C642.531 92.4 642.391 90.72 642.391 89.24C642.391 87.9 642.491 86.04 642.951 84.04C643.251 82.76 643.731 81.26 644.131 80.2ZM647.71 94.54L655.29 83.02H647.99V81.66H657.79L648.87 95.32L647.71 94.54ZM660.623 95V83.06H658.383L659.163 81.66H662.103V95H660.623ZM665.464 94.54L673.044 83.02H665.744V81.66H675.544L666.624 95.32L665.464 94.54ZM684.415 95H675.795L680.655 89.38C680.995 88.98 681.895 87.92 682.215 87.44C682.815 86.58 682.955 85.94 682.955 85.4C682.955 83.9 681.875 82.8 680.295 82.8C679.355 82.8 678.575 83.22 678.075 83.98C677.815 84.38 677.655 84.88 677.635 85.56H676.155C676.215 84.22 676.635 83.4 677.155 82.8C677.715 82.16 678.655 81.44 680.315 81.44C682.675 81.44 684.435 83.12 684.435 85.42C684.435 86.32 684.175 87.14 683.375 88.28C682.815 89.06 682.095 89.88 681.555 90.5L678.775 93.64H684.415V95ZM687.442 80.78L688.702 80.2C689.102 81.26 689.582 82.76 689.882 84.04C690.342 86.04 690.442 87.9 690.442 89.24C690.442 90.72 690.302 92.4 690.022 93.88C689.962 94.2 689.582 96.1 688.702 98.4L687.442 97.82C687.862 96.66 688.222 95.46 688.482 94.16C688.862 92.36 688.962 90.92 688.962 89.28C688.962 87.54 688.822 85.98 688.462 84.24C688.182 82.88 687.802 81.72 687.442 80.78ZM706.329 95H697.709L702.569 89.38C702.909 88.98 703.809 87.92 704.129 87.44C704.729 86.58 704.869 85.94 704.869 85.4C704.869 83.9 703.789 82.8 702.209 82.8C701.269 82.8 700.489 83.22 699.989 83.98C699.729 84.38 699.569 84.88 699.549 85.56H698.069C698.129 84.22 698.549 83.4 699.069 82.8C699.629 82.16 700.569 81.44 702.229 81.44C704.589 81.44 706.349 83.12 706.349 85.42C706.349 86.32 706.089 87.14 705.289 88.28C704.729 89.06 704.009 89.88 703.469 90.5L700.689 93.64H706.329V95ZM715.8 80.92V91.12H717.44V92.48H715.8V95H714.32V92.48H707.48L715.8 80.92ZM710.1 91.12H714.32V85.22L710.1 91.12ZM719.447 91.48V90H723.847V91.48H719.447ZM730.534 95.24C729.474 95.24 728.134 94.72 727.114 93.24C726.234 91.96 725.774 90.24 725.774 88.34C725.774 86.44 726.234 84.72 727.114 83.44C728.134 81.96 729.474 81.44 730.534 81.44C731.594 81.44 732.934 81.96 733.954 83.44C734.834 84.72 735.294 86.44 735.294 88.34C735.294 90.24 734.834 91.96 733.954 93.24C732.934 94.72 731.594 95.24 730.534 95.24ZM730.534 82.8C729.854 82.8 728.934 83.16 728.234 84.28C727.514 85.42 727.254 86.94 727.254 88.34C727.254 89.74 727.514 91.26 728.234 92.4C728.934 93.52 729.854 93.88 730.534 93.88C731.214 93.88 732.134 93.52 732.834 92.4C733.554 91.26 733.814 89.74 733.814 88.34C733.814 86.94 733.554 85.42 732.834 84.28C732.134 83.16 731.214 82.8 730.534 82.8ZM742.941 81.34L744.061 82.18L741.001 86.44C741.381 86.32 741.761 86.26 742.181 86.26C744.741 86.26 746.501 88.18 746.501 90.66C746.501 93.32 744.581 95.24 741.921 95.24C738.781 95.24 737.301 92.8 737.301 90.7C737.301 90.2 737.401 89.04 738.401 87.64L742.941 81.34ZM741.901 93.88C743.741 93.88 745.021 92.5 745.021 90.7C745.021 88.92 743.701 87.62 741.881 87.62C740.061 87.62 738.781 88.96 738.781 90.7C738.781 92.48 740.041 93.88 741.901 93.88ZM748.588 91.48V90H752.988V91.48H748.588ZM759.674 95.24C758.614 95.24 757.274 94.72 756.254 93.24C755.374 91.96 754.914 90.24 754.914 88.34C754.914 86.44 755.374 84.72 756.254 83.44C757.274 81.96 758.614 81.44 759.674 81.44C760.734 81.44 762.074 81.96 763.094 83.44C763.974 84.72 764.434 86.44 764.434 88.34C764.434 90.24 763.974 91.96 763.094 93.24C762.074 94.72 760.734 95.24 759.674 95.24ZM759.674 82.8C758.994 82.8 758.074 83.16 757.374 84.28C756.654 85.42 756.394 86.94 756.394 88.34C756.394 89.74 756.654 91.26 757.374 92.4C758.074 93.52 758.994 93.88 759.674 93.88C760.354 93.88 761.274 93.52 761.974 92.4C762.694 91.26 762.954 89.74 762.954 88.34C762.954 86.94 762.694 85.42 761.974 84.28C761.274 83.16 760.354 82.8 759.674 82.8ZM770.001 95.32L768.881 94.5L771.941 90.24C771.561 90.36 771.181 90.42 770.761 90.42C768.201 90.42 766.441 88.5 766.441 86.02C766.441 83.36 768.361 81.44 771.021 81.44C774.161 81.44 775.641 83.88 775.641 85.98C775.641 86.48 775.541 87.66 774.541 89.04L770.001 95.32ZM771.041 82.8C769.201 82.8 767.921 84.18 767.921 85.98C767.921 87.76 769.241 89.06 771.061 89.06C772.881 89.06 774.161 87.72 774.161 85.98C774.161 84.2 772.901 82.8 771.041 82.8Z" fill="#151515"/>
<mask id="path-11-outside-2_273_734" maskUnits="userSpaceOnUse" x="541.697" y="65.4365" width="30" height="30" fill="black">
<rect fill="white" x="541.697" y="65.4365" width="30" height="30"/>
<path d="M567.96 85.3094L563.175 82.917C562.951 82.8049 562.696 82.7663 562.449 82.8066C562.201 82.847 561.972 82.9643 561.795 83.1419L559.791 85.1455C556.912 84.6826 552.375 80.1465 551.913 77.2673L553.916 75.2636C554.094 75.0862 554.211 74.8574 554.252 74.6097C554.292 74.3619 554.253 74.1078 554.141 73.8832L551.749 69.0983C551.671 68.9415 551.559 68.8038 551.421 68.6949C551.284 68.5861 551.124 68.5088 550.954 68.4685C550.783 68.4283 550.606 68.426 550.434 68.4618C550.262 68.4977 550.101 68.5708 549.961 68.6761L545.176 72.2647C545.027 72.3761 544.907 72.5206 544.824 72.6867C544.741 72.8528 544.697 73.036 544.697 73.2217C544.697 84.6694 552.389 92.3611 563.837 92.3611C564.022 92.3611 564.206 92.3178 564.372 92.2348C564.538 92.1517 564.682 92.0311 564.794 91.8826L568.382 87.0977C568.488 86.9575 568.561 86.7959 568.597 86.6243C568.632 86.4527 568.63 86.2753 568.59 86.1047C568.55 85.9341 568.472 85.7744 568.363 85.637C568.255 85.4995 568.117 85.3877 567.96 85.3094Z"/>
</mask>
<path d="M567.96 85.3094L566.618 87.9927L566.62 87.9934L567.96 85.3094ZM563.175 82.917L564.517 80.2337L564.515 80.2327L563.175 82.917ZM561.795 83.1419L563.916 85.2632L563.917 85.2621L561.795 83.1419ZM559.791 85.1455L559.315 88.1075L560.828 88.3508L561.912 87.2668L559.791 85.1455ZM551.913 77.2673L549.791 75.1459L548.708 76.2294L548.951 77.7423L551.913 77.2673ZM553.916 75.2636L551.796 73.1412L551.795 73.1423L553.916 75.2636ZM554.141 73.8832L556.826 72.5435L556.825 72.5415L554.141 73.8832ZM551.749 69.0983L549.065 70.4386L549.066 70.44L551.749 69.0983ZM549.961 68.6761L551.761 71.0761L551.762 71.0753L549.961 68.6761ZM545.176 72.2647L543.376 69.8647L545.176 72.2647ZM544.697 73.2217H541.697H544.697ZM564.794 91.8826L562.394 90.0826L564.794 91.8826ZM568.382 87.0977L565.983 85.2967L565.982 85.2977L568.382 87.0977ZM569.302 82.6261L564.517 80.2337L561.834 85.6003L566.618 87.9927L569.302 82.6261ZM564.515 80.2327C563.727 79.8395 562.835 79.7041 561.966 79.8457L562.931 85.7676C562.557 85.8285 562.174 85.7703 561.836 85.6013L564.515 80.2327ZM561.966 79.8457C561.097 79.9873 560.295 80.3986 559.672 81.0216L563.917 85.2621C563.65 85.5299 563.305 85.7067 562.931 85.7676L561.966 79.8457ZM559.673 81.0205L557.67 83.0242L561.912 87.2668L563.916 85.2632L559.673 81.0205ZM560.267 82.1836C560.117 82.1594 559.692 82.022 559.026 81.5964C558.399 81.1954 557.714 80.6385 557.067 79.9911C556.419 79.3437 555.862 78.6592 555.461 78.032C555.036 77.3665 554.899 76.942 554.875 76.7922L548.951 77.7423C549.158 79.0322 549.761 80.2544 550.406 81.2636C551.076 82.3112 551.92 83.3296 552.824 84.2339C553.729 85.1383 554.747 85.9822 555.795 86.6518C556.804 87.297 558.026 87.9002 559.315 88.1075L560.267 82.1836ZM554.034 79.3886L556.038 77.3849L551.795 73.1423L549.791 75.1459L554.034 79.3886ZM556.037 77.386C556.66 76.7636 557.071 75.9611 557.213 75.0921L551.291 74.1273C551.352 73.7537 551.528 73.4088 551.796 73.1412L556.037 77.386ZM557.213 75.0921C557.354 74.223 557.219 73.3314 556.826 72.5435L551.457 75.2228C551.288 74.8841 551.23 74.5009 551.291 74.1273L557.213 75.0921ZM556.825 72.5415L554.432 67.7567L549.066 70.44L551.458 75.2248L556.825 72.5415ZM554.433 67.7581C554.158 67.2079 553.766 66.7248 553.284 66.3431L549.559 71.0468C549.352 70.8827 549.183 70.6751 549.065 70.4386L554.433 67.7581ZM553.284 66.3431C552.802 65.9613 552.242 65.6901 551.643 65.5488L550.264 71.3882C550.007 71.3275 549.766 71.2109 549.559 71.0468L553.284 66.3431ZM551.643 65.5488C551.045 65.4075 550.422 65.3995 549.82 65.5253L551.048 71.3984C550.789 71.4525 550.521 71.449 550.264 71.3882L551.643 65.5488ZM549.82 65.5253C549.218 65.6511 548.651 65.9076 548.16 66.2768L551.762 71.0753C551.55 71.234 551.306 71.3443 551.048 71.3984L549.82 65.5253ZM548.161 66.2761L543.376 69.8647L546.976 74.6647L551.761 71.0761L548.161 66.2761ZM543.376 69.8647C542.855 70.2556 542.432 70.7624 542.14 71.3451L547.507 74.0284C547.382 74.2788 547.2 74.4967 546.976 74.6647L543.376 69.8647ZM542.14 71.3451C541.849 71.9277 541.697 72.5702 541.697 73.2217H547.697C547.697 73.5017 547.632 73.7779 547.507 74.0284L542.14 71.3451ZM541.697 73.2217C541.697 79.6332 543.864 85.2171 547.853 89.2056C551.841 93.1941 557.425 95.3611 563.837 95.3611V89.3611C558.8 89.3611 554.815 87.6822 552.095 84.963C549.376 82.2437 547.697 78.2579 547.697 73.2217H541.697ZM563.837 95.3611C564.488 95.3611 565.131 95.2094 565.713 94.9181L563.03 89.5515C563.28 89.4263 563.557 89.3611 563.837 89.3611V95.3611ZM565.713 94.9181C566.296 94.6267 566.803 94.2037 567.194 93.6826L562.394 90.0826C562.562 89.8586 562.78 89.6767 563.03 89.5515L565.713 94.9181ZM567.194 93.6826L570.782 88.8977L565.982 85.2977L562.394 90.0826L567.194 93.6826ZM570.781 88.8987C571.151 88.407 571.407 87.84 571.533 87.238L565.66 86.0106C565.714 85.7518 565.824 85.5081 565.983 85.2967L570.781 88.8987ZM571.533 87.238C571.659 86.636 571.651 86.0138 571.51 85.4153L565.67 86.7941C565.609 86.5369 565.606 86.2694 565.66 86.0106L571.533 87.238ZM571.51 85.4153C571.368 84.8168 571.097 84.2567 570.715 83.7746L566.011 87.4994C565.847 87.2922 565.731 87.0514 565.67 86.7941L571.51 85.4153ZM570.715 83.7746C570.333 83.2924 569.85 82.9001 569.3 82.6254L566.62 87.9934C566.383 87.8753 566.176 87.7066 566.011 87.4994L570.715 83.7746Z" fill="#DD2020" mask="url(#path-11-outside-2_273_734)"/>
<path d="M561.266 62.8828C564.062 63.2705 572.755 62.8828 572.755 74.7606" stroke="#DD2020" stroke-width="3"/>
<path d="M560.064 68.8213C561.755 69.0557 567.011 68.8213 567.011 76.0024" stroke="#DD2020" stroke-width="3"/>
<rect x="0.5" y="0.5" width="461" height="151" rx="7.5" fill="white" stroke="#DCDCDC"/>
<path d="M69 24V130.434" stroke="#DCDCDC"/>
<path d="M98.512 52L97.264 48.992H92.72L91.44 52H90.128L95.04 40.816L99.824 52H98.512ZM93.184 47.872H96.8L95.008 43.6L93.184 47.872ZM102.257 41.328H108.753V50.88H109.969V54.24H108.849V52H101.297V54.24H100.177V50.88C100.945 50.912 101.553 50.24 101.873 49.44C102.081 48.912 102.257 48.112 102.257 46.64V41.328ZM103.441 42.448V46.64C103.441 48.112 103.313 48.944 103.057 49.616C102.865 50.128 102.593 50.528 102.241 50.88H107.569V42.448H103.441ZM111.564 41.328H113.5C114.572 41.328 115.468 41.456 116.188 42.08C116.972 42.752 117.164 43.696 117.164 44.368C117.164 45.872 116.22 47.36 113.788 47.36H112.748V52H111.564V41.328ZM112.748 42.448V46.24H113.724C115.132 46.24 115.98 45.536 115.98 44.304C115.98 42.608 114.396 42.448 113.628 42.448H112.748ZM124.396 41.328V42.448H120.044V45.616H124.268V46.736H120.044V50.88H124.396V52H118.86V41.328H124.396ZM134.739 42.208V43.68C134.403 43.344 133.891 42.944 133.347 42.688C132.787 42.432 132.131 42.272 131.507 42.272C129.043 42.272 127.219 44.256 127.219 46.72C127.219 49.616 129.571 51.072 131.523 51.072C132.243 51.072 132.947 50.864 133.507 50.576C134.115 50.272 134.547 49.872 134.739 49.68V51.152C133.555 52 132.323 52.192 131.523 52.192C128.355 52.192 126.003 49.792 126.003 46.704C126.003 43.52 128.387 41.152 131.587 41.152C132.227 41.152 133.459 41.232 134.739 42.208ZM136.571 46C136.571 45.568 136.939 45.2 137.371 45.2C137.803 45.2 138.171 45.568 138.171 46C138.171 46.432 137.803 46.8 137.371 46.8C136.939 46.8 136.571 46.432 136.571 46ZM136.571 51.392C136.571 50.96 136.939 50.592 137.371 50.592C137.803 50.592 138.171 50.96 138.171 51.392C138.171 51.824 137.803 52.192 137.371 52.192C136.939 52.192 136.571 51.824 136.571 51.392Z" fill="#888888"/>
<path d="M91.72 67.0936H94.14C95.48 67.0936 96.6 67.2536 97.5 68.0336C98.48 68.8736 98.72 70.0536 98.72 70.8936C98.72 72.7736 97.54 74.6336 94.5 74.6336H93.2V80.4336H91.72V67.0936ZM93.2 68.4936V73.2336H94.42C96.18 73.2336 97.24 72.3536 97.24 70.8136C97.24 68.6936 95.26 68.4936 94.3 68.4936H93.2ZM106.25 77.6536L107.45 78.3136C107.21 78.7736 106.85 79.2736 106.43 79.6536C105.67 80.3336 104.73 80.6736 103.67 80.6736C101.67 80.6736 99.5705 79.4136 99.5705 76.3336C99.5705 73.8536 101.09 71.9336 103.59 71.9336C105.21 71.9336 106.23 72.7336 106.73 73.4536C107.25 74.1936 107.55 75.4736 107.51 76.5736H101.05C101.07 78.2936 102.25 79.3936 103.69 79.3936C104.37 79.3936 104.91 79.1936 105.39 78.7936C105.77 78.4736 106.07 78.0536 106.25 77.6536ZM101.15 75.3736H106.03C105.79 74.0736 104.81 73.2136 103.59 73.2136C102.37 73.2136 101.37 74.1336 101.15 75.3736ZM116.219 72.7336V74.4536C115.459 73.4936 114.359 73.2136 113.619 73.2136C112.079 73.2136 110.679 74.2936 110.679 76.3136C110.679 78.3336 112.119 79.3936 113.599 79.3936C114.459 79.3936 115.519 79.0136 116.279 78.0936V79.8136C115.379 80.4736 114.419 80.6736 113.639 80.6736C111.059 80.6736 109.199 78.8336 109.199 76.3336C109.199 73.7936 111.079 71.9336 113.639 71.9336C114.959 71.9336 115.819 72.4536 116.219 72.7336ZM118.489 72.1336H125.169V80.4336H123.729V73.4536H119.929V80.4336H118.489V72.1336ZM127.863 85.0336L130.503 79.6536L126.683 72.1336H128.323L131.263 78.0736L133.963 72.1336H135.563L129.463 85.0336H127.863ZM143.483 66.4336H145.083C144.603 68.0336 143.243 68.4736 142.363 68.6936C141.583 68.8936 140.523 69.0736 139.723 69.6536C138.683 70.4336 138.043 71.9336 137.983 73.4536H138.023C138.563 72.5336 139.563 71.9336 141.043 71.9336C143.523 71.9336 145.363 73.8336 145.363 76.3136C145.363 78.7936 143.543 80.6736 140.823 80.6736C139.423 80.6736 138.503 80.1336 137.963 79.6336C136.703 78.4736 136.563 76.8136 136.563 75.3536C136.563 73.8736 136.623 70.0936 138.923 68.5136C139.823 67.8936 140.863 67.7136 141.823 67.4936C142.943 67.2336 143.303 66.8936 143.483 66.4336ZM140.963 73.2136C139.443 73.2136 138.043 74.2936 138.043 76.3136C138.043 78.3536 139.483 79.3936 140.963 79.3936C142.463 79.3936 143.883 78.3336 143.883 76.3136C143.883 74.2736 142.483 73.2136 140.963 73.2136ZM153.851 72.1336V80.4336H152.411V73.4536H149.451V77.1936C149.451 77.8936 149.451 78.8136 148.811 79.5936C148.551 79.9136 147.931 80.4736 146.811 80.4736C146.671 80.4736 146.511 80.4536 146.371 80.4336V79.1136C146.471 79.1336 146.591 79.1536 146.691 79.1536C147.231 79.1536 147.571 78.8736 147.731 78.6136C147.991 78.2136 148.011 77.6936 148.011 77.1936V72.1336H153.851ZM156.575 72.1336H158.015V77.6136L163.695 71.4936V80.4336H162.255V74.8936L156.575 81.0136V72.1336ZM166.419 72.1336H167.859V75.5336L171.219 72.1336H172.979L169.379 75.8336L173.419 80.4336H171.539L168.299 76.7936L167.859 77.2136V80.4336H166.419V72.1336ZM181.216 73.3136V72.1336H182.656V80.4336H181.216V79.2736C180.736 79.8936 179.836 80.6736 178.376 80.6736C176.276 80.6736 174.336 79.1936 174.336 76.2736C174.336 73.4136 176.256 71.9336 178.376 71.9336C179.976 71.9336 180.836 72.8136 181.216 73.3136ZM178.536 73.2136C177.116 73.2136 175.816 74.2536 175.816 76.2736C175.816 78.0536 176.816 79.3936 178.536 79.3936C180.296 79.3936 181.296 77.9336 181.296 76.2936C181.296 74.1536 179.816 73.2136 178.536 73.2136ZM191.891 67.0936V72.8136L197.571 67.0936H199.571L193.331 73.3136L199.771 80.4336H197.731L192.271 74.3136L191.891 74.6936V80.4336H190.411V67.0936H191.891ZM206.939 73.3136V72.1336H208.379V80.4336H206.939V79.2736C206.459 79.8936 205.559 80.6736 204.099 80.6736C201.999 80.6736 200.059 79.1936 200.059 76.2736C200.059 73.4136 201.979 71.9336 204.099 71.9336C205.699 71.9336 206.559 72.8136 206.939 73.3136ZM204.259 73.2136C202.839 73.2136 201.539 74.2536 201.539 76.2736C201.539 78.0536 202.539 79.3936 204.259 79.3936C206.019 79.3936 207.019 77.9336 207.019 76.2936C207.019 74.1536 205.539 73.2136 204.259 73.2136ZM212.186 74.2536L211.186 73.4336C211.466 73.0336 211.846 72.6336 212.246 72.3936C212.886 72.0136 213.526 71.9336 214.066 71.9336C214.726 71.9336 215.406 71.9936 216.026 72.5136C216.566 72.9736 216.746 73.5136 216.746 74.0936C216.746 75.0736 216.226 75.5736 215.806 75.8336C216.226 75.9336 216.566 76.1536 216.766 76.3736C217.106 76.7336 217.346 77.2536 217.346 77.8936C217.346 78.7536 216.946 79.5336 216.266 80.0336C215.666 80.4736 214.806 80.6736 213.906 80.6736C213.166 80.6736 212.386 80.5136 211.686 79.9736C211.206 79.6136 210.826 79.0736 210.586 78.5536L211.826 78.0336C211.906 78.2336 212.106 78.6336 212.566 78.9736C213.026 79.3136 213.486 79.3936 213.926 79.3936C214.246 79.3936 214.886 79.3736 215.326 79.0736C215.606 78.8936 215.906 78.5136 215.906 77.9136C215.906 77.4536 215.686 77.1336 215.406 76.9536C214.986 76.6736 214.426 76.6736 214.046 76.6736H213.206V75.3536H213.906C214.566 75.3536 214.866 75.2136 214.986 75.1336C215.206 74.9936 215.426 74.7536 215.426 74.3736C215.426 74.0136 215.286 73.6936 215.066 73.5136C214.726 73.2136 214.266 73.2136 214.006 73.2136C213.686 73.2136 213.286 73.2736 212.866 73.5336C212.646 73.6736 212.386 73.8936 212.186 74.2536ZM225.904 73.3136V72.1336H227.344V80.4336H225.904V79.2736C225.424 79.8936 224.524 80.6736 223.064 80.6736C220.964 80.6736 219.024 79.1936 219.024 76.2736C219.024 73.4136 220.944 71.9336 223.064 71.9336C224.664 71.9336 225.524 72.8136 225.904 73.3136ZM223.224 73.2136C221.804 73.2136 220.504 74.2536 220.504 76.2736C220.504 78.0536 221.504 79.3936 223.224 79.3936C224.984 79.3936 225.984 77.9336 225.984 76.2936C225.984 74.1536 224.504 73.2136 223.224 73.2136ZM228.871 80.4336L232.411 75.9936L229.391 72.1336H231.151L233.291 74.9536L235.471 72.1336H237.231L234.191 76.0136L237.631 80.4336H235.871L233.251 77.0536L230.631 80.4336H228.871ZM245.458 72.7336V74.4536C244.698 73.4936 243.598 73.2136 242.858 73.2136C241.318 73.2136 239.918 74.2936 239.918 76.3136C239.918 78.3336 241.358 79.3936 242.838 79.3936C243.698 79.3936 244.758 79.0136 245.518 78.0936V79.8136C244.618 80.4736 243.658 80.6736 242.878 80.6736C240.298 80.6736 238.438 78.8336 238.438 76.3336C238.438 73.7936 240.318 71.9336 242.878 71.9336C244.198 71.9336 245.058 72.4536 245.458 72.7336ZM253.167 73.4536H250.567V80.4336H249.127V73.4536H246.527V72.1336H253.167V73.4536ZM260.786 73.3136V72.1336H262.226V80.4336H260.786V79.2736C260.306 79.8936 259.406 80.6736 257.946 80.6736C255.846 80.6736 253.906 79.1936 253.906 76.2736C253.906 73.4136 255.826 71.9336 257.946 71.9336C259.546 71.9336 260.406 72.8136 260.786 73.3136ZM258.106 73.2136C256.686 73.2136 255.386 74.2536 255.386 76.2736C255.386 78.0536 256.386 79.3936 258.106 79.3936C259.866 79.3936 260.866 77.9336 260.866 76.2936C260.866 74.1536 259.386 73.2136 258.106 73.2136ZM264.954 80.4336V72.1336H266.394V75.5336H270.314V72.1336H271.754V80.4336H270.314V76.8536H266.394V80.4336H264.954ZM273.305 83.0936L274.945 78.4736L276.265 78.9536L274.245 83.4736L273.305 83.0936ZM293.2 80.6736C292.14 80.6736 290.8 80.1536 289.78 78.6736C288.9 77.3936 288.44 75.6736 288.44 73.7736C288.44 71.8736 288.9 70.1536 289.78 68.8736C290.8 67.3936 292.14 66.8736 293.2 66.8736C294.26 66.8736 295.6 67.3936 296.62 68.8736C297.5 70.1536 297.96 71.8736 297.96 73.7736C297.96 75.6736 297.5 77.3936 296.62 78.6736C295.6 80.1536 294.26 80.6736 293.2 80.6736ZM293.2 68.2336C292.52 68.2336 291.6 68.5936 290.9 69.7136C290.18 70.8536 289.92 72.3736 289.92 73.7736C289.92 75.1736 290.18 76.6936 290.9 77.8336C291.6 78.9536 292.52 79.3136 293.2 79.3136C293.88 79.3136 294.8 78.9536 295.5 77.8336C296.22 76.6936 296.48 75.1736 296.48 73.7736C296.48 72.3736 296.22 70.8536 295.5 69.7136C294.8 68.5936 293.88 68.2336 293.2 68.2336ZM303.527 80.7536L302.407 79.9336L305.467 75.6736C305.087 75.7936 304.707 75.8536 304.287 75.8536C301.727 75.8536 299.967 73.9336 299.967 71.4536C299.967 68.7936 301.887 66.8736 304.547 66.8736C307.687 66.8736 309.167 69.3136 309.167 71.4136C309.167 71.9136 309.067 73.0936 308.067 74.4736L303.527 80.7536ZM304.567 68.2336C302.727 68.2336 301.447 69.6136 301.447 71.4136C301.447 73.1936 302.767 74.4936 304.587 74.4936C306.407 74.4936 307.687 73.1536 307.687 71.4136C307.687 69.6336 306.427 68.2336 304.567 68.2336ZM315.934 80.6736C314.874 80.6736 313.534 80.1536 312.514 78.6736C311.634 77.3936 311.174 75.6736 311.174 73.7736C311.174 71.8736 311.634 70.1536 312.514 68.8736C313.534 67.3936 314.874 66.8736 315.934 66.8736C316.994 66.8736 318.334 67.3936 319.354 68.8736C320.234 70.1536 320.694 71.8736 320.694 73.7736C320.694 75.6736 320.234 77.3936 319.354 78.6736C318.334 80.1536 316.994 80.6736 315.934 80.6736ZM315.934 68.2336C315.254 68.2336 314.334 68.5936 313.634 69.7136C312.914 70.8536 312.654 72.3736 312.654 73.7736C312.654 75.1736 312.914 76.6936 313.634 77.8336C314.334 78.9536 315.254 79.3136 315.934 79.3136C316.614 79.3136 317.534 78.9536 318.234 77.8336C318.954 76.6936 319.214 75.1736 319.214 73.7736C319.214 72.3736 318.954 70.8536 318.234 69.7136C317.534 68.5936 316.614 68.2336 315.934 68.2336ZM327.301 80.6736C326.241 80.6736 324.901 80.1536 323.881 78.6736C323.001 77.3936 322.541 75.6736 322.541 73.7736C322.541 71.8736 323.001 70.1536 323.881 68.8736C324.901 67.3936 326.241 66.8736 327.301 66.8736C328.361 66.8736 329.701 67.3936 330.721 68.8736C331.601 70.1536 332.061 71.8736 332.061 73.7736C332.061 75.6736 331.601 77.3936 330.721 78.6736C329.701 80.1536 328.361 80.6736 327.301 80.6736ZM327.301 68.2336C326.621 68.2336 325.701 68.5936 325.001 69.7136C324.281 70.8536 324.021 72.3736 324.021 73.7736C324.021 75.1736 324.281 76.6936 325.001 77.8336C325.701 78.9536 326.621 79.3136 327.301 79.3136C327.981 79.3136 328.901 78.9536 329.601 77.8336C330.321 76.6936 330.581 75.1736 330.581 73.7736C330.581 72.3736 330.321 70.8536 329.601 69.7136C328.901 68.5936 327.981 68.2336 327.301 68.2336ZM338.668 80.6736C337.608 80.6736 336.268 80.1536 335.248 78.6736C334.368 77.3936 333.908 75.6736 333.908 73.7736C333.908 71.8736 334.368 70.1536 335.248 68.8736C336.268 67.3936 337.608 66.8736 338.668 66.8736C339.728 66.8736 341.068 67.3936 342.088 68.8736C342.968 70.1536 343.428 71.8736 343.428 73.7736C343.428 75.6736 342.968 77.3936 342.088 78.6736C341.068 80.1536 339.728 80.6736 338.668 80.6736ZM338.668 68.2336C337.988 68.2336 337.068 68.5936 336.368 69.7136C335.648 70.8536 335.388 72.3736 335.388 73.7736C335.388 75.1736 335.648 76.6936 336.368 77.8336C337.068 78.9536 337.988 79.3136 338.668 79.3136C339.348 79.3136 340.268 78.9536 340.968 77.8336C341.688 76.6936 341.948 75.1736 341.948 73.7736C341.948 72.3736 341.688 70.8536 340.968 69.7136C340.268 68.5936 339.348 68.2336 338.668 68.2336ZM353.935 67.0936V68.4536H349.655L348.795 71.3336C349.055 71.2736 349.315 71.2536 349.635 71.2536C352.315 71.2536 354.035 73.2736 354.035 75.8736C354.035 78.8536 351.795 80.6736 349.175 80.6736C348.095 80.6736 347.095 80.3736 346.195 79.6336C345.775 79.2736 345.355 78.8136 345.035 78.2736L346.215 77.4336C346.435 77.8736 346.715 78.1936 347.115 78.5136C347.675 78.9736 348.355 79.3136 349.275 79.3136C351.155 79.3136 352.555 77.7736 352.555 75.8936C352.555 73.9736 351.175 72.6136 349.275 72.6136C348.795 72.6136 347.895 72.6936 346.695 73.5336L348.635 67.0936H353.935ZM355.532 83.0936L357.172 78.4736L358.492 78.9536L356.472 83.4736L355.532 83.0936ZM367.691 69.7136L366.551 68.8136C367.631 67.2136 369.071 66.8736 370.371 66.8736C371.051 66.8736 372.271 66.9736 373.191 67.8136C373.771 68.3336 374.231 69.1736 374.231 70.2736C374.231 71.6336 373.431 72.6136 372.391 73.0936C374.171 73.4936 375.071 74.9136 375.071 76.5336C375.071 78.1936 374.231 79.2136 373.411 79.7936C372.571 80.3736 371.451 80.6736 370.371 80.6736C367.731 80.6736 366.231 79.0336 365.551 77.4736L366.991 76.8336C367.531 78.3336 368.831 79.2736 370.431 79.2736C371.151 79.2736 371.911 79.0936 372.471 78.7136C373.331 78.1136 373.551 77.2936 373.551 76.5736C373.551 74.1336 371.291 73.9536 369.991 73.9536H368.791V72.5536H369.991C371.851 72.5536 372.711 71.5136 372.711 70.2936C372.711 69.7136 372.491 69.2136 372.171 68.8936C371.651 68.3536 370.891 68.2736 370.371 68.2736C369.411 68.2736 368.491 68.5536 367.691 69.7136ZM379.274 67.0936V72.8136L384.954 67.0936H386.954L380.714 73.3136L387.154 80.4336H385.114L379.654 74.3136L379.274 74.6936V80.4336H377.794V67.0936H379.274ZM394.542 80.6736C390.682 80.6736 387.602 77.7336 387.602 73.7736C387.602 69.7936 390.702 66.8736 394.542 66.8736C398.382 66.8736 401.482 69.7936 401.482 73.7736C401.482 77.7336 398.402 80.6736 394.542 80.6736ZM394.542 68.2736C391.542 68.2736 389.122 70.7136 389.122 73.7736C389.122 76.8336 391.542 79.2736 394.542 79.2736C397.542 79.2736 399.962 76.8336 399.962 73.7736C399.962 70.7136 397.542 68.2736 394.542 68.2736ZM402.485 83.0936L404.125 78.4736L405.445 78.9536L403.425 83.4736L402.485 83.0936ZM91.36 100.434V92.1336H96.28V93.4536H92.8V100.434H91.36ZM96.2409 99.6336C96.2409 99.0936 96.7009 98.6336 97.2409 98.6336C97.7809 98.6336 98.2409 99.0936 98.2409 99.6336C98.2409 100.174 97.7809 100.634 97.2409 100.634C96.7009 100.634 96.2409 100.174 96.2409 99.6336ZM104.34 87.0936H106.14L110.3 94.9536L113.78 87.0936H115.38L109.36 100.434H107.76L109.46 96.7136L104.34 87.0936ZM117.273 99.2736V105.034H115.833V92.1336H117.273V93.2936C118.253 92.0736 119.513 91.9336 120.113 91.9336C122.713 91.9336 124.153 94.0936 124.153 96.3336C124.153 98.6136 122.693 100.674 120.173 100.674C118.833 100.674 117.893 100.074 117.273 99.2736ZM119.973 99.3936C121.653 99.3936 122.673 97.9936 122.673 96.3336C122.673 94.2936 121.293 93.2136 119.953 93.2136C118.613 93.2136 117.193 94.3136 117.193 96.3136C117.193 98.0136 118.273 99.3936 119.973 99.3936ZM132.72 93.3136V92.1336H134.16V100.434H132.72V99.2736C132.24 99.8936 131.34 100.674 129.88 100.674C127.78 100.674 125.84 99.1936 125.84 96.2736C125.84 93.4136 127.76 91.9336 129.88 91.9336C131.48 91.9336 132.34 92.8136 132.72 93.3136ZM130.04 93.2136C128.62 93.2136 127.32 94.2536 127.32 96.2736C127.32 98.0536 128.32 99.3936 130.04 99.3936C131.8 99.3936 132.8 97.9336 132.8 96.2936C132.8 94.1536 131.32 93.2136 130.04 93.2136ZM143.167 92.1336V100.434H141.727V93.4536H138.767V97.1936C138.767 97.8936 138.767 98.8136 138.127 99.5936C137.867 99.9136 137.247 100.474 136.127 100.474C135.987 100.474 135.827 100.454 135.687 100.434V99.1136C135.787 99.1336 135.907 99.1536 136.007 99.1536C136.547 99.1536 136.887 98.8736 137.047 98.6136C137.307 98.2136 137.327 97.6936 137.327 97.1936V92.1336H143.167ZM145.891 100.434V92.1336H147.331V95.3136H148.811C149.551 95.3136 150.591 95.3736 151.331 96.1336C151.651 96.4536 151.971 97.0336 151.971 97.8736C151.971 98.7736 151.591 99.3936 151.231 99.7336C150.511 100.414 149.611 100.434 148.791 100.434H145.891ZM147.331 99.1536H148.671C149.151 99.1536 149.611 99.1336 149.951 98.9336C150.131 98.8136 150.491 98.5136 150.491 97.8736C150.491 97.5136 150.391 97.0936 149.971 96.8336C149.611 96.5936 149.151 96.5936 148.691 96.5936H147.331V99.1536ZM160.399 92.7336V94.4536C159.639 93.4936 158.539 93.2136 157.799 93.2136C156.259 93.2136 154.859 94.2936 154.859 96.3136C154.859 98.3336 156.299 99.3936 157.779 99.3936C158.639 99.3936 159.699 99.0136 160.459 98.0936V99.8136C159.559 100.474 158.599 100.674 157.819 100.674C155.239 100.674 153.379 98.8336 153.379 96.3336C153.379 93.7936 155.259 91.9336 157.819 91.9336C159.139 91.9336 159.999 92.4536 160.399 92.7336ZM162.669 92.1336H164.109V95.5336L167.469 92.1336H169.229L165.629 95.8336L169.669 100.434H167.789L164.549 96.7936L164.109 97.2136V100.434H162.669V92.1336ZM169.946 103.094L171.586 98.4736L172.906 98.9536L170.886 103.474L169.946 103.094ZM180.305 105.034L182.945 99.6536L179.125 92.1336H180.765L183.705 98.0736L186.405 92.1336H188.005L181.905 105.034H180.305ZM195.609 92.1336V100.434H194.169V93.4536H191.209V97.1936C191.209 97.8936 191.209 98.8136 190.569 99.5936C190.309 99.9136 189.689 100.474 188.569 100.474C188.429 100.474 188.269 100.454 188.129 100.434V99.1136C188.229 99.1336 188.349 99.1536 188.449 99.1536C188.989 99.1536 189.329 98.8736 189.489 98.6136C189.749 98.2136 189.769 97.6936 189.769 97.1936V92.1336H195.609ZM198.253 99.6336C198.253 99.0936 198.713 98.6336 199.253 98.6336C199.793 98.6336 200.253 99.0936 200.253 99.6336C200.253 100.174 199.793 100.634 199.253 100.634C198.713 100.634 198.253 100.174 198.253 99.6336ZM203.243 87.0936H205.663C207.003 87.0936 208.123 87.2536 209.023 88.0336C210.003 88.8736 210.243 90.0536 210.243 90.8936C210.243 92.7736 209.063 94.6336 206.023 94.6336H204.723V100.434H203.243V87.0936ZM204.723 88.4936V93.2336H205.943C207.703 93.2336 208.763 92.3536 208.763 90.8136C208.763 88.6936 206.783 88.4936 205.823 88.4936H204.723ZM212.375 105.034L215.015 99.6536L211.195 92.1336H212.835L215.775 98.0736L218.475 92.1336H220.075L213.975 105.034H212.375ZM225.474 92.1336H226.914V95.5336L230.034 92.1336H231.714L228.114 95.9736L232.074 100.434H230.274L227.194 96.9336L226.914 97.2136V100.434H225.474V97.2136L225.194 96.9336L222.114 100.434H220.314L224.274 95.9736L220.674 92.1336H222.354L225.474 95.5336V92.1336ZM239.473 97.6536L240.673 98.3136C240.433 98.7736 240.073 99.2736 239.653 99.6536C238.893 100.334 237.953 100.674 236.893 100.674C234.893 100.674 232.793 99.4136 232.793 96.3336C232.793 93.8536 234.313 91.9336 236.813 91.9336C238.433 91.9336 239.453 92.7336 239.953 93.4536C240.473 94.1936 240.773 95.4736 240.733 96.5736H234.273C234.293 98.2936 235.473 99.3936 236.913 99.3936C237.593 99.3936 238.133 99.1936 238.613 98.7936C238.993 98.4736 239.293 98.0536 239.473 97.6536ZM234.373 95.3736H239.253C239.013 94.0736 238.033 93.2136 236.813 93.2136C235.593 93.2136 234.593 94.1336 234.373 95.3736ZM242.942 92.1336H244.382V97.6136L250.062 91.4936V100.434H248.622V94.8936L242.942 101.014V92.1336ZM243.662 88.5536L244.862 88.0936C245.062 88.7736 245.622 89.2936 246.562 89.2936C247.502 89.2936 248.062 88.7736 248.262 88.0936L249.462 88.5536C249.042 89.7336 247.962 90.4936 246.562 90.4936C245.162 90.4936 244.082 89.7336 243.662 88.5536ZM252.786 100.434V92.1336H254.226V95.5336H258.146V92.1336H259.586V100.434H258.146V96.8536H254.226V100.434H252.786ZM262.298 92.1336H263.738V97.6136L269.418 91.4936V100.434H267.978V94.8936L262.298 101.014V92.1336ZM272.141 92.1336H273.581V95.5336L276.941 92.1336H278.701L275.101 95.8336L279.141 100.434H277.261L274.021 96.7936L273.581 97.2136V100.434H272.141V92.1336ZM284.068 100.674C281.548 100.674 279.668 98.8336 279.668 96.3136C279.668 93.7936 281.528 91.9336 284.068 91.9336C286.608 91.9336 288.468 93.7936 288.468 96.3136C288.468 98.8336 286.588 100.674 284.068 100.674ZM284.068 93.2136C282.548 93.2136 281.148 94.2936 281.148 96.3136C281.148 98.3536 282.588 99.3936 284.068 99.3936C285.568 99.3936 286.988 98.3336 286.988 96.3136C286.988 94.2736 285.588 93.2136 284.068 93.2136ZM290.676 92.1336H293.816C294.256 92.1336 294.976 92.1536 295.556 92.6136C295.856 92.8536 296.276 93.3336 296.276 94.1736C296.276 94.9936 295.876 95.5136 295.376 95.8336C295.616 95.8936 296.016 96.0136 296.416 96.3936C296.876 96.8336 297.076 97.3536 297.076 97.9936C297.076 98.8736 296.676 99.5136 296.216 99.8736C295.716 100.254 294.916 100.434 294.256 100.434H290.676V92.1336ZM292.116 95.5136H293.636C293.776 95.5136 294.236 95.4936 294.556 95.2736C294.716 95.1536 294.956 94.9136 294.956 94.4136C294.956 94.0136 294.776 93.7736 294.556 93.6136C294.216 93.3936 293.836 93.4136 293.396 93.4136H292.116V95.5136ZM292.116 99.1536H293.896C294.296 99.1536 294.836 99.1336 295.196 98.8736C295.456 98.6736 295.676 98.3336 295.676 97.9536C295.676 97.5736 295.536 97.2336 295.256 97.0136C294.896 96.7336 294.356 96.7136 293.956 96.7136H292.116V99.1536ZM305.63 93.3136V92.1336H307.07V100.434H305.63V99.2736C305.15 99.8936 304.25 100.674 302.79 100.674C300.69 100.674 298.75 99.1936 298.75 96.2736C298.75 93.4136 300.67 91.9336 302.79 91.9336C304.39 91.9336 305.25 92.8136 305.63 93.3136ZM302.95 93.2136C301.53 93.2136 300.23 94.2536 300.23 96.2736C300.23 98.0536 301.23 99.3936 302.95 99.3936C304.71 99.3936 305.71 97.9336 305.71 96.2936C305.71 94.1536 304.23 93.2136 302.95 93.2136ZM308.638 103.094L310.278 98.4736L311.598 98.9536L309.578 103.474L308.638 103.094ZM325.516 92.7336V94.4536C324.756 93.4936 323.656 93.2136 322.916 93.2136C321.376 93.2136 319.976 94.2936 319.976 96.3136C319.976 98.3336 321.416 99.3936 322.896 99.3936C323.756 99.3936 324.816 99.0136 325.576 98.0936V99.8136C324.676 100.474 323.716 100.674 322.936 100.674C320.356 100.674 318.496 98.8336 318.496 96.3336C318.496 93.7936 320.376 91.9336 322.936 91.9336C324.256 91.9336 325.116 92.4536 325.516 92.7336ZM333.226 93.4536H330.626V100.434H329.186V93.4536H326.586V92.1336H333.226V93.4536ZM336.179 99.2736V105.034H334.739V92.1336H336.179V93.2936C337.159 92.0736 338.419 91.9336 339.019 91.9336C341.619 91.9336 343.059 94.0936 343.059 96.3336C343.059 98.6136 341.599 100.674 339.079 100.674C337.739 100.674 336.799 100.074 336.179 99.2736ZM338.879 99.3936C340.559 99.3936 341.579 97.9936 341.579 96.3336C341.579 94.2936 340.199 93.2136 338.859 93.2136C337.519 93.2136 336.099 94.3136 336.099 96.3136C336.099 98.0136 337.179 99.3936 338.879 99.3936ZM345.186 99.6336C345.186 99.0936 345.646 98.6336 346.186 98.6336C346.726 98.6336 347.186 99.0936 347.186 99.6336C347.186 100.174 346.726 100.634 346.186 100.634C345.646 100.634 345.186 100.174 345.186 99.6336ZM351.375 100.434V88.4936H349.135L349.915 87.0936H352.855V100.434H351.375ZM358.25 100.434V88.4936H356.01L356.79 87.0936H359.73V100.434H358.25ZM374.937 100.434L373.377 96.6736H367.697L366.097 100.434H364.457L370.597 86.4536L376.577 100.434H374.937ZM368.277 95.2736H372.797L370.557 89.9336L368.277 95.2736Z" fill="#151515"/>
<path fill-rule="evenodd" clip-rule="evenodd" d="M24.3009 75.6875C25.6056 82.7006 32.6666 87.7375 36.0137 94.2427C39.3622 87.7389 46.4232 82.702 47.7279 75.6875C51.3712 56.1042 20.6576 56.1042 24.3009 75.6875ZM36.0137 89.0281C39.4342 84.4538 44.0804 79.723 44.9281 75.1657C47.7322 60.093 24.2953 60.093 27.0994 75.1657C27.9485 79.7216 32.5933 84.4538 36.0137 89.0281Z" fill="#DD2020"/>
<path d="M36.0152 78.2325C38.9193 78.2325 41.2735 75.8783 41.2735 72.9742C41.2735 70.0701 38.9193 67.7158 36.0152 67.7158C33.1111 67.7158 30.7568 70.0701 30.7568 72.9742C30.7568 75.8783 33.1111 78.2325 36.0152 78.2325Z" fill="#DD2020"/>
</svg>
