<svg width="534" height="14" viewBox="0 0 534 14" fill="none" xmlns="http://www.w3.org/2000/svg">
<rect x="34" y="7.1377" width="467" height="2" fill="#D7D4D4"/>
<rect x="33.502" y="7" width="139" height="2" fill="#DD2020"/>
<path d="M518.112 13.216C517.158 13.216 515.952 12.748 515.034 11.416C514.242 10.264 513.828 8.716 513.828 7.006C513.828 5.296 514.242 3.748 515.034 2.596C515.952 1.264 517.158 0.795999 518.112 0.795999C519.066 0.795999 520.272 1.264 521.19 2.596C521.982 3.748 522.396 5.296 522.396 7.006C522.396 8.716 521.982 10.264 521.19 11.416C520.272 12.748 519.066 13.216 518.112 13.216ZM518.112 2.02C517.5 2.02 516.672 2.344 516.042 3.352C515.394 4.378 515.16 5.746 515.16 7.006C515.16 8.266 515.394 9.634 516.042 10.66C516.672 11.668 517.5 11.992 518.112 11.992C518.724 11.992 519.552 11.668 520.182 10.66C520.83 9.634 521.064 8.266 521.064 7.006C521.064 5.746 520.83 4.378 520.182 3.352C519.552 2.344 518.724 2.02 518.112 2.02ZM529.278 0.705999L530.286 1.462L527.532 5.296C527.874 5.188 528.216 5.134 528.594 5.134C530.898 5.134 532.482 6.862 532.482 9.094C532.482 11.488 530.754 13.216 528.36 13.216C525.534 13.216 524.202 11.02 524.202 9.13C524.202 8.68 524.292 7.636 525.192 6.376L529.278 0.705999ZM528.342 11.992C529.998 11.992 531.15 10.75 531.15 9.13C531.15 7.528 529.962 6.358 528.324 6.358C526.686 6.358 525.534 7.564 525.534 9.13C525.534 10.732 526.668 11.992 528.342 11.992Z" fill="#222222"/>
<path d="M5.112 13.216C4.158 13.216 2.952 12.748 2.034 11.416C1.242 10.264 0.828 8.716 0.828 7.006C0.828 5.296 1.242 3.748 2.034 2.596C2.952 1.264 4.158 0.795999 5.112 0.795999C6.066 0.795999 7.272 1.264 8.19 2.596C8.982 3.748 9.396 5.296 9.396 7.006C9.396 8.716 8.982 10.264 8.19 11.416C7.272 12.748 6.066 13.216 5.112 13.216ZM5.112 2.02C4.5 2.02 3.672 2.344 3.042 3.352C2.394 4.378 2.16 5.746 2.16 7.006C2.16 8.266 2.394 9.634 3.042 10.66C3.672 11.668 4.5 11.992 5.112 11.992C5.724 11.992 6.552 11.668 7.182 10.66C7.83 9.634 8.064 8.266 8.064 7.006C8.064 5.746 7.83 4.378 7.182 3.352C6.552 2.344 5.724 2.02 5.112 2.02ZM13.2255 13V2.254H11.2095L11.9115 0.993999H14.5575V13H13.2255Z" fill="#222222"/>
</svg>
