<svg width="251" height="147" viewBox="0 0 251 147" fill="none" xmlns="http://www.w3.org/2000/svg">
<path d="M82.5177 5.994V8.334H78.5577V18H75.7857V5.994H82.5177ZM90.8334 5.994V8.334H86.8194V10.656H90.6354V12.996H86.8194V15.66H90.8334V18H84.0474V5.994H90.8334ZM99.0766 5.724C100.949 5.724 102.515 6.3 103.721 7.47C104.855 8.568 105.593 10.152 105.593 12.006C105.593 13.608 105.017 15.246 103.721 16.506C102.605 17.586 101.093 18.27 99.0766 18.27C96.8266 18.27 95.2966 17.37 94.3966 16.506C93.2446 15.426 92.5246 13.806 92.5246 12.042C92.5246 10.314 93.2986 8.568 94.3786 7.488C95.1886 6.678 96.6826 5.724 99.0766 5.724ZM99.0586 8.28C98.0146 8.28 97.0786 8.658 96.4306 9.306C95.9086 9.81 95.3686 10.692 95.3686 12.024C95.3686 13.122 95.7286 14.004 96.4666 14.724C97.2406 15.462 98.1046 15.714 99.0406 15.714C100.265 15.714 101.129 15.264 101.705 14.688C102.173 14.238 102.749 13.392 102.749 12.006C102.749 10.764 102.245 9.846 101.705 9.306C101.111 8.73 100.157 8.28 99.0586 8.28ZM114.387 5.994V8.334H110.427V18H107.655V5.994H114.387ZM115.917 5.994H120.147C121.191 5.994 122.343 6.138 123.297 6.984C124.323 7.884 124.467 9.072 124.467 9.9C124.467 11.412 123.891 12.258 123.441 12.726C122.487 13.698 121.227 13.788 120.381 13.788H118.689V18H115.917V5.994ZM118.689 8.262V11.52H119.679C120.057 11.52 120.723 11.502 121.173 11.07C121.425 10.818 121.623 10.404 121.623 9.882C121.623 9.378 121.443 8.964 121.173 8.712C120.759 8.316 120.165 8.262 119.625 8.262H118.689ZM133.4 18L132.5 15.732H127.964L127.046 18H124.166L129.008 5.994H131.546L136.28 18H133.4ZM128.774 13.608H131.744L130.268 9.576L128.774 13.608ZM142.242 18V16.326H142.098C141.324 16.326 139.128 16.2 137.85 14.832C137.202 14.13 136.716 13.014 136.716 11.538C136.716 9.972 137.292 8.946 137.886 8.316C139.182 6.948 141.324 6.804 142.098 6.804H142.242V5.148H145.014V6.804H145.158C145.932 6.804 148.074 6.948 149.37 8.316C149.964 8.946 150.54 9.972 150.54 11.538C150.54 13.014 150.054 14.13 149.406 14.832C148.128 16.2 145.932 16.326 145.158 16.326H145.014V18H142.242ZM142.35 9.036H142.242C141.63 9.036 140.748 9.126 140.136 9.738C139.848 10.026 139.488 10.602 139.488 11.574C139.488 12.528 139.812 13.068 140.136 13.392C140.748 14.004 141.63 14.094 142.242 14.094H142.35V9.036ZM144.906 9.036V14.094H145.014C145.626 14.094 146.508 14.004 147.12 13.392C147.444 13.068 147.768 12.528 147.768 11.574C147.768 10.602 147.408 10.026 147.12 9.738C146.508 9.126 145.626 9.036 145.014 9.036H144.906ZM152.602 5.994H155.374V13.842L160.936 5.85H163.384V18H160.612V10.134L155.05 18.144H152.602V5.994ZM174.222 5.994V18H171.45V13.626H171.09L168.264 18H165.06L168.516 13.302C167.832 13.176 167.22 12.852 166.806 12.456C165.942 11.646 165.798 10.62 165.798 9.792C165.798 8.802 166.05 7.92 166.77 7.164C167.742 6.156 169.002 5.994 170.1 5.994H174.222ZM171.45 11.502V8.262H170.802C170.388 8.262 169.668 8.28 169.164 8.694C168.966 8.874 168.642 9.252 168.642 9.9C168.642 10.494 168.894 10.854 169.11 11.052C169.614 11.502 170.37 11.502 170.802 11.502H171.45Z" fill="#151515"/>
<path d="M24.917 43.8608H22.622V52.4258H21.092V43.8608H18.797V42.4208H24.917V43.8608ZM27.0089 51.6908V55.8608H25.5389V46.1108H27.0089V46.8008C27.5489 46.1558 28.2539 45.9458 28.8839 45.9458C30.5489 45.9458 31.9589 47.2208 31.9589 49.2308C31.9589 51.3608 30.3989 52.6208 28.8989 52.6208C28.5539 52.6208 27.6689 52.5008 27.0089 51.6908ZM28.7039 47.2658C27.7739 47.2658 26.9189 47.9258 26.9189 49.3058C26.9189 50.6258 27.7739 51.3008 28.7039 51.3008C29.7689 51.3008 30.4589 50.3858 30.4589 49.2908C30.4589 48.1658 29.7689 47.2658 28.7039 47.2658ZM33.028 55.8608L35.353 51.4358L32.653 46.1108H34.423L36.223 49.8008L38.053 46.1108H39.703L34.678 55.8608H33.028ZM45.4993 41.7758H46.9993C46.7893 42.8108 46.0393 43.6208 45.0193 43.9058L44.0293 44.1758C43.4443 44.3408 42.8443 44.5058 42.3943 45.1208C42.0493 45.5858 41.8843 46.3208 41.8693 46.8308H41.8843C42.4393 46.0808 43.4143 45.9458 44.0293 45.9458C44.9893 45.9458 45.7093 46.3058 46.2343 46.8458C46.7743 47.4008 47.1493 48.2258 47.1493 49.2458C47.1493 51.2258 45.6793 52.6208 43.7743 52.6208C42.6643 52.6208 41.8993 52.2008 41.4643 51.7808C40.4293 50.8058 40.3993 49.4108 40.3993 48.5408C40.3993 46.6508 40.6393 45.2558 41.3593 44.2058C41.8243 43.5158 42.3943 43.0658 43.2493 42.8558L44.2993 42.6008C45.2143 42.3758 45.4243 42.0308 45.4993 41.7758ZM43.7743 51.3008C44.9293 51.3008 45.6493 50.5058 45.6493 49.2908C45.6493 47.8508 44.7043 47.2658 43.7743 47.2658C42.8443 47.2658 41.8993 47.8508 41.8993 49.2908C41.8993 50.5058 42.6193 51.3008 43.7743 51.3008ZM48.6834 52.4258V46.1108H50.1534V48.4508H52.7634V46.1108H54.2334V52.4258H52.7634V49.8008H50.1534V52.4258H48.6834ZM60.7155 46.8458V46.1108H62.1855V52.4258H60.7155V51.7658C60.0705 52.5158 59.2755 52.6208 58.8255 52.6208C56.8755 52.6208 55.7655 51.0008 55.7655 49.2608C55.7655 47.2058 57.1755 45.9458 58.8405 45.9458C59.3055 45.9458 60.1155 46.0658 60.7155 46.8458ZM59.0205 47.2658C57.9555 47.2658 57.2655 48.1658 57.2655 49.2908C57.2655 50.3858 57.9555 51.3008 59.0205 51.3008C59.9505 51.3008 60.8055 50.6258 60.8055 49.3058C60.8055 47.9258 59.9505 47.2658 59.0205 47.2658ZM63.2396 52.4258L65.2196 49.9208C64.7996 49.8608 64.4546 49.6658 64.2146 49.4408C63.8096 49.0508 63.6896 48.5858 63.6896 48.1358C63.6896 47.7308 63.7796 47.1458 64.2746 46.6808C64.8146 46.1708 65.4596 46.1108 66.1046 46.1108H68.4596V52.4258H66.9896V50.1008H66.6896L64.9646 52.4258H63.2396ZM66.9896 48.9008V47.3708H66.1346C65.8496 47.3708 65.5796 47.3858 65.3696 47.5058C65.1746 47.6258 65.0096 47.8508 65.0096 48.1358C65.0096 48.4508 65.1596 48.6458 65.3096 48.7508C65.4896 48.8708 65.7596 48.9008 66.1196 48.9008H66.9896ZM73.8201 46.1108H79.3101V52.4258H77.8401V47.4608H75.2901V52.4258H73.8201V46.1108ZM82.6437 51.6908V55.8608H81.1737V46.1108H82.6437V46.8008C83.1837 46.1558 83.8887 45.9458 84.5187 45.9458C86.1837 45.9458 87.5937 47.2208 87.5937 49.2308C87.5937 51.3608 86.0337 52.6208 84.5337 52.6208C84.1887 52.6208 83.3037 52.5008 82.6437 51.6908ZM84.3387 47.2658C83.4087 47.2658 82.5537 47.9258 82.5537 49.3058C82.5537 50.6258 83.4087 51.3008 84.3387 51.3008C85.4037 51.3008 86.0937 50.3858 86.0937 49.2908C86.0937 48.1658 85.4037 47.2658 84.3387 47.2658ZM92.1728 45.9458C94.0778 45.9458 95.5478 47.3258 95.5478 49.2758C95.5478 51.2108 94.0778 52.6208 92.1728 52.6208C90.2678 52.6208 88.7978 51.2108 88.7978 49.2758C88.7978 47.3258 90.2678 45.9458 92.1728 45.9458ZM92.1728 51.3008C93.3278 51.3008 94.0478 50.5058 94.0478 49.2908C94.0478 47.8508 93.1028 47.2658 92.1728 47.2658C91.2428 47.2658 90.2978 47.8508 90.2978 49.2908C90.2978 50.5058 91.0178 51.3008 92.1728 51.3008ZM97.6219 46.1108H102.362V51.0758H103.322V54.2258H101.972V52.4258H97.5619V54.2258H96.2119V51.0758C96.7819 51.0458 97.1719 50.6408 97.3669 50.2508C97.5469 49.8608 97.6219 49.3508 97.6219 48.5858V46.1108ZM100.892 51.0758V47.4608H99.0319V49.1408C99.0319 50.2358 98.6869 50.7758 98.2969 51.0758H100.892ZM103.912 55.8608L106.237 51.4358L103.537 46.1108H105.307L107.107 49.8008L108.937 46.1108H110.587L105.562 55.8608H103.912ZM111.613 46.1108H113.083V48.3608L115.183 46.1108H117.133L114.373 48.8708L117.283 52.4258H115.423L113.323 49.8308L113.083 50.0708V52.4258H111.613V46.1108ZM118.249 52.4258V46.1108H119.719V51.0758H122.209V46.1108H123.679V51.0758H124.729V54.2258H123.379V52.4258H118.249ZM125.778 46.1108H127.248V49.6958L131.568 45.5408V52.4258H130.098V48.7508L125.778 52.9058V46.1108ZM132.615 52.4258L134.595 49.9208C134.175 49.8608 133.83 49.6658 133.59 49.4408C133.185 49.0508 133.065 48.5858 133.065 48.1358C133.065 47.7308 133.155 47.1458 133.65 46.6808C134.19 46.1708 134.835 46.1108 135.48 46.1108H137.835V52.4258H136.365V50.1008H136.065L134.34 52.4258H132.615ZM136.365 48.9008V47.3708H135.51C135.225 47.3708 134.955 47.3858 134.745 47.5058C134.55 47.6258 134.385 47.8508 134.385 48.1358C134.385 48.4508 134.535 48.6458 134.685 48.7508C134.865 48.8708 135.135 48.9008 135.495 48.9008H136.365ZM143.195 46.1108H148.685V52.4258H147.215V47.4608H144.665V52.4258H143.195V46.1108ZM153.594 45.9458C155.499 45.9458 156.969 47.3258 156.969 49.2758C156.969 51.2108 155.499 52.6208 153.594 52.6208C151.689 52.6208 150.219 51.2108 150.219 49.2758C150.219 47.3258 151.689 45.9458 153.594 45.9458ZM153.594 51.3008C154.749 51.3008 155.469 50.5058 155.469 49.2908C155.469 47.8508 154.524 47.2658 153.594 47.2658C152.664 47.2658 151.719 47.8508 151.719 49.2908C151.719 50.5058 152.439 51.3008 153.594 51.3008ZM163.393 46.3958V48.0458C162.718 47.3858 162.058 47.2658 161.608 47.2658C160.918 47.2658 160.483 47.5508 160.213 47.8208C159.943 48.0908 159.673 48.5708 159.673 49.2758C159.673 50.0108 159.958 50.5058 160.243 50.7908C160.573 51.1058 161.038 51.3008 161.578 51.3008C162.178 51.3008 162.883 51.0608 163.393 50.4908V52.1258C163.033 52.3508 162.448 52.6208 161.473 52.6208C160.423 52.6208 159.673 52.3208 159.073 51.6908C158.623 51.2258 158.173 50.4758 158.173 49.3208C158.173 48.1358 158.668 47.3408 159.133 46.8758C159.628 46.3808 160.423 45.9458 161.668 45.9458C162.148 45.9458 162.718 46.0208 163.393 46.3958ZM169.298 47.4608H167.453V52.4258H165.983V47.4608H164.138V46.1108H169.298V47.4608ZM174.812 46.8458V46.1108H176.282V52.4258H174.812V51.7658C174.167 52.5158 173.372 52.6208 172.922 52.6208C170.972 52.6208 169.862 51.0008 169.862 49.2608C169.862 47.2058 171.272 45.9458 172.937 45.9458C173.402 45.9458 174.212 46.0658 174.812 46.8458ZM173.117 47.2658C172.052 47.2658 171.362 48.1658 171.362 49.2908C171.362 50.3858 172.052 51.3008 173.117 51.3008C174.047 51.3008 174.902 50.6258 174.902 49.3058C174.902 47.9258 174.047 47.2658 173.117 47.2658ZM178.146 46.1108H180.621C180.996 46.1108 181.581 46.1258 182.061 46.4858C182.286 46.6658 182.646 47.0408 182.646 47.7008C182.646 48.2108 182.406 48.6758 181.896 48.9308C182.196 48.9908 182.511 49.1408 182.751 49.3508C183.036 49.6058 183.246 49.9958 183.246 50.5658C183.246 51.3308 182.871 51.7658 182.556 52.0058C182.031 52.3958 181.386 52.4258 181.101 52.4258H178.146V46.1108ZM179.616 48.5708H180.366C180.711 48.5708 180.906 48.4658 180.951 48.4358C181.191 48.2858 181.236 48.0758 181.236 47.9258C181.236 47.7008 181.131 47.5358 180.981 47.4308C180.786 47.2958 180.561 47.3108 180.336 47.3108H179.616V48.5708ZM179.616 51.2258H180.711C180.951 51.2258 181.251 51.1958 181.476 51.0458C181.611 50.9558 181.776 50.7758 181.776 50.4908C181.776 50.2058 181.641 50.0258 181.491 49.9358C181.266 49.7858 180.966 49.7708 180.756 49.7708H179.616V51.2258ZM189.972 46.1108V52.4258H188.502V47.4608H186.642V49.9658C186.642 50.5058 186.567 51.2108 186.042 51.7808C185.472 52.4108 184.647 52.5308 183.972 52.4258V51.0758C184.407 51.1808 184.812 51.0158 185.007 50.7908C185.202 50.5508 185.232 50.2058 185.232 49.9658V46.1108H189.972ZM191.018 52.4258L192.998 49.9208C192.578 49.8608 192.233 49.6658 191.993 49.4408C191.588 49.0508 191.468 48.5858 191.468 48.1358C191.468 47.7308 191.558 47.1458 192.053 46.6808C192.593 46.1708 193.238 46.1108 193.883 46.1108H196.238V52.4258H194.768V50.1008H194.468L192.743 52.4258H191.018ZM194.768 48.9008V47.3708H193.913C193.628 47.3708 193.358 47.3858 193.148 47.5058C192.953 47.6258 192.788 47.8508 192.788 48.1358C192.788 48.4508 192.938 48.6458 193.088 48.7508C193.268 48.8708 193.538 48.9008 193.898 48.9008H194.768ZM202.522 50.2958L203.752 50.9858C203.482 51.4658 203.092 51.8858 202.687 52.1408C202.177 52.4708 201.502 52.6208 200.827 52.6208C199.987 52.6208 199.297 52.4108 198.697 51.8108C198.097 51.2108 197.767 50.3408 197.767 49.3958C197.767 48.4208 198.112 47.4758 198.772 46.8008C199.297 46.2758 199.987 45.9458 200.887 45.9458C201.892 45.9458 202.537 46.3808 202.912 46.7708C203.722 47.6108 203.797 48.7808 203.797 49.4408V49.6208H199.267C199.297 50.0708 199.492 50.5808 199.807 50.8958C200.152 51.2408 200.572 51.3008 200.932 51.3008C201.337 51.3008 201.637 51.2108 201.937 50.9858C202.192 50.7908 202.387 50.5358 202.522 50.2958ZM199.372 48.4208H202.297C202.237 48.0758 202.072 47.7758 201.847 47.5658C201.652 47.3858 201.337 47.2058 200.857 47.2058C200.347 47.2058 200.017 47.4158 199.822 47.6108C199.612 47.8058 199.447 48.1058 199.372 48.4208ZM209.684 47.4608H207.839V52.4258H206.369V47.4608H204.524V46.1108H209.684V47.4608ZM215.468 46.3958V48.0458C214.793 47.3858 214.133 47.2658 213.683 47.2658C212.993 47.2658 212.558 47.5508 212.288 47.8208C212.018 48.0908 211.748 48.5708 211.748 49.2758C211.748 50.0108 212.033 50.5058 212.318 50.7908C212.648 51.1058 213.113 51.3008 213.653 51.3008C214.253 51.3008 214.958 51.0608 215.468 50.4908V52.1258C215.108 52.3508 214.523 52.6208 213.548 52.6208C212.498 52.6208 211.748 52.3208 211.148 51.6908C210.698 51.2258 210.248 50.4758 210.248 49.3208C210.248 48.1358 210.743 47.3408 211.208 46.8758C211.703 46.3808 212.498 45.9458 213.743 45.9458C214.223 45.9458 214.793 46.0208 215.468 46.3958ZM216.067 52.4258L218.047 49.9208C217.627 49.8608 217.282 49.6658 217.042 49.4408C216.637 49.0508 216.517 48.5858 216.517 48.1358C216.517 47.7308 216.607 47.1458 217.102 46.6808C217.642 46.1708 218.287 46.1108 218.932 46.1108H221.287V52.4258H219.817V50.1008H219.517L217.792 52.4258H216.067ZM219.817 48.9008V47.3708H218.962C218.677 47.3708 218.407 47.3858 218.197 47.5058C218.002 47.6258 217.837 47.8508 217.837 48.1358C217.837 48.4508 217.987 48.6458 218.137 48.7508C218.317 48.8708 218.587 48.9008 218.947 48.9008H219.817ZM226.647 46.1108H229.122C229.497 46.1108 230.082 46.1258 230.562 46.4858C230.787 46.6658 231.147 47.0408 231.147 47.7008C231.147 48.2108 230.907 48.6758 230.397 48.9308C230.697 48.9908 231.012 49.1408 231.252 49.3508C231.537 49.6058 231.747 49.9958 231.747 50.5658C231.747 51.3308 231.372 51.7658 231.057 52.0058C230.532 52.3958 229.887 52.4258 229.602 52.4258H226.647V46.1108ZM228.117 48.5708H228.867C229.212 48.5708 229.407 48.4658 229.452 48.4358C229.692 48.2858 229.737 48.0758 229.737 47.9258C229.737 47.7008 229.632 47.5358 229.482 47.4308C229.287 47.2958 229.062 47.3108 228.837 47.3108H228.117V48.5708ZM228.117 51.2258H229.212C229.452 51.2258 229.752 51.1958 229.977 51.0458C230.112 50.9558 230.277 50.7758 230.277 50.4908C230.277 50.2058 230.142 50.0258 229.992 49.9358C229.767 49.7858 229.467 49.7708 229.257 49.7708H228.117V51.2258ZM13.6195 68.1108V74.4258H12.1495V69.4608H10.2895V71.9658C10.2895 72.5058 10.2145 73.2108 9.68951 73.7808C9.11951 74.4108 8.29451 74.5308 7.61951 74.4258V73.0758C8.05451 73.1808 8.45951 73.0158 8.65451 72.7908C8.84951 72.5508 8.87951 72.2058 8.87951 71.9658V68.1108H13.6195ZM16.9454 70.4508H17.9504C18.0254 70.0158 18.2354 69.4308 18.7754 68.8758C19.2404 68.4108 19.9904 67.9458 21.1304 67.9458C22.9904 67.9458 24.4454 69.3258 24.4454 71.2758C24.4454 73.2108 23.0054 74.6208 21.1304 74.6208C19.8104 74.6208 19.0604 74.0058 18.7004 73.6158C18.3704 73.2558 17.9954 72.6558 17.9204 71.8008H16.9454V74.4258H15.4754V68.1108H16.9454V70.4508ZM21.1304 69.2658C20.2154 69.2658 19.3154 69.8508 19.3154 71.2908C19.3154 72.7308 20.2154 73.3008 21.1304 73.3008C22.0454 73.3008 22.9454 72.7308 22.9454 71.2908C22.9454 69.8508 22.0454 69.2658 21.1304 69.2658ZM30.7483 63.7758H32.2483C32.0383 64.8108 31.2883 65.6208 30.2683 65.9058L29.2783 66.1758C28.6933 66.3408 28.0933 66.5058 27.6433 67.1208C27.2983 67.5858 27.1333 68.3208 27.1183 68.8308H27.1333C27.6883 68.0808 28.6633 67.9458 29.2783 67.9458C30.2383 67.9458 30.9583 68.3058 31.4833 68.8458C32.0233 69.4008 32.3983 70.2258 32.3983 71.2458C32.3983 73.2258 30.9283 74.6208 29.0233 74.6208C27.9133 74.6208 27.1483 74.2008 26.7133 73.7808C25.6783 72.8058 25.6483 71.4108 25.6483 70.5408C25.6483 68.6508 25.8883 67.2558 26.6083 66.2058C27.0733 65.5158 27.6433 65.0658 28.4983 64.8558L29.5483 64.6008C30.4633 64.3758 30.6733 64.0308 30.7483 63.7758ZM29.0233 73.3008C30.1783 73.3008 30.8983 72.5058 30.8983 71.2908C30.8983 69.8508 29.9533 69.2658 29.0233 69.2658C28.0933 69.2658 27.1483 69.8508 27.1483 71.2908C27.1483 72.5058 27.8683 73.3008 29.0233 73.3008ZM33.4674 77.8608L35.7924 73.4358L33.0924 68.1108H34.8624L36.6624 71.8008L38.4924 68.1108H40.1424L35.1174 77.8608H33.4674ZM42.6388 70.4508H43.6438C43.7188 70.0158 43.9288 69.4308 44.4688 68.8758C44.9338 68.4108 45.6838 67.9458 46.8238 67.9458C48.6838 67.9458 50.1388 69.3258 50.1388 71.2758C50.1388 73.2108 48.6988 74.6208 46.8238 74.6208C45.5038 74.6208 44.7538 74.0058 44.3938 73.6158C44.0638 73.2558 43.6888 72.6558 43.6138 71.8008H42.6388V74.4258H41.1688V68.1108H42.6388V70.4508ZM46.8238 69.2658C45.9088 69.2658 45.0088 69.8508 45.0088 71.2908C45.0088 72.7308 45.9088 73.3008 46.8238 73.3008C47.7388 73.3008 48.6388 72.7308 48.6388 71.2908C48.6388 69.8508 47.7388 69.2658 46.8238 69.2658ZM59.5227 69.4608H57.6777V74.4258H56.2077V69.4608H54.3627V68.1108H59.5227V69.4608ZM63.4618 67.9458C65.3668 67.9458 66.8368 69.3258 66.8368 71.2758C66.8368 73.2108 65.3668 74.6208 63.4618 74.6208C61.5568 74.6208 60.0868 73.2108 60.0868 71.2758C60.0868 69.3258 61.5568 67.9458 63.4618 67.9458ZM63.4618 73.3008C64.6168 73.3008 65.3368 72.5058 65.3368 71.2908C65.3368 69.8508 64.3918 69.2658 63.4618 69.2658C62.5318 69.2658 61.5868 69.8508 61.5868 71.2908C61.5868 72.5058 62.3068 73.3008 63.4618 73.3008ZM71.7909 74.4258V71.9808C71.1909 72.1008 70.7109 72.1158 70.5009 72.1158C70.0059 72.1158 69.3459 72.0558 68.8359 71.6508C68.2509 71.1858 68.2209 70.5558 68.2209 70.1358V68.1108H69.6909V69.8358C69.6909 70.2108 69.7659 70.5258 70.0659 70.7058C70.2909 70.8408 70.6509 70.8558 70.8009 70.8558C71.1909 70.8558 71.5059 70.7958 71.7909 70.6908V68.1108H73.2609V74.4258H71.7909ZM75.1238 68.1108H76.5938V70.3608L78.6938 68.1108H80.6438L77.8838 70.8708L80.7938 74.4258H78.9338L76.8338 71.8308L76.5938 72.0708V74.4258H75.1238V68.1108ZM81.2946 77.8608L83.6196 73.4358L80.9196 68.1108H82.6896L84.4896 71.8008L86.3196 68.1108H87.9696L82.9446 77.8608H81.2946ZM94.2969 64.4208V68.4108L98.1669 64.4208H100.177L95.6619 68.9508L100.207 74.4258H98.1669L94.5969 69.9858L94.2969 70.2858V74.4258H92.7669V64.4208H94.2969ZM105.291 68.8458V68.1108H106.761V74.4258H105.291V73.7658C104.646 74.5158 103.851 74.6208 103.401 74.6208C101.451 74.6208 100.341 73.0008 100.341 71.2608C100.341 69.2058 101.751 67.9458 103.416 67.9458C103.881 67.9458 104.691 68.0658 105.291 68.8458ZM103.596 69.2658C102.531 69.2658 101.841 70.1658 101.841 71.2908C101.841 72.3858 102.531 73.3008 103.596 73.3008C104.526 73.3008 105.381 72.6258 105.381 71.3058C105.381 69.9258 104.526 69.2658 103.596 69.2658ZM109.48 69.7458L108.535 68.9208C108.745 68.6658 109.06 68.4108 109.495 68.2158C110.02 67.9908 110.575 67.9458 110.98 67.9458C111.52 67.9458 112.075 68.0208 112.585 68.3808C113.065 68.7258 113.245 69.1308 113.245 69.6708C113.245 69.9858 113.2 70.2558 112.975 70.5408C112.78 70.7958 112.555 70.9158 112.375 70.9908C112.72 71.0658 113.065 71.2308 113.29 71.4558C113.62 71.7858 113.695 72.1908 113.695 72.5058C113.695 73.0908 113.515 73.5408 113.155 73.9008C112.66 74.3958 111.955 74.6208 110.935 74.6208C110.485 74.6208 109.855 74.5758 109.285 74.2458C108.925 74.0358 108.535 73.6758 108.295 73.1208L109.465 72.5208C109.585 72.7758 109.78 73.0308 110.02 73.1808C110.275 73.3458 110.62 73.4208 110.965 73.4208C111.22 73.4208 111.7 73.3758 111.97 73.1058C112.105 72.9558 112.195 72.7608 112.195 72.5508C112.195 72.3408 112.12 72.1608 112 72.0408C111.745 71.7708 111.31 71.7708 110.95 71.7708H110.29V70.5708H110.845C111.055 70.5708 111.385 70.5258 111.565 70.4058C111.685 70.3158 111.835 70.1658 111.835 69.8508C111.835 69.5808 111.7 69.4008 111.565 69.3108C111.355 69.1608 111.055 69.1458 110.86 69.1458C110.56 69.1458 110.32 69.1908 110.035 69.3258C109.855 69.4158 109.66 69.5508 109.48 69.7458ZM119.851 68.8458V68.1108H121.321V74.4258H119.851V73.7658C119.206 74.5158 118.411 74.6208 117.961 74.6208C116.011 74.6208 114.901 73.0008 114.901 71.2608C114.901 69.2058 116.311 67.9458 117.976 67.9458C118.441 67.9458 119.251 68.0658 119.851 68.8458ZM118.156 69.2658C117.091 69.2658 116.401 70.1658 116.401 71.2908C116.401 72.3858 117.091 73.3008 118.156 73.3008C119.086 73.3008 119.941 72.6258 119.941 71.3058C119.941 69.9258 119.086 69.2658 118.156 69.2658ZM122.345 74.4258L125.135 71.0058L122.885 68.1108H124.625L126.02 69.9558L127.43 68.1108H129.23L126.905 71.0058L129.605 74.4258H127.835L126.02 72.0708L124.145 74.4258H122.345ZM135.517 68.3958V70.0458C134.842 69.3858 134.182 69.2658 133.732 69.2658C133.042 69.2658 132.607 69.5508 132.337 69.8208C132.067 70.0908 131.797 70.5708 131.797 71.2758C131.797 72.0108 132.082 72.5058 132.367 72.7908C132.697 73.1058 133.162 73.3008 133.702 73.3008C134.302 73.3008 135.007 73.0608 135.517 72.4908V74.1258C135.157 74.3508 134.572 74.6208 133.597 74.6208C132.547 74.6208 131.797 74.3208 131.197 73.6908C130.747 73.2258 130.297 72.4758 130.297 71.3208C130.297 70.1358 130.792 69.3408 131.257 68.8758C131.752 68.3808 132.547 67.9458 133.792 67.9458C134.272 67.9458 134.842 68.0208 135.517 68.3958ZM141.422 69.4608H139.577V74.4258H138.107V69.4608H136.262V68.1108H141.422V69.4608ZM146.936 68.8458V68.1108H148.406V74.4258H146.936V73.7658C146.291 74.5158 145.496 74.6208 145.046 74.6208C143.096 74.6208 141.986 73.0008 141.986 71.2608C141.986 69.2058 143.396 67.9458 145.061 67.9458C145.526 67.9458 146.336 68.0658 146.936 68.8458ZM145.241 69.2658C144.176 69.2658 143.486 70.1658 143.486 71.2908C143.486 72.3858 144.176 73.3008 145.241 73.3008C146.171 73.3008 147.026 72.6258 147.026 71.3058C147.026 69.9258 146.171 69.2658 145.241 69.2658ZM150.27 74.4258V68.1108H151.74V70.4508H154.35V68.1108H155.82V74.4258H154.35V71.8008H151.74V74.4258H150.27ZM162.302 68.8458V68.1108H163.772V74.4258H162.302V73.7658C161.657 74.5158 160.862 74.6208 160.412 74.6208C158.462 74.6208 157.352 73.0008 157.352 71.2608C157.352 69.2058 158.762 67.9458 160.427 67.9458C160.892 67.9458 161.702 68.0658 162.302 68.8458ZM160.607 69.2658C159.542 69.2658 158.852 70.1658 158.852 71.2908C158.852 72.3858 159.542 73.3008 160.607 73.3008C161.537 73.3008 162.392 72.6258 162.392 71.3058C162.392 69.9258 161.537 69.2658 160.607 69.2658ZM169.138 68.1108H170.608V71.6958L174.928 67.5408V74.4258H173.458V70.7508L169.138 74.9058V68.1108ZM185.175 68.3958V70.0458C184.5 69.3858 183.84 69.2658 183.39 69.2658C182.7 69.2658 182.265 69.5508 181.995 69.8208C181.725 70.0908 181.455 70.5708 181.455 71.2758C181.455 72.0108 181.74 72.5058 182.025 72.7908C182.355 73.1058 182.82 73.3008 183.36 73.3008C183.96 73.3008 184.665 73.0608 185.175 72.4908V74.1258C184.815 74.3508 184.23 74.6208 183.255 74.6208C182.205 74.6208 181.455 74.3208 180.855 73.6908C180.405 73.2258 179.955 72.4758 179.955 71.3208C179.955 70.1358 180.45 69.3408 180.915 68.8758C181.41 68.3808 182.205 67.9458 183.45 67.9458C183.93 67.9458 184.5 68.0208 185.175 68.3958ZM191.08 69.4608H189.235V74.4258H187.765V69.4608H185.92V68.1108H191.08V69.4608ZM193.606 73.6908V77.8608H192.136V68.1108H193.606V68.8008C194.146 68.1558 194.851 67.9458 195.481 67.9458C197.146 67.9458 198.556 69.2208 198.556 71.2308C198.556 73.3608 196.996 74.6208 195.496 74.6208C195.151 74.6208 194.266 74.5008 193.606 73.6908ZM195.301 69.2658C194.371 69.2658 193.516 69.9258 193.516 71.3058C193.516 72.6258 194.371 73.3008 195.301 73.3008C196.366 73.3008 197.056 72.3858 197.056 71.2908C197.056 70.1658 196.366 69.2658 195.301 69.2658ZM204.71 68.8458V68.1108H206.18V74.4258H204.71V73.7658C204.065 74.5158 203.27 74.6208 202.82 74.6208C200.87 74.6208 199.76 73.0008 199.76 71.2608C199.76 69.2058 201.17 67.9458 202.835 67.9458C203.3 67.9458 204.11 68.0658 204.71 68.8458ZM203.015 69.2658C201.95 69.2658 201.26 70.1658 201.26 71.2908C201.26 72.3858 201.95 73.3008 203.015 73.3008C203.945 73.3008 204.8 72.6258 204.8 71.3058C204.8 69.9258 203.945 69.2658 203.015 69.2658ZM208.044 74.4258V68.1108H209.514V70.4508H212.124V68.1108H213.594V74.4258H212.124V71.8008H209.514V74.4258H208.044ZM226.637 64.9608V66.7608C225.527 65.7558 224.492 65.6508 223.922 65.6508C221.747 65.6508 220.277 67.2558 220.277 69.4608C220.277 71.5758 221.807 73.2108 223.937 73.2108C225.137 73.2108 226.067 72.5958 226.637 72.0558V73.8708C225.632 74.4708 224.582 74.6208 223.892 74.6208C222.077 74.6208 220.937 73.7958 220.352 73.2408C219.182 72.1458 218.747 70.8708 218.747 69.4608C218.747 67.6158 219.512 66.3408 220.352 65.5458C221.387 64.5708 222.587 64.2408 223.967 64.2408C224.882 64.2408 225.767 64.4058 226.637 64.9608ZM230.059 64.4208V68.3808H234.349V64.4208H235.879V74.4258H234.349V69.8208H230.059V74.4258H228.529V64.4208H230.059ZM238.284 74.4258V64.4208H243.294V65.8608H239.814V74.4258H238.284ZM41.0223 96.4258V90.1108H42.4923V92.4508H45.1023V90.1108H46.5723V96.4258H45.1023V93.8008H42.4923V96.4258H41.0223ZM53.0544 90.8458V90.1108H54.5244V96.4258H53.0544V95.7658C52.4094 96.5158 51.6144 96.6208 51.1644 96.6208C49.2144 96.6208 48.1044 95.0008 48.1044 93.2608C48.1044 91.2058 49.5144 89.9458 51.1794 89.9458C51.6444 89.9458 52.4544 90.0658 53.0544 90.8458ZM51.3594 91.2658C50.2944 91.2658 49.6044 92.1658 49.6044 93.2908C49.6044 94.3858 50.2944 95.3008 51.3594 95.3008C52.2894 95.3008 53.1444 94.6258 53.1444 93.3058C53.1444 91.9258 52.2894 91.2658 51.3594 91.2658ZM59.4245 99.8608L61.7495 95.4358L59.0495 90.1108H60.8195L62.6195 93.8008L64.4495 90.1108H66.0995L61.0745 99.8608H59.4245ZM71.6935 90.3958V92.0458C71.0185 91.3858 70.3585 91.2658 69.9085 91.2658C69.2185 91.2658 68.7835 91.5508 68.5135 91.8208C68.2435 92.0908 67.9735 92.5708 67.9735 93.2758C67.9735 94.0108 68.2585 94.5058 68.5435 94.7908C68.8735 95.1058 69.3385 95.3008 69.8785 95.3008C70.4785 95.3008 71.1835 95.0608 71.6935 94.4908V96.1258C71.3335 96.3508 70.7485 96.6208 69.7735 96.6208C68.7235 96.6208 67.9735 96.3208 67.3735 95.6908C66.9235 95.2258 66.4735 94.4758 66.4735 93.3208C66.4735 92.1358 66.9685 91.3408 67.4335 90.8758C67.9285 90.3808 68.7235 89.9458 69.9685 89.9458C70.4485 89.9458 71.0185 90.0208 71.6935 90.3958ZM78.4388 90.1108V96.4258H76.9688V91.4608H75.1088V93.9658C75.1088 94.5058 75.0338 95.2108 74.5088 95.7808C73.9388 96.4108 73.1138 96.5308 72.4388 96.4258V95.0758C72.8738 95.1808 73.2788 95.0158 73.4738 94.7908C73.6688 94.5508 73.6988 94.2058 73.6988 93.9658V90.1108H78.4388ZM83.3397 89.9458C85.2447 89.9458 86.7147 91.3258 86.7147 93.2758C86.7147 95.2108 85.2447 96.6208 83.3397 96.6208C81.4347 96.6208 79.9647 95.2108 79.9647 93.2758C79.9647 91.3258 81.4347 89.9458 83.3397 89.9458ZM83.3397 95.3008C84.4947 95.3008 85.2147 94.5058 85.2147 93.2908C85.2147 91.8508 84.2697 91.2658 83.3397 91.2658C82.4097 91.2658 81.4647 91.8508 81.4647 93.2908C81.4647 94.5058 82.1847 95.3008 83.3397 95.3008ZM88.2488 90.1108H90.7238C91.0988 90.1108 91.6838 90.1258 92.1638 90.4858C92.3888 90.6658 92.7488 91.0408 92.7488 91.7008C92.7488 92.2108 92.5088 92.6758 91.9988 92.9308C92.2988 92.9908 92.6138 93.1408 92.8538 93.3508C93.1388 93.6058 93.3488 93.9958 93.3488 94.5658C93.3488 95.3308 92.9738 95.7658 92.6588 96.0058C92.1338 96.3958 91.4888 96.4258 91.2038 96.4258H88.2488V90.1108ZM89.7188 92.5708H90.4688C90.8138 92.5708 91.0088 92.4658 91.0538 92.4358C91.2938 92.2858 91.3388 92.0758 91.3388 91.9258C91.3388 91.7008 91.2338 91.5358 91.0838 91.4308C90.8888 91.2958 90.6638 91.3108 90.4388 91.3108H89.7188V92.5708ZM89.7188 95.2258H90.8138C91.0538 95.2258 91.3538 95.1958 91.5788 95.0458C91.7138 94.9558 91.8788 94.7758 91.8788 94.4908C91.8788 94.2058 91.7438 94.0258 91.5938 93.9358C91.3688 93.7858 91.0688 93.7708 90.8588 93.7708H89.7188V95.2258ZM94.8846 90.1108H96.3546V93.6958L100.675 89.5408V96.4258H99.2046V92.7508L94.8846 96.9058V90.1108ZM101.721 96.4258L103.701 93.9208C103.281 93.8608 102.936 93.6658 102.696 93.4408C102.291 93.0508 102.171 92.5858 102.171 92.1358C102.171 91.7308 102.261 91.1458 102.756 90.6808C103.296 90.1708 103.941 90.1108 104.586 90.1108H106.941V96.4258H105.471V94.1008H105.171L103.446 96.4258H101.721ZM105.471 92.9008V91.3708H104.616C104.331 91.3708 104.061 91.3858 103.851 91.5058C103.656 91.6258 103.491 91.8508 103.491 92.1358C103.491 92.4508 103.641 92.6458 103.791 92.7508C103.971 92.8708 104.241 92.9008 104.601 92.9008H105.471ZM107.961 96.4258L110.751 93.0058L108.501 90.1108H110.241L111.636 91.9558L113.046 90.1108H114.846L112.521 93.0058L115.221 96.4258H113.451L111.636 94.0708L109.761 96.4258H107.961ZM120.013 86.4208H122.113C123.508 86.4208 124.723 86.5708 125.833 87.3958C127.048 88.3108 127.753 89.7658 127.753 91.4308C127.753 93.0958 127.063 94.5358 125.743 95.4658C124.573 96.2908 123.478 96.4258 122.083 96.4258H120.013V86.4208ZM121.543 87.8608V94.9858H122.203C122.953 94.9858 123.988 94.9258 124.858 94.2808C125.548 93.7558 126.223 92.7958 126.223 91.4308C126.223 90.1108 125.593 89.0758 124.873 88.5508C124.003 87.9208 122.938 87.8608 122.203 87.8608H121.543ZM129.666 86.4208H131.766C133.161 86.4208 134.376 86.5708 135.486 87.3958C136.701 88.3108 137.406 89.7658 137.406 91.4308C137.406 93.0958 136.716 94.5358 135.396 95.4658C134.226 96.2908 133.131 96.4258 131.736 96.4258H129.666V86.4208ZM131.196 87.8608V94.9858H131.856C132.606 94.9858 133.641 94.9258 134.511 94.2808C135.201 93.7558 135.876 92.7958 135.876 91.4308C135.876 90.1108 135.246 89.0758 134.526 88.5508C133.656 87.9208 132.591 87.8608 131.856 87.8608H131.196ZM139.32 86.4208H141.525C142.14 86.4208 142.995 86.4808 143.715 86.9608C144.555 87.5158 144.96 88.4758 144.96 89.3908C144.96 89.9758 144.81 90.8758 143.985 91.5808C143.19 92.2558 142.275 92.3608 141.54 92.3608H140.85V96.4258H139.32V86.4208ZM140.85 87.8308V90.9508H141.54C142.86 90.9508 143.49 90.3058 143.49 89.3758C143.49 88.8208 143.265 87.8308 141.525 87.8308H140.85ZM150.298 90.1108H155.038V95.0758H155.998V98.2258H154.648V96.4258H150.238V98.2258H148.888V95.0758C149.458 95.0458 149.848 94.6408 150.043 94.2508C150.223 93.8608 150.298 93.3508 150.298 92.5858V90.1108ZM153.568 95.0758V91.4608H151.708V93.1408C151.708 94.2358 151.363 94.7758 150.973 95.0758H153.568ZM160.098 89.9458C162.003 89.9458 163.473 91.3258 163.473 93.2758C163.473 95.2108 162.003 96.6208 160.098 96.6208C158.193 96.6208 156.723 95.2108 156.723 93.2758C156.723 91.3258 158.193 89.9458 160.098 89.9458ZM160.098 95.3008C161.253 95.3008 161.973 94.5058 161.973 93.2908C161.973 91.8508 161.028 91.2658 160.098 91.2658C159.168 91.2658 158.223 91.8508 158.223 93.2908C158.223 94.5058 158.943 95.3008 160.098 95.3008ZM173.398 90.3958V92.0458C172.723 91.3858 172.063 91.2658 171.613 91.2658C170.923 91.2658 170.488 91.5508 170.218 91.8208C169.948 92.0908 169.678 92.5708 169.678 93.2758C169.678 94.0108 169.963 94.5058 170.248 94.7908C170.578 95.1058 171.043 95.3008 171.583 95.3008C172.183 95.3008 172.888 95.0608 173.398 94.4908V96.1258C173.038 96.3508 172.453 96.6208 171.478 96.6208C170.428 96.6208 169.678 96.3208 169.078 95.6908C168.628 95.2258 168.178 94.4758 168.178 93.3208C168.178 92.1358 168.673 91.3408 169.138 90.8758C169.633 90.3808 170.428 89.9458 171.673 89.9458C172.153 89.9458 172.723 90.0208 173.398 90.3958ZM174.806 90.1108H176.276V92.3608L178.376 90.1108H180.326L177.566 92.8708L180.476 96.4258H178.616L176.516 93.8308L176.276 94.0708V96.4258H174.806V90.1108ZM186.779 90.1108V96.4258H185.309V91.4608H183.449V93.9658C183.449 94.5058 183.374 95.2108 182.849 95.7808C182.279 96.4108 181.454 96.5308 180.779 96.4258V95.0758C181.214 95.1808 181.619 95.0158 181.814 94.7908C182.009 94.5508 182.039 94.2058 182.039 93.9658V90.1108H186.779ZM193.255 90.8458V90.1108H194.725V96.4258H193.255V95.7658C192.61 96.5158 191.815 96.6208 191.365 96.6208C189.415 96.6208 188.305 95.0008 188.305 93.2608C188.305 91.2058 189.715 89.9458 191.38 89.9458C191.845 89.9458 192.655 90.0658 193.255 90.8458ZM191.56 91.2658C190.495 91.2658 189.805 92.1658 189.805 93.2908C189.805 94.3858 190.495 95.3008 191.56 95.3008C192.49 95.3008 193.345 94.6258 193.345 93.3058C193.345 91.9258 192.49 91.2658 191.56 91.2658ZM197.129 90.1108H201.869V95.0758H202.829V98.2258H201.479V96.4258H197.069V98.2258H195.719V95.0758C196.289 95.0458 196.679 94.6408 196.874 94.2508C197.054 93.8608 197.129 93.3508 197.129 92.5858V90.1108ZM200.399 95.0758V91.4608H198.539V93.1408C198.539 94.2358 198.194 94.7758 197.804 95.0758H200.399ZM208.504 90.8458V90.1108H209.974V96.4258H208.504V95.7658C207.859 96.5158 207.064 96.6208 206.614 96.6208C204.664 96.6208 203.554 95.0008 203.554 93.2608C203.554 91.2058 204.964 89.9458 206.629 89.9458C207.094 89.9458 207.904 90.0658 208.504 90.8458ZM206.809 91.2658C205.744 91.2658 205.054 92.1658 205.054 93.2908C205.054 94.3858 205.744 95.3008 206.809 95.3008C207.739 95.3008 208.594 94.6258 208.594 93.3058C208.594 91.9258 207.739 91.2658 206.809 91.2658ZM9.88703 112.111H15.377V118.426H13.907V113.461H11.357V118.426H9.88703V112.111ZM20.2855 111.946C22.1905 111.946 23.6605 113.326 23.6605 115.276C23.6605 117.211 22.1905 118.621 20.2855 118.621C18.3805 118.621 16.9105 117.211 16.9105 115.276C16.9105 113.326 18.3805 111.946 20.2855 111.946ZM20.2855 117.301C21.4405 117.301 22.1605 116.506 22.1605 115.291C22.1605 113.851 21.2155 113.266 20.2855 113.266C19.3555 113.266 18.4105 113.851 18.4105 115.291C18.4105 116.506 19.1305 117.301 20.2855 117.301ZM29.5446 113.461H27.6996V118.426H26.2296V113.461H24.3846V112.111H29.5446V113.461ZM32.0699 117.691V121.861H30.5999V112.111H32.0699V112.801C32.6099 112.156 33.3149 111.946 33.9449 111.946C35.6099 111.946 37.0199 113.221 37.0199 115.231C37.0199 117.361 35.4599 118.621 33.9599 118.621C33.6149 118.621 32.7299 118.501 32.0699 117.691ZM33.7649 113.266C32.8349 113.266 31.9799 113.926 31.9799 115.306C31.9799 116.626 32.8349 117.301 33.7649 117.301C34.8299 117.301 35.5199 116.386 35.5199 115.291C35.5199 114.166 34.8299 113.266 33.7649 113.266ZM42.979 116.296L44.209 116.986C43.939 117.466 43.549 117.886 43.144 118.141C42.634 118.471 41.959 118.621 41.284 118.621C40.444 118.621 39.754 118.411 39.154 117.811C38.554 117.211 38.224 116.341 38.224 115.396C38.224 114.421 38.569 113.476 39.229 112.801C39.754 112.276 40.444 111.946 41.344 111.946C42.349 111.946 42.994 112.381 43.369 112.771C44.179 113.611 44.254 114.781 44.254 115.441V115.621H39.724C39.754 116.071 39.949 116.581 40.264 116.896C40.609 117.241 41.029 117.301 41.389 117.301C41.794 117.301 42.094 117.211 42.394 116.986C42.649 116.791 42.844 116.536 42.979 116.296ZM39.829 114.421H42.754C42.694 114.076 42.529 113.776 42.304 113.566C42.109 113.386 41.794 113.206 41.314 113.206C40.804 113.206 40.474 113.416 40.279 113.611C40.069 113.806 39.904 114.106 39.829 114.421ZM50.5604 107.776H52.0604C51.8504 108.811 51.1004 109.621 50.0804 109.906L49.0904 110.176C48.5054 110.341 47.9054 110.506 47.4554 111.121C47.1104 111.586 46.9454 112.321 46.9304 112.831H46.9454C47.5004 112.081 48.4754 111.946 49.0904 111.946C50.0504 111.946 50.7704 112.306 51.2954 112.846C51.8354 113.401 52.2104 114.226 52.2104 115.246C52.2104 117.226 50.7404 118.621 48.8354 118.621C47.7254 118.621 46.9604 118.201 46.5254 117.781C45.4904 116.806 45.4604 115.411 45.4604 114.541C45.4604 112.651 45.7004 111.256 46.4204 110.206C46.8854 109.516 47.4554 109.066 48.3104 108.856L49.3604 108.601C50.2754 108.376 50.4854 108.031 50.5604 107.776ZM48.8354 117.301C49.9904 117.301 50.7104 116.506 50.7104 115.291C50.7104 113.851 49.7654 113.266 48.8354 113.266C47.9054 113.266 46.9604 113.851 46.9604 115.291C46.9604 116.506 47.6804 117.301 48.8354 117.301ZM53.7445 112.111H55.2145V115.696L59.5345 111.541V118.426H58.0645V114.751L53.7445 118.906V112.111ZM65.7409 113.461H63.8959V118.426H62.4259V113.461H60.5809V112.111H65.7409V113.461ZM71.0601 116.296L72.2901 116.986C72.0201 117.466 71.6301 117.886 71.2251 118.141C70.7151 118.471 70.0401 118.621 69.3651 118.621C68.5251 118.621 67.8351 118.411 67.2351 117.811C66.6351 117.211 66.3051 116.341 66.3051 115.396C66.3051 114.421 66.6501 113.476 67.3101 112.801C67.8351 112.276 68.5251 111.946 69.4251 111.946C70.4301 111.946 71.0751 112.381 71.4501 112.771C72.2601 113.611 72.3351 114.781 72.3351 115.441V115.621H67.8051C67.8351 116.071 68.0301 116.581 68.3451 116.896C68.6901 117.241 69.1101 117.301 69.4701 117.301C69.8751 117.301 70.1751 117.211 70.4751 116.986C70.7301 116.791 70.9251 116.536 71.0601 116.296ZM67.9101 114.421H70.8351C70.7751 114.076 70.6101 113.776 70.3851 113.566C70.1901 113.386 69.8751 113.206 69.3951 113.206C68.8851 113.206 68.5551 113.416 68.3601 113.611C68.1501 113.806 67.9851 114.106 67.9101 114.421ZM79.0614 112.111V118.426H77.5914V113.461H75.7314V115.966C75.7314 116.506 75.6564 117.211 75.1314 117.781C74.5614 118.411 73.7364 118.531 73.0614 118.426V117.076C73.4964 117.181 73.9014 117.016 74.0964 116.791C74.2914 116.551 74.3214 116.206 74.3214 115.966V112.111H79.0614ZM80.1073 118.426L82.0873 115.921C81.6673 115.861 81.3223 115.666 81.0823 115.441C80.6773 115.051 80.5573 114.586 80.5573 114.136C80.5573 113.731 80.6473 113.146 81.1423 112.681C81.6823 112.171 82.3273 112.111 82.9723 112.111H85.3273V118.426H83.8573V116.101H83.5573L81.8323 118.426H80.1073ZM83.8573 114.901V113.371H83.0023C82.7173 113.371 82.4473 113.386 82.2373 113.506C82.0423 113.626 81.8773 113.851 81.8773 114.136C81.8773 114.451 82.0273 114.646 82.1773 114.751C82.3573 114.871 82.6273 114.901 82.9873 114.901H83.8573ZM93.7028 112.111H95.1728V114.451L97.0778 112.111H98.8478L96.4028 114.991L99.0878 118.426H97.2578L95.3528 115.891L95.1728 116.101V118.426H93.7028V116.101L93.5228 115.891L91.6178 118.426H89.7878L92.4728 114.991L90.0278 112.111H91.7978L93.7028 114.451V112.111ZM104.473 116.296L105.703 116.986C105.433 117.466 105.043 117.886 104.638 118.141C104.128 118.471 103.453 118.621 102.778 118.621C101.938 118.621 101.248 118.411 100.648 117.811C100.048 117.211 99.7182 116.341 99.7182 115.396C99.7182 114.421 100.063 113.476 100.723 112.801C101.248 112.276 101.938 111.946 102.838 111.946C103.843 111.946 104.488 112.381 104.863 112.771C105.673 113.611 105.748 114.781 105.748 115.441V115.621H101.218C101.248 116.071 101.443 116.581 101.758 116.896C102.103 117.241 102.523 117.301 102.883 117.301C103.288 117.301 103.588 117.211 103.888 116.986C104.143 116.791 104.338 116.536 104.473 116.296ZM101.323 114.421H104.248C104.188 114.076 104.023 113.776 103.798 113.566C103.603 113.386 103.288 113.206 102.808 113.206C102.298 113.206 101.968 113.416 101.773 113.611C101.563 113.806 101.398 114.106 101.323 114.421ZM112.474 112.111V118.426H111.004V113.461H109.144V115.966C109.144 116.506 109.069 117.211 108.544 117.781C107.974 118.411 107.149 118.531 106.474 118.426V117.076C106.909 117.181 107.314 117.016 107.509 116.791C107.704 116.551 107.734 116.206 107.734 115.966V112.111H112.474ZM118.755 116.296L119.985 116.986C119.715 117.466 119.325 117.886 118.92 118.141C118.41 118.471 117.735 118.621 117.06 118.621C116.22 118.621 115.53 118.411 114.93 117.811C114.33 117.211 114 116.341 114 115.396C114 114.421 114.345 113.476 115.005 112.801C115.53 112.276 116.22 111.946 117.12 111.946C118.125 111.946 118.77 112.381 119.145 112.771C119.955 113.611 120.03 114.781 120.03 115.441V115.621H115.5C115.53 116.071 115.725 116.581 116.04 116.896C116.385 117.241 116.805 117.301 117.165 117.301C117.57 117.301 117.87 117.211 118.17 116.986C118.425 116.791 118.62 116.536 118.755 116.296ZM115.605 114.421H118.53C118.47 114.076 118.305 113.776 118.08 113.566C117.885 113.386 117.57 113.206 117.09 113.206C116.58 113.206 116.25 113.416 116.055 113.611C115.845 113.806 115.68 114.106 115.605 114.421ZM122.422 113.746L121.477 112.921C121.687 112.666 122.002 112.411 122.437 112.216C122.962 111.991 123.517 111.946 123.922 111.946C124.462 111.946 125.017 112.021 125.527 112.381C126.007 112.726 126.187 113.131 126.187 113.671C126.187 113.986 126.142 114.256 125.917 114.541C125.722 114.796 125.497 114.916 125.317 114.991C125.662 115.066 126.007 115.231 126.232 115.456C126.562 115.786 126.637 116.191 126.637 116.506C126.637 117.091 126.457 117.541 126.097 117.901C125.602 118.396 124.897 118.621 123.877 118.621C123.427 118.621 122.797 118.576 122.227 118.246C121.867 118.036 121.477 117.676 121.237 117.121L122.407 116.521C122.527 116.776 122.722 117.031 122.962 117.181C123.217 117.346 123.562 117.421 123.907 117.421C124.162 117.421 124.642 117.376 124.912 117.106C125.047 116.956 125.137 116.761 125.137 116.551C125.137 116.341 125.062 116.161 124.942 116.041C124.687 115.771 124.252 115.771 123.892 115.771H123.232V114.571H123.787C123.997 114.571 124.327 114.526 124.507 114.406C124.627 114.316 124.777 114.166 124.777 113.851C124.777 113.581 124.642 113.401 124.507 113.311C124.297 113.161 123.997 113.146 123.802 113.146C123.502 113.146 123.262 113.191 122.977 113.326C122.797 113.416 122.602 113.551 122.422 113.746ZM128.173 118.426V112.111H129.643V114.451H132.253V112.111H133.723V118.426H132.253V115.801H129.643V118.426H128.173ZM138.63 111.946C140.535 111.946 142.005 113.326 142.005 115.276C142.005 117.211 140.535 118.621 138.63 118.621C136.725 118.621 135.255 117.211 135.255 115.276C135.255 113.326 136.725 111.946 138.63 111.946ZM138.63 117.301C139.785 117.301 140.505 116.506 140.505 115.291C140.505 113.851 139.56 113.266 138.63 113.266C137.7 113.266 136.755 113.851 136.755 115.291C136.755 116.506 137.475 117.301 138.63 117.301ZM144.079 112.111H148.819V117.076H149.779V120.226H148.429V118.426H144.019V120.226H142.669V117.076C143.239 117.046 143.629 116.641 143.824 116.251C144.004 115.861 144.079 115.351 144.079 114.586V112.111ZM147.349 117.076V113.461H145.489V115.141C145.489 116.236 145.144 116.776 144.754 117.076H147.349ZM153.879 111.946C155.784 111.946 157.254 113.326 157.254 115.276C157.254 117.211 155.784 118.621 153.879 118.621C151.974 118.621 150.504 117.211 150.504 115.276C150.504 113.326 151.974 111.946 153.879 111.946ZM153.879 117.301C155.034 117.301 155.754 116.506 155.754 115.291C155.754 113.851 154.809 113.266 153.879 113.266C152.949 113.266 152.004 113.851 152.004 115.291C152.004 116.506 152.724 117.301 153.879 117.301ZM160.258 117.691V121.861H158.788V112.111H160.258V112.801C160.798 112.156 161.503 111.946 162.133 111.946C163.798 111.946 165.208 113.221 165.208 115.231C165.208 117.361 163.648 118.621 162.148 118.621C161.803 118.621 160.918 118.501 160.258 117.691ZM161.953 113.266C161.023 113.266 160.168 113.926 160.168 115.306C160.168 116.626 161.023 117.301 161.953 117.301C163.018 117.301 163.708 116.386 163.708 115.291C163.708 114.166 163.018 113.266 161.953 113.266ZM169.788 111.946C171.693 111.946 173.163 113.326 173.163 115.276C173.163 117.211 171.693 118.621 169.788 118.621C167.883 118.621 166.413 117.211 166.413 115.276C166.413 113.326 167.883 111.946 169.788 111.946ZM169.788 117.301C170.943 117.301 171.663 116.506 171.663 115.291C171.663 113.851 170.718 113.266 169.788 113.266C168.858 113.266 167.913 113.851 167.913 115.291C167.913 116.506 168.633 117.301 169.788 117.301ZM177.712 112.111H179.182V114.451L181.087 112.111H182.857L180.412 114.991L183.097 118.426H181.267L179.362 115.891L179.182 116.101V118.426H177.712V116.101L177.532 115.891L175.627 118.426H173.797L176.482 114.991L174.037 112.111H175.807L177.712 114.451V112.111ZM184.057 118.426V112.111H185.527V114.451H188.137V112.111H189.607V118.426H188.137V115.801H185.527V118.426H184.057ZM191.469 118.426V112.111H192.939V114.346H193.779C194.394 114.346 195.114 114.361 195.684 114.991C196.104 115.456 196.179 115.996 196.179 116.371C196.179 117.106 195.894 117.601 195.609 117.886C195.054 118.426 194.394 118.426 193.764 118.426H191.469ZM192.939 117.166H193.614C193.899 117.166 194.184 117.151 194.379 117.031C194.484 116.956 194.709 116.776 194.709 116.386C194.709 116.071 194.574 115.876 194.394 115.756C194.154 115.606 193.854 115.606 193.629 115.606H192.939V117.166ZM196.839 118.426V112.111H198.309V118.426H196.839ZM199.45 118.426L200.98 111.541L203.59 116.356L206.2 111.541L207.73 118.426H206.23L205.6 115.261L203.59 118.906L201.58 115.261L200.95 118.426H199.45ZM217.562 112.111V118.426H216.092V113.461H214.232V115.966C214.232 116.506 214.157 117.211 213.632 117.781C213.062 118.411 212.237 118.531 211.562 118.426V117.076C211.997 117.181 212.402 117.016 212.597 116.791C212.792 116.551 212.822 116.206 212.822 115.966V112.111H217.562ZM219.418 112.111H220.888V115.696L225.208 111.541V118.426H223.738V114.751L219.418 118.906V112.111ZM231.835 107.776H233.335C233.125 108.811 232.375 109.621 231.355 109.906L230.365 110.176C229.78 110.341 229.18 110.506 228.73 111.121C228.385 111.586 228.22 112.321 228.205 112.831H228.22C228.775 112.081 229.75 111.946 230.365 111.946C231.325 111.946 232.045 112.306 232.57 112.846C233.11 113.401 233.485 114.226 233.485 115.246C233.485 117.226 232.015 118.621 230.11 118.621C229 118.621 228.235 118.201 227.8 117.781C226.765 116.806 226.735 115.411 226.735 114.541C226.735 112.651 226.975 111.256 227.695 110.206C228.16 109.516 228.73 109.066 229.585 108.856L230.635 108.601C231.55 108.376 231.76 108.031 231.835 107.776ZM230.11 117.301C231.265 117.301 231.985 116.506 231.985 115.291C231.985 113.851 231.04 113.266 230.11 113.266C229.18 113.266 228.235 113.851 228.235 115.291C228.235 116.506 228.955 117.301 230.11 117.301ZM238.064 111.946C239.969 111.946 241.439 113.326 241.439 115.276C241.439 117.211 239.969 118.621 238.064 118.621C236.159 118.621 234.689 117.211 234.689 115.276C234.689 113.326 236.159 111.946 238.064 111.946ZM238.064 117.301C239.219 117.301 239.939 116.506 239.939 115.291C239.939 113.851 238.994 113.266 238.064 113.266C237.134 113.266 236.189 113.851 236.189 115.291C236.189 116.506 236.909 117.301 238.064 117.301ZM38.4499 134.846V134.111H39.9199V140.426H38.4499V139.766C37.8049 140.516 37.0099 140.621 36.5599 140.621C34.6099 140.621 33.4999 139.001 33.4999 137.261C33.4999 135.206 34.9099 133.946 36.5749 133.946C37.0399 133.946 37.8499 134.066 38.4499 134.846ZM36.7549 135.266C35.6899 135.266 34.9999 136.166 34.9999 137.291C34.9999 138.386 35.6899 139.301 36.7549 139.301C37.6849 139.301 38.5399 138.626 38.5399 137.306C38.5399 135.926 37.6849 135.266 36.7549 135.266ZM41.784 134.111H44.259C44.634 134.111 45.219 134.126 45.699 134.486C45.924 134.666 46.284 135.041 46.284 135.701C46.284 136.211 46.044 136.676 45.534 136.931C45.834 136.991 46.149 137.141 46.389 137.351C46.674 137.606 46.884 137.996 46.884 138.566C46.884 139.331 46.509 139.766 46.194 140.006C45.669 140.396 45.024 140.426 44.739 140.426H41.784V134.111ZM43.254 136.571H44.004C44.349 136.571 44.544 136.466 44.589 136.436C44.829 136.286 44.874 136.076 44.874 135.926C44.874 135.701 44.769 135.536 44.619 135.431C44.424 135.296 44.199 135.311 43.974 135.311H43.254V136.571ZM43.254 139.226H44.349C44.589 139.226 44.889 139.196 45.114 139.046C45.249 138.956 45.414 138.776 45.414 138.491C45.414 138.206 45.279 138.026 45.129 137.936C44.904 137.786 44.604 137.771 44.394 137.771H43.254V139.226ZM52.7697 135.461H50.9247V140.426H49.4547V135.461H47.6097V134.111H52.7697V135.461ZM56.7089 133.946C58.6139 133.946 60.0839 135.326 60.0839 137.276C60.0839 139.211 58.6139 140.621 56.7089 140.621C54.8039 140.621 53.3339 139.211 53.3339 137.276C53.3339 135.326 54.8039 133.946 56.7089 133.946ZM56.7089 139.301C57.8639 139.301 58.5839 138.506 58.5839 137.291C58.5839 135.851 57.6389 135.266 56.7089 135.266C55.7789 135.266 54.8339 135.851 54.8339 137.291C54.8339 138.506 55.5539 139.301 56.7089 139.301ZM60.898 140.426L62.428 133.541L65.038 138.356L67.648 133.541L69.178 140.426H67.678L67.048 137.261L65.038 140.906L63.028 137.261L62.398 140.426H60.898ZM73.3642 133.946C75.2692 133.946 76.7392 135.326 76.7392 137.276C76.7392 139.211 75.2692 140.621 73.3642 140.621C71.4592 140.621 69.9892 139.211 69.9892 137.276C69.9892 135.326 71.4592 133.946 73.3642 133.946ZM73.3642 139.301C74.5192 139.301 75.2392 138.506 75.2392 137.291C75.2392 135.851 74.2942 135.266 73.3642 135.266C72.4342 135.266 71.4892 135.851 71.4892 137.291C71.4892 138.506 72.2092 139.301 73.3642 139.301ZM83.0433 129.776H84.5433C84.3333 130.811 83.5833 131.621 82.5633 131.906L81.5733 132.176C80.9883 132.341 80.3883 132.506 79.9383 133.121C79.5933 133.586 79.4283 134.321 79.4133 134.831H79.4283C79.9833 134.081 80.9583 133.946 81.5733 133.946C82.5333 133.946 83.2533 134.306 83.7783 134.846C84.3183 135.401 84.6933 136.226 84.6933 137.246C84.6933 139.226 83.2233 140.621 81.3183 140.621C80.2083 140.621 79.4433 140.201 79.0083 139.781C77.9733 138.806 77.9433 137.411 77.9433 136.541C77.9433 134.651 78.1833 133.256 78.9033 132.206C79.3683 131.516 79.9383 131.066 80.7933 130.856L81.8433 130.601C82.7583 130.376 82.9683 130.031 83.0433 129.776ZM81.3183 139.301C82.4733 139.301 83.1933 138.506 83.1933 137.291C83.1933 135.851 82.2483 135.266 81.3183 135.266C80.3883 135.266 79.4433 135.851 79.4433 137.291C79.4433 138.506 80.1633 139.301 81.3183 139.301ZM86.2274 134.111H87.6974V137.696L92.0174 133.541V140.426H90.5474V136.751L86.2274 140.906V134.111ZM99.0638 134.111V140.426H97.5938V135.461H95.7338V137.966C95.7338 138.506 95.6588 139.211 95.1338 139.781C94.5638 140.411 93.7388 140.531 93.0638 140.426V139.076C93.4988 139.181 93.9038 139.016 94.0988 138.791C94.2938 138.551 94.3238 138.206 94.3238 137.966V134.111H99.0638ZM100.92 140.426V134.111H102.39V136.346H103.23C103.845 136.346 104.565 136.361 105.135 136.991C105.555 137.456 105.63 137.996 105.63 138.371C105.63 139.106 105.345 139.601 105.06 139.886C104.505 140.426 103.845 140.426 103.215 140.426H100.92ZM102.39 139.166H103.065C103.35 139.166 103.635 139.151 103.83 139.031C103.935 138.956 104.16 138.776 104.16 138.386C104.16 138.071 104.025 137.876 103.845 137.756C103.605 137.606 103.305 137.606 103.08 137.606H102.39V139.166ZM106.926 140.426V134.111H108.396V136.451H111.006V134.111H112.476V140.426H111.006V137.801H108.396V140.426H106.926ZM114.338 140.426V134.111H115.808V136.346H116.648C117.263 136.346 117.983 136.361 118.553 136.991C118.973 137.456 119.048 137.996 119.048 138.371C119.048 139.106 118.763 139.601 118.478 139.886C117.923 140.426 117.263 140.426 116.633 140.426H114.338ZM115.808 139.166H116.483C116.768 139.166 117.053 139.151 117.248 139.031C117.353 138.956 117.578 138.776 117.578 138.386C117.578 138.071 117.443 137.876 117.263 137.756C117.023 137.606 116.723 137.606 116.498 137.606H115.808V139.166ZM119.708 140.426V134.111H121.178V140.426H119.708ZM122.319 140.426L123.849 133.541L126.459 138.356L129.069 133.541L130.599 140.426H129.099L128.469 137.261L126.459 140.906L124.449 137.261L123.819 140.426H122.319ZM139.591 135.461H137.746V140.426H136.276V135.461H134.431V134.111H139.591V135.461ZM142.116 139.691V143.861H140.646V134.111H142.116V134.801C142.656 134.156 143.361 133.946 143.991 133.946C145.656 133.946 147.066 135.221 147.066 137.231C147.066 139.361 145.506 140.621 144.006 140.621C143.661 140.621 142.776 140.501 142.116 139.691ZM143.811 135.266C142.881 135.266 142.026 135.926 142.026 137.306C142.026 138.626 142.881 139.301 143.811 139.301C144.876 139.301 145.566 138.386 145.566 137.291C145.566 136.166 144.876 135.266 143.811 135.266ZM153.22 134.846V134.111H154.69V140.426H153.22V139.766C152.575 140.516 151.78 140.621 151.33 140.621C149.38 140.621 148.27 139.001 148.27 137.261C148.27 135.206 149.68 133.946 151.345 133.946C151.81 133.946 152.62 134.066 153.22 134.846ZM151.525 135.266C150.46 135.266 149.77 136.166 149.77 137.291C149.77 138.386 150.46 139.301 151.525 139.301C152.455 139.301 153.31 138.626 153.31 137.306C153.31 135.926 152.455 135.266 151.525 135.266ZM156.555 140.426V134.111H158.025V136.451H160.635V134.111H162.105V140.426H160.635V137.801H158.025V140.426H156.555ZM168.857 134.396V136.046C168.182 135.386 167.522 135.266 167.072 135.266C166.382 135.266 165.947 135.551 165.677 135.821C165.407 136.091 165.137 136.571 165.137 137.276C165.137 138.011 165.422 138.506 165.707 138.791C166.037 139.106 166.502 139.301 167.042 139.301C167.642 139.301 168.347 139.061 168.857 138.491V140.126C168.497 140.351 167.912 140.621 166.937 140.621C165.887 140.621 165.137 140.321 164.537 139.691C164.087 139.226 163.637 138.476 163.637 137.321C163.637 136.136 164.132 135.341 164.597 134.876C165.092 134.381 165.887 133.946 167.132 133.946C167.612 133.946 168.182 134.021 168.857 134.396ZM170.265 134.111H175.755V140.426H174.285V135.461H171.735V140.426H170.265V134.111ZM180.664 133.946C182.569 133.946 184.039 135.326 184.039 137.276C184.039 139.211 182.569 140.621 180.664 140.621C178.759 140.621 177.289 139.211 177.289 137.276C177.289 135.326 178.759 133.946 180.664 133.946ZM180.664 139.301C181.819 139.301 182.539 138.506 182.539 137.291C182.539 135.851 181.594 135.266 180.664 135.266C179.734 135.266 178.789 135.851 178.789 137.291C178.789 138.506 179.509 139.301 180.664 139.301ZM187.043 139.691V143.861H185.573V134.111H187.043V134.801C187.583 134.156 188.288 133.946 188.918 133.946C190.583 133.946 191.993 135.221 191.993 137.231C191.993 139.361 190.433 140.621 188.933 140.621C188.588 140.621 187.703 140.501 187.043 139.691ZM188.738 135.266C187.808 135.266 186.953 135.926 186.953 137.306C186.953 138.626 187.808 139.301 188.738 139.301C189.803 139.301 190.493 138.386 190.493 137.291C190.493 136.166 189.803 135.266 188.738 135.266ZM197.877 135.461H196.032V140.426H194.562V135.461H192.717V134.111H197.877V135.461ZM201.816 133.946C203.721 133.946 205.191 135.326 205.191 137.276C205.191 139.211 203.721 140.621 201.816 140.621C199.911 140.621 198.441 139.211 198.441 137.276C198.441 135.326 199.911 133.946 201.816 133.946ZM201.816 139.301C202.971 139.301 203.691 138.506 203.691 137.291C203.691 135.851 202.746 135.266 201.816 135.266C200.886 135.266 199.941 135.851 199.941 137.291C199.941 138.506 200.661 139.301 201.816 139.301ZM206.005 140.426L207.535 133.541L210.145 138.356L212.755 133.541L214.285 140.426H212.785L212.155 137.261L210.145 140.906L208.135 137.261L207.505 140.426H206.005ZM215.397 139.706C215.397 139.211 215.802 138.806 216.297 138.806C216.792 138.806 217.197 139.211 217.197 139.706C217.197 140.201 216.792 140.606 216.297 140.606C215.802 140.606 215.397 140.201 215.397 139.706Z" fill="#666666"/>
</svg>
