<svg width="251" height="103" viewBox="0 0 251 103" fill="none" xmlns="http://www.w3.org/2000/svg">
<path d="M65.3179 5.994H75.4159V18H72.6439V8.334H68.0899V18H65.3179V5.994ZM84.0385 5.724C85.9105 5.724 87.4765 6.3 88.6825 7.47C89.8165 8.568 90.5545 10.152 90.5545 12.006C90.5545 13.608 89.9785 15.246 88.6825 16.506C87.5665 17.586 86.0545 18.27 84.0385 18.27C81.7885 18.27 80.2585 17.37 79.3585 16.506C78.2065 15.426 77.4865 13.806 77.4865 12.042C77.4865 10.314 78.2605 8.568 79.3405 7.488C80.1505 6.678 81.6445 5.724 84.0385 5.724ZM84.0205 8.28C82.9765 8.28 82.0405 8.658 81.3925 9.306C80.8705 9.81 80.3305 10.692 80.3305 12.024C80.3305 13.122 80.6905 14.004 81.4285 14.724C82.2025 15.462 83.0665 15.714 84.0025 15.714C85.2265 15.714 86.0905 15.264 86.6665 14.688C87.1345 14.238 87.7105 13.392 87.7105 12.006C87.7105 10.764 87.2065 9.846 86.6665 9.306C86.0725 8.73 85.1185 8.28 84.0205 8.28ZM99.0872 8.334H96.4772V18H93.7052V8.334H91.0952V5.994H99.0872V8.334ZM100.544 5.994H104.774C105.818 5.994 106.97 6.138 107.924 6.984C108.95 7.884 109.094 9.072 109.094 9.9C109.094 11.412 108.518 12.258 108.068 12.726C107.114 13.698 105.854 13.788 105.008 13.788H103.316V18H100.544V5.994ZM103.316 8.262V11.52H104.306C104.684 11.52 105.35 11.502 105.8 11.07C106.052 10.818 106.25 10.404 106.25 9.882C106.25 9.378 106.07 8.964 105.8 8.712C105.386 8.316 104.792 8.262 104.252 8.262H103.316ZM117.631 5.994V8.334H113.617V10.656H117.433V12.996H113.617V15.66H117.631V18H110.845V5.994H117.631ZM119.88 18V5.994H127.296V8.334H122.652V10.728H124.2C125.244 10.728 126.576 10.854 127.584 11.844C128.016 12.276 128.556 13.068 128.556 14.346C128.556 15.372 128.214 16.29 127.584 16.92C126.702 17.802 125.424 18 123.966 18H119.88ZM122.652 15.768H123.75C124.128 15.768 124.812 15.732 125.244 15.39C125.388 15.264 125.712 14.94 125.712 14.328C125.712 13.752 125.424 13.392 125.172 13.212C124.74 12.906 124.038 12.888 123.75 12.888H122.652V15.768ZM130.621 5.994H133.393V13.842L138.955 5.85H141.403V18H138.631V10.134L133.069 18.144H130.621V5.994ZM150.855 8.334H148.245V18H145.473V8.334H142.863V5.994H150.855V8.334ZM159.098 5.994V8.334H155.084V10.656H158.9V12.996H155.084V15.66H159.098V18H152.312V5.994H159.098ZM162.535 5.994H171.265V18H168.493V8.334H165.235V12.456C165.235 14.508 164.983 16.218 164.029 17.19C163.525 17.694 162.697 18.144 161.329 18.144C160.915 18.144 160.555 18.09 160.213 18V15.516C160.411 15.588 160.645 15.624 160.897 15.624C161.365 15.624 161.761 15.462 161.995 15.228C162.499 14.724 162.535 13.662 162.535 12.708V5.994ZM173.898 5.994H176.67V13.842L182.232 5.85H184.68V18H181.908V10.134L176.346 18.144H173.898V5.994Z" fill="#151515"/>
<path d="M12.7425 42.4198H20.0925V52.4248H18.5625V43.8598H14.2725V52.4248H12.7425V42.4198ZM25.2733 45.9448C27.1783 45.9448 28.6483 47.3248 28.6483 49.2748C28.6483 51.2098 27.1783 52.6198 25.2733 52.6198C23.3683 52.6198 21.8983 51.2098 21.8983 49.2748C21.8983 47.3248 23.3683 45.9448 25.2733 45.9448ZM25.2733 51.2998C26.4283 51.2998 27.1483 50.5048 27.1483 49.2898C27.1483 47.8498 26.2033 47.2648 25.2733 47.2648C24.3433 47.2648 23.3983 47.8498 23.3983 49.2898C23.3983 50.5048 24.1183 51.2998 25.2733 51.2998ZM34.5324 47.4598H32.6874V52.4248H31.2174V47.4598H29.3724V46.1098H34.5324V47.4598ZM37.0577 51.6898V55.8598H35.5877V46.1098H37.0577V46.7998C37.5977 46.1548 38.3027 45.9448 38.9327 45.9448C40.5977 45.9448 42.0077 47.2198 42.0077 49.2298C42.0077 51.3598 40.4477 52.6198 38.9477 52.6198C38.6027 52.6198 37.7177 52.4998 37.0577 51.6898ZM38.7527 47.2648C37.8227 47.2648 36.9677 47.9248 36.9677 49.3048C36.9677 50.6248 37.8227 51.2998 38.7527 51.2998C39.8177 51.2998 40.5077 50.3848 40.5077 49.2898C40.5077 48.1648 39.8177 47.2648 38.7527 47.2648ZM47.9668 50.2948L49.1968 50.9848C48.9268 51.4648 48.5368 51.8848 48.1318 52.1398C47.6218 52.4698 46.9468 52.6198 46.2718 52.6198C45.4318 52.6198 44.7418 52.4098 44.1418 51.8098C43.5418 51.2098 43.2118 50.3398 43.2118 49.3948C43.2118 48.4198 43.5568 47.4748 44.2168 46.7998C44.7418 46.2748 45.4318 45.9448 46.3318 45.9448C47.3368 45.9448 47.9818 46.3798 48.3568 46.7698C49.1668 47.6098 49.2418 48.7798 49.2418 49.4398V49.6198H44.7118C44.7418 50.0698 44.9368 50.5798 45.2518 50.8948C45.5968 51.2398 46.0168 51.2998 46.3768 51.2998C46.7818 51.2998 47.0818 51.2098 47.3818 50.9848C47.6368 50.7898 47.8318 50.5348 47.9668 50.2948ZM44.8168 48.4198H47.7418C47.6818 48.0748 47.5168 47.7748 47.2918 47.5648C47.0968 47.3848 46.7818 47.2048 46.3018 47.2048C45.7918 47.2048 45.4618 47.4148 45.2668 47.6098C45.0568 47.8048 44.8918 48.1048 44.8168 48.4198ZM55.5481 41.7748H57.0481C56.8381 42.8098 56.0881 43.6198 55.0681 43.9048L54.0781 44.1748C53.4931 44.3398 52.8931 44.5048 52.4431 45.1198C52.0981 45.5848 51.9331 46.3198 51.9181 46.8298H51.9331C52.4881 46.0798 53.4631 45.9448 54.0781 45.9448C55.0381 45.9448 55.7581 46.3048 56.2831 46.8448C56.8231 47.3998 57.1981 48.2248 57.1981 49.2448C57.1981 51.2248 55.7281 52.6198 53.8231 52.6198C52.7131 52.6198 51.9481 52.1998 51.5131 51.7798C50.4781 50.8048 50.4481 49.4098 50.4481 48.5398C50.4481 46.6498 50.6881 45.2548 51.4081 44.2048C51.8731 43.5148 52.4431 43.0648 53.2981 42.8548L54.3481 42.5998C55.2631 42.3748 55.4731 42.0298 55.5481 41.7748ZM53.8231 51.2998C54.9781 51.2998 55.6981 50.5048 55.6981 49.2898C55.6981 47.8498 54.7531 47.2648 53.8231 47.2648C52.8931 47.2648 51.9481 47.8498 51.9481 49.2898C51.9481 50.5048 52.6681 51.2998 53.8231 51.2998ZM58.7322 46.1098H60.2022V49.6948L64.5222 45.5398V52.4248H63.0522V48.7498L58.7322 52.9048V46.1098ZM70.7287 47.4598H68.8837V52.4248H67.4137V47.4598H65.5687V46.1098H70.7287V47.4598ZM76.0479 50.2948L77.2779 50.9848C77.0079 51.4648 76.6179 51.8848 76.2129 52.1398C75.7029 52.4698 75.0279 52.6198 74.3529 52.6198C73.5129 52.6198 72.8229 52.4098 72.2229 51.8098C71.6229 51.2098 71.2929 50.3398 71.2929 49.3948C71.2929 48.4198 71.6379 47.4748 72.2979 46.7998C72.8229 46.2748 73.5129 45.9448 74.4129 45.9448C75.4179 45.9448 76.0629 46.3798 76.4379 46.7698C77.2479 47.6098 77.3229 48.7798 77.3229 49.4398V49.6198H72.7929C72.8229 50.0698 73.0179 50.5798 73.3329 50.8948C73.6779 51.2398 74.0979 51.2998 74.4579 51.2998C74.8629 51.2998 75.1629 51.2098 75.4629 50.9848C75.7179 50.7898 75.9129 50.5348 76.0479 50.2948ZM72.8979 48.4198H75.8229C75.7629 48.0748 75.5979 47.7748 75.3729 47.5648C75.1779 47.3848 74.8629 47.2048 74.3829 47.2048C73.8729 47.2048 73.5429 47.4148 73.3479 47.6098C73.1379 47.8048 72.9729 48.1048 72.8979 48.4198ZM84.0492 46.1098V52.4248H82.5792V47.4598H80.7192V49.9648C80.7192 50.5048 80.6442 51.2098 80.1192 51.7798C79.5492 52.4098 78.7242 52.5298 78.0492 52.4248V51.0748C78.4842 51.1798 78.8892 51.0148 79.0842 50.7898C79.2792 50.5498 79.3092 50.2048 79.3092 49.9648V46.1098H84.0492ZM85.0951 52.4248L87.0751 49.9198C86.6551 49.8598 86.3101 49.6648 86.0701 49.4398C85.6651 49.0498 85.5451 48.5848 85.5451 48.1348C85.5451 47.7298 85.6351 47.1448 86.1301 46.6798C86.6701 46.1698 87.3151 46.1098 87.9601 46.1098H90.3151V52.4248H88.8451V50.0998H88.5451L86.8201 52.4248H85.0951ZM88.8451 48.8998V47.3698H87.9901C87.7051 47.3698 87.4351 47.3848 87.2251 47.5048C87.0301 47.6248 86.8651 47.8498 86.8651 48.1348C86.8651 48.4498 87.0151 48.6448 87.1651 48.7498C87.3451 48.8698 87.6151 48.8998 87.9751 48.8998H88.8451ZM91.4546 52.4248L92.9846 45.5398L95.5946 50.3548L98.2046 45.5398L99.7346 52.4248H98.2346L97.6046 49.2598L95.5946 52.9048L93.5846 49.2598L92.9546 52.4248H91.4546ZM100.876 46.1098H102.346V49.6948L106.666 45.5398V52.4248H105.196V48.7498L100.876 52.9048V46.1098ZM120.573 52.6198L119.823 51.8698C119.043 52.3648 118.173 52.6198 117.018 52.6198C114.018 52.6198 111.813 50.3998 111.813 47.4298C111.813 44.4898 114.018 42.2398 117.018 42.2398C120.003 42.2398 122.223 44.4898 122.223 47.4298C122.223 49.2598 121.413 50.3998 120.843 51.0148L122.463 52.6198H120.573ZM118.278 48.4648L119.808 49.9798C120.288 49.4248 120.693 48.6898 120.693 47.4298C120.693 45.2098 119.163 43.6498 117.018 43.6498C114.873 43.6498 113.343 45.2098 113.343 47.4298C113.343 49.6498 114.873 51.2098 117.018 51.2098C117.768 51.2098 118.308 51.0448 118.743 50.8198L116.373 48.4648H118.278ZM128.494 46.8448V46.1098H129.964V52.4248H128.494V51.7648C127.849 52.5148 127.054 52.6198 126.604 52.6198C124.654 52.6198 123.544 50.9998 123.544 49.2598C123.544 47.2048 124.954 45.9448 126.619 45.9448C127.084 45.9448 127.894 46.0648 128.494 46.8448ZM126.799 47.2648C125.734 47.2648 125.044 48.1648 125.044 49.2898C125.044 50.3848 125.734 51.2998 126.799 51.2998C127.729 51.2998 128.584 50.6248 128.584 49.3048C128.584 47.9248 127.729 47.2648 126.799 47.2648ZM137.685 46.1098L133.62 51.0748H137.37V52.4248H130.725L134.82 47.4598H131.595V46.1098H137.685ZM144.532 42.4198V43.8598H140.542V46.3948H144.412V47.8348H140.542V50.9848H144.532V52.4248H139.012V42.4198H144.532ZM145.402 52.4248L148.192 49.0048L145.942 46.1098H147.682L149.077 47.9548L150.487 46.1098H152.287L149.962 49.0048L152.662 52.4248H150.892L149.077 50.0698L147.202 52.4248H145.402ZM155.153 51.6898V55.8598H153.683V46.1098H155.153V46.7998C155.693 46.1548 156.398 45.9448 157.028 45.9448C158.693 45.9448 160.103 47.2198 160.103 49.2298C160.103 51.3598 158.543 52.6198 157.043 52.6198C156.698 52.6198 155.813 52.4998 155.153 51.6898ZM156.848 47.2648C155.918 47.2648 155.063 47.9248 155.063 49.3048C155.063 50.6248 155.918 51.2998 156.848 51.2998C157.913 51.2998 158.603 50.3848 158.603 49.2898C158.603 48.1648 157.913 47.2648 156.848 47.2648ZM164.683 45.9448C166.588 45.9448 168.058 47.3248 168.058 49.2748C168.058 51.2098 166.588 52.6198 164.683 52.6198C162.778 52.6198 161.308 51.2098 161.308 49.2748C161.308 47.3248 162.778 45.9448 164.683 45.9448ZM164.683 51.2998C165.838 51.2998 166.558 50.5048 166.558 49.2898C166.558 47.8498 165.613 47.2648 164.683 47.2648C163.753 47.2648 162.808 47.8498 162.808 49.2898C162.808 50.5048 163.528 51.2998 164.683 51.2998ZM177.272 42.9598V44.7598C176.162 43.7548 175.127 43.6498 174.557 43.6498C172.382 43.6498 170.912 45.2548 170.912 47.4598C170.912 49.5748 172.442 51.2098 174.572 51.2098C175.772 51.2098 176.702 50.5948 177.272 50.0548V51.8698C176.267 52.4698 175.217 52.6198 174.527 52.6198C172.712 52.6198 171.572 51.7948 170.987 51.2398C169.817 50.1448 169.382 48.8698 169.382 47.4598C169.382 45.6148 170.147 44.3398 170.987 43.5448C172.022 42.5698 173.222 42.2398 174.602 42.2398C175.517 42.2398 176.402 42.4048 177.272 42.9598ZM183.318 50.2948L184.548 50.9848C184.278 51.4648 183.888 51.8848 183.483 52.1398C182.973 52.4698 182.298 52.6198 181.623 52.6198C180.783 52.6198 180.093 52.4098 179.493 51.8098C178.893 51.2098 178.563 50.3398 178.563 49.3948C178.563 48.4198 178.908 47.4748 179.568 46.7998C180.093 46.2748 180.783 45.9448 181.683 45.9448C182.688 45.9448 183.333 46.3798 183.708 46.7698C184.518 47.6098 184.593 48.7798 184.593 49.4398V49.6198H180.063C180.093 50.0698 180.288 50.5798 180.603 50.8948C180.948 51.2398 181.368 51.2998 181.728 51.2998C182.133 51.2998 182.433 51.2098 182.733 50.9848C182.988 50.7898 183.183 50.5348 183.318 50.2948ZM180.168 48.4198H183.093C183.033 48.0748 182.868 47.7748 182.643 47.5648C182.448 47.3848 182.133 47.2048 181.653 47.2048C181.143 47.2048 180.813 47.4148 180.618 47.6098C180.408 47.8048 180.243 48.1048 180.168 48.4198ZM186.115 52.4248V46.1098H187.585V46.6948C188.215 45.9898 188.935 45.9448 189.295 45.9448C190.465 45.9448 190.96 46.5298 191.155 46.7998C191.395 47.1448 191.545 47.5798 191.545 48.5548V52.4248H190.075V48.9148C190.075 47.3098 189.475 47.2648 188.92 47.2648C188.26 47.2648 187.585 47.3548 187.585 49.3948V52.4248H186.115ZM196.05 47.4598H194.925V52.4248H193.455V47.4598H192.84V46.1098H193.455V43.7998H194.925V46.1098H196.05V47.4598ZM197.043 52.4248V46.1098H198.513V46.6798C198.678 46.4848 198.918 46.2748 199.128 46.1548C199.413 45.9898 199.698 45.9448 200.028 45.9448C200.388 45.9448 200.778 46.0048 201.183 46.2448L200.583 47.5798C200.253 47.3698 199.983 47.3548 199.833 47.3548C199.518 47.3548 199.203 47.3998 198.918 47.6998C198.513 48.1348 198.513 48.7348 198.513 49.1548V52.4248H197.043ZM205.98 50.2948L207.21 50.9848C206.94 51.4648 206.55 51.8848 206.145 52.1398C205.635 52.4698 204.96 52.6198 204.285 52.6198C203.445 52.6198 202.755 52.4098 202.155 51.8098C201.555 51.2098 201.225 50.3398 201.225 49.3948C201.225 48.4198 201.57 47.4748 202.23 46.7998C202.755 46.2748 203.445 45.9448 204.345 45.9448C205.35 45.9448 205.995 46.3798 206.37 46.7698C207.18 47.6098 207.255 48.7798 207.255 49.4398V49.6198H202.725C202.755 50.0698 202.95 50.5798 203.265 50.8948C203.61 51.2398 204.03 51.2998 204.39 51.2998C204.795 51.2998 205.095 51.2098 205.395 50.9848C205.65 50.7898 205.845 50.5348 205.98 50.2948ZM202.83 48.4198H205.755C205.695 48.0748 205.53 47.7748 205.305 47.5648C205.11 47.3848 204.795 47.2048 204.315 47.2048C203.805 47.2048 203.475 47.4148 203.28 47.6098C203.07 47.8048 202.905 48.1048 202.83 48.4198ZM209.387 49.9948V48.4648H212.987V49.9948H209.387ZM214.935 42.4198H217.14C217.755 42.4198 218.61 42.4798 219.33 42.9598C220.17 43.5148 220.575 44.4748 220.575 45.3898C220.575 45.9748 220.425 46.8748 219.6 47.5798C218.805 48.2548 217.89 48.3598 217.155 48.3598H216.465V52.4248H214.935V42.4198ZM216.465 43.8298V46.9498H217.155C218.475 46.9498 219.105 46.3048 219.105 45.3748C219.105 44.8198 218.88 43.8298 217.14 43.8298H216.465ZM221.872 46.1098H223.342V52.4248H221.872V46.1098ZM221.662 43.4998C221.662 42.9598 222.067 42.5548 222.607 42.5548C223.147 42.5548 223.552 42.9598 223.552 43.4998C223.552 44.0398 223.147 44.4448 222.607 44.4448C222.067 44.4448 221.662 44.0398 221.662 43.4998ZM226.667 51.6898V55.8598H225.197V46.1098H226.667V46.7998C227.207 46.1548 227.912 45.9448 228.542 45.9448C230.207 45.9448 231.617 47.2198 231.617 49.2298C231.617 51.3598 230.057 52.6198 228.557 52.6198C228.212 52.6198 227.327 52.4998 226.667 51.6898ZM228.362 47.2648C227.432 47.2648 226.577 47.9248 226.577 49.3048C226.577 50.6248 227.432 51.2998 228.362 51.2998C229.427 51.2998 230.117 50.3848 230.117 49.2898C230.117 48.1648 229.427 47.2648 228.362 47.2648ZM237.576 50.2948L238.806 50.9848C238.536 51.4648 238.146 51.8848 237.741 52.1398C237.231 52.4698 236.556 52.6198 235.881 52.6198C235.041 52.6198 234.351 52.4098 233.751 51.8098C233.151 51.2098 232.821 50.3398 232.821 49.3948C232.821 48.4198 233.166 47.4748 233.826 46.7998C234.351 46.2748 235.041 45.9448 235.941 45.9448C236.946 45.9448 237.591 46.3798 237.966 46.7698C238.776 47.6098 238.851 48.7798 238.851 49.4398V49.6198H234.321C234.351 50.0698 234.546 50.5798 234.861 50.8948C235.206 51.2398 235.626 51.2998 235.986 51.2998C236.391 51.2998 236.691 51.2098 236.991 50.9848C237.246 50.7898 237.441 50.5348 237.576 50.2948ZM234.426 48.4198H237.351C237.291 48.0748 237.126 47.7748 236.901 47.5648C236.706 47.3848 236.391 47.2048 235.911 47.2048C235.401 47.2048 235.071 47.4148 234.876 47.6098C234.666 47.8048 234.501 48.1048 234.426 48.4198ZM14.6038 68.1098H17.0788C17.4538 68.1098 18.0388 68.1248 18.5188 68.4848C18.7438 68.6648 19.1038 69.0398 19.1038 69.6998C19.1038 70.2098 18.8638 70.6748 18.3538 70.9298C18.6538 70.9898 18.9688 71.1398 19.2088 71.3498C19.4938 71.6048 19.7038 71.9948 19.7038 72.5648C19.7038 73.3298 19.3288 73.7648 19.0138 74.0048C18.4888 74.3948 17.8438 74.4248 17.5588 74.4248H14.6038V68.1098ZM16.0738 70.5698H16.8238C17.1688 70.5698 17.3638 70.4648 17.4088 70.4348C17.6488 70.2848 17.6938 70.0748 17.6938 69.9248C17.6938 69.6998 17.5888 69.5348 17.4388 69.4298C17.2438 69.2948 17.0188 69.3098 16.7938 69.3098H16.0738V70.5698ZM16.0738 73.2248H17.1688C17.4088 73.2248 17.7088 73.1948 17.9338 73.0448C18.0688 72.9548 18.2338 72.7748 18.2338 72.4898C18.2338 72.2048 18.0988 72.0248 17.9488 71.9348C17.7238 71.7848 17.4238 71.7698 17.2138 71.7698H16.0738V73.2248ZM21.2396 74.4248V68.1098H22.7096V70.3448H23.5496C24.1646 70.3448 24.8846 70.3598 25.4546 70.9898C25.8746 71.4548 25.9496 71.9948 25.9496 72.3698C25.9496 73.1048 25.6646 73.5998 25.3796 73.8848C24.8246 74.4248 24.1646 74.4248 23.5346 74.4248H21.2396ZM22.7096 73.1648H23.3846C23.6696 73.1648 23.9546 73.1498 24.1496 73.0298C24.2546 72.9548 24.4796 72.7748 24.4796 72.3848C24.4796 72.0698 24.3446 71.8748 24.1646 71.7548C23.9246 71.6048 23.6246 71.6048 23.3996 71.6048H22.7096V73.1648ZM26.6096 74.4248V68.1098H28.0796V74.4248H26.6096ZM34.8307 68.3948V70.0448C34.1557 69.3848 33.4957 69.2648 33.0457 69.2648C32.3557 69.2648 31.9207 69.5498 31.6507 69.8198C31.3807 70.0898 31.1107 70.5698 31.1107 71.2748C31.1107 72.0098 31.3957 72.5048 31.6807 72.7898C32.0107 73.1048 32.4757 73.2998 33.0157 73.2998C33.6157 73.2998 34.3207 73.0598 34.8307 72.4898V74.1248C34.4707 74.3498 33.8857 74.6198 32.9107 74.6198C31.8607 74.6198 31.1107 74.3198 30.5107 73.6898C30.0607 73.2248 29.6107 72.4748 29.6107 71.3198C29.6107 70.1348 30.1057 69.3398 30.5707 68.8748C31.0657 68.3798 31.8607 67.9448 33.1057 67.9448C33.5857 67.9448 34.1557 68.0198 34.8307 68.3948ZM40.7361 69.4598H38.8911V74.4248H37.4211V69.4598H35.5761V68.1098H40.7361V69.4598ZM41.6193 77.8598L43.9443 73.4348L41.2443 68.1098H43.0143L44.8143 71.7998L46.6443 68.1098H48.2943L43.2693 77.8598H41.6193ZM49.3206 68.1098H54.8106V74.4248H53.3406V69.4598H50.7906V74.4248H49.3206V68.1098ZM61.2941 68.8448V68.1098H62.7641V74.4248H61.2941V73.7648C60.6491 74.5148 59.8541 74.6198 59.4041 74.6198C57.4541 74.6198 56.3441 72.9998 56.3441 71.2598C56.3441 69.2048 57.7541 67.9448 59.4191 67.9448C59.8841 67.9448 60.6941 68.0648 61.2941 68.8448ZM59.5991 69.2648C58.5341 69.2648 57.8441 70.1648 57.8441 71.2898C57.8441 72.3848 58.5341 73.2998 59.5991 73.2998C60.5291 73.2998 61.3841 72.6248 61.3841 71.3048C61.3841 69.9248 60.5291 69.2648 59.5991 69.2648ZM66.0982 70.4498H67.1032C67.1782 70.0148 67.3882 69.4298 67.9282 68.8748C68.3932 68.4098 69.1432 67.9448 70.2832 67.9448C72.1432 67.9448 73.5982 69.3248 73.5982 71.2748C73.5982 73.2098 72.1582 74.6198 70.2832 74.6198C68.9632 74.6198 68.2132 74.0048 67.8532 73.6148C67.5232 73.2548 67.1482 72.6548 67.0732 71.7998H66.0982V74.4248H64.6282V68.1098H66.0982V70.4498ZM70.2832 69.2648C69.3682 69.2648 68.4682 69.8498 68.4682 71.2898C68.4682 72.7298 69.3682 73.2998 70.2832 73.2998C71.1982 73.2998 72.0982 72.7298 72.0982 71.2898C72.0982 69.8498 71.1982 69.2648 70.2832 69.2648ZM79.4812 69.4598H77.6362V74.4248H76.1662V69.4598H74.3212V68.1098H79.4812V69.4598ZM84.0374 68.1098H85.5074V70.3598L87.6074 68.1098H89.5574L86.7974 70.8698L89.7074 74.4248H87.8474L85.7474 71.8298L85.5074 72.0698V74.4248H84.0374V68.1098ZM92.1432 73.6898V77.8598H90.6732V68.1098H92.1432V68.7998C92.6832 68.1548 93.3882 67.9448 94.0182 67.9448C95.6832 67.9448 97.0932 69.2198 97.0932 71.2298C97.0932 73.3598 95.5332 74.6198 94.0332 74.6198C93.6882 74.6198 92.8032 74.4998 92.1432 73.6898ZM93.8382 69.2648C92.9082 69.2648 92.0532 69.9248 92.0532 71.3048C92.0532 72.6248 92.9082 73.2998 93.8382 73.2998C94.9032 73.2998 95.5932 72.3848 95.5932 71.2898C95.5932 70.1648 94.9032 69.2648 93.8382 69.2648ZM98.1623 77.8598L100.487 73.4348L97.7873 68.1098H99.5573L101.357 71.7998L103.187 68.1098H104.837L99.8123 77.8598H98.1623ZM105.864 68.1098H111.354V74.4248H109.884V69.4598H107.334V74.4248H105.864V68.1098ZM113.217 74.4248V68.1098H114.687V70.4498H117.297V68.1098H118.767V74.4248H117.297V71.7998H114.687V74.4248H113.217ZM120.629 74.4248V68.1098H122.099V70.3448H122.939C123.554 70.3448 124.274 70.3598 124.844 70.9898C125.264 71.4548 125.339 71.9948 125.339 72.3698C125.339 73.1048 125.054 73.5998 124.769 73.8848C124.214 74.4248 123.554 74.4248 122.924 74.4248H120.629ZM122.099 73.1648H122.774C123.059 73.1648 123.344 73.1498 123.539 73.0298C123.644 72.9548 123.869 72.7748 123.869 72.3848C123.869 72.0698 123.734 71.8748 123.554 71.7548C123.314 71.6048 123.014 71.6048 122.789 71.6048H122.099V73.1648ZM125.999 74.4248V68.1098H127.469V74.4248H125.999ZM133.755 72.2948L134.985 72.9848C134.715 73.4648 134.325 73.8848 133.92 74.1398C133.41 74.4698 132.735 74.6198 132.06 74.6198C131.22 74.6198 130.53 74.4098 129.93 73.8098C129.33 73.2098 129 72.3398 129 71.3948C129 70.4198 129.345 69.4748 130.005 68.7998C130.53 68.2748 131.22 67.9448 132.12 67.9448C133.125 67.9448 133.77 68.3798 134.145 68.7698C134.955 69.6098 135.03 70.7798 135.03 71.4398V71.6198H130.5C130.53 72.0698 130.725 72.5798 131.04 72.8948C131.385 73.2398 131.805 73.2998 132.165 73.2998C132.57 73.2998 132.87 73.2098 133.17 72.9848C133.425 72.7898 133.62 72.5348 133.755 72.2948ZM130.605 70.4198H133.53C133.47 70.0748 133.305 69.7748 133.08 69.5648C132.885 69.3848 132.57 69.2048 132.09 69.2048C131.58 69.2048 131.25 69.4148 131.055 69.6098C130.845 69.8048 130.68 70.1048 130.605 70.4198ZM140.068 74.4248V68.1098H141.538V70.4498H144.148V68.1098H145.618V74.4248H144.148V71.7998H141.538V74.4248H140.068ZM151.905 72.2948L153.135 72.9848C152.865 73.4648 152.475 73.8848 152.07 74.1398C151.56 74.4698 150.885 74.6198 150.21 74.6198C149.37 74.6198 148.68 74.4098 148.08 73.8098C147.48 73.2098 147.15 72.3398 147.15 71.3948C147.15 70.4198 147.495 69.4748 148.155 68.7998C148.68 68.2748 149.37 67.9448 150.27 67.9448C151.275 67.9448 151.92 68.3798 152.295 68.7698C153.105 69.6098 153.18 70.7798 153.18 71.4398V71.6198H148.65C148.68 72.0698 148.875 72.5798 149.19 72.8948C149.535 73.2398 149.955 73.2998 150.315 73.2998C150.72 73.2998 151.02 73.2098 151.32 72.9848C151.575 72.7898 151.77 72.5348 151.905 72.2948ZM148.755 70.4198H151.68C151.62 70.0748 151.455 69.7748 151.23 69.5648C151.035 69.3848 150.72 69.2048 150.24 69.2048C149.73 69.2048 149.4 69.4148 149.205 69.6098C148.995 69.8048 148.83 70.1048 148.755 70.4198ZM158.076 77.8598V74.5298C156.891 74.5448 156.036 74.1848 155.481 73.7048C154.911 73.2248 154.416 72.4748 154.416 71.2598C154.416 69.9398 155.046 69.1898 155.466 68.8298C156.231 68.1698 157.251 68.0048 158.076 68.0048V64.4198H159.546V68.0048C160.371 68.0048 161.391 68.1698 162.156 68.8298C162.576 69.1898 163.206 69.9398 163.206 71.2598C163.206 72.4748 162.711 73.2248 162.141 73.7048C161.586 74.1848 160.731 74.5448 159.546 74.5298V77.8598H158.076ZM158.076 73.2098V69.3248C157.686 69.3248 157.086 69.3998 156.696 69.6548C156.471 69.7898 155.916 70.2398 155.916 71.2598C155.916 72.1898 156.366 72.6398 156.651 72.8348C157.011 73.0898 157.566 73.2248 158.076 73.2098ZM159.546 69.3248V73.2098C160.056 73.2248 160.611 73.0898 160.971 72.8348C161.256 72.6398 161.706 72.1898 161.706 71.2598C161.706 70.2398 161.151 69.7898 160.926 69.6548C160.536 69.3998 159.936 69.3248 159.546 69.3248ZM169.115 69.4598H167.27V74.4248H165.8V69.4598H163.955V68.1098H169.115V69.4598ZM174.434 72.2948L175.664 72.9848C175.394 73.4648 175.004 73.8848 174.599 74.1398C174.089 74.4698 173.414 74.6198 172.739 74.6198C171.899 74.6198 171.209 74.4098 170.609 73.8098C170.009 73.2098 169.679 72.3398 169.679 71.3948C169.679 70.4198 170.024 69.4748 170.684 68.7998C171.209 68.2748 171.899 67.9448 172.799 67.9448C173.804 67.9448 174.449 68.3798 174.824 68.7698C175.634 69.6098 175.709 70.7798 175.709 71.4398V71.6198H171.179C171.209 72.0698 171.404 72.5798 171.719 72.8948C172.064 73.2398 172.484 73.2998 172.844 73.2998C173.249 73.2998 173.549 73.2098 173.849 72.9848C174.104 72.7898 174.299 72.5348 174.434 72.2948ZM171.284 70.4198H174.209C174.149 70.0748 173.984 69.7748 173.759 69.5648C173.564 69.3848 173.249 69.2048 172.769 69.2048C172.259 69.2048 171.929 69.4148 171.734 69.6098C171.524 69.8048 171.359 70.1048 171.284 70.4198ZM177.245 74.4248V68.1098H181.115V69.4598H178.715V74.4248H177.245ZM186.641 68.8448V68.1098H188.111V74.4248H186.641V73.7648C185.996 74.5148 185.201 74.6198 184.751 74.6198C182.801 74.6198 181.691 72.9998 181.691 71.2598C181.691 69.2048 183.101 67.9448 184.766 67.9448C185.231 67.9448 186.041 68.0648 186.641 68.8448ZM184.946 69.2648C183.881 69.2648 183.191 70.1648 183.191 71.2898C183.191 72.3848 183.881 73.2998 184.946 73.2998C185.876 73.2998 186.731 72.6248 186.731 71.3048C186.731 69.9248 185.876 69.2648 184.946 69.2648ZM190.83 69.7448L189.885 68.9198C190.095 68.6648 190.41 68.4098 190.845 68.2148C191.37 67.9898 191.925 67.9448 192.33 67.9448C192.87 67.9448 193.425 68.0198 193.935 68.3798C194.415 68.7248 194.595 69.1298 194.595 69.6698C194.595 69.9848 194.55 70.2548 194.325 70.5398C194.13 70.7948 193.905 70.9148 193.725 70.9898C194.07 71.0648 194.415 71.2298 194.64 71.4548C194.97 71.7848 195.045 72.1898 195.045 72.5048C195.045 73.0898 194.865 73.5398 194.505 73.8998C194.01 74.3948 193.305 74.6198 192.285 74.6198C191.835 74.6198 191.205 74.5748 190.635 74.2448C190.275 74.0348 189.885 73.6748 189.645 73.1198L190.815 72.5198C190.935 72.7748 191.13 73.0298 191.37 73.1798C191.625 73.3448 191.97 73.4198 192.315 73.4198C192.57 73.4198 193.05 73.3748 193.32 73.1048C193.455 72.9548 193.545 72.7598 193.545 72.5498C193.545 72.3398 193.47 72.1598 193.35 72.0398C193.095 71.7698 192.66 71.7698 192.3 71.7698H191.64V70.5698H192.195C192.405 70.5698 192.735 70.5248 192.915 70.4048C193.035 70.3148 193.185 70.1648 193.185 69.8498C193.185 69.5798 193.05 69.3998 192.915 69.3098C192.705 69.1598 192.405 69.1448 192.21 69.1448C191.91 69.1448 191.67 69.1898 191.385 69.3248C191.205 69.4148 191.01 69.5498 190.83 69.7448ZM199.626 67.9448C201.531 67.9448 203.001 69.3248 203.001 71.2748C203.001 73.2098 201.531 74.6198 199.626 74.6198C197.721 74.6198 196.251 73.2098 196.251 71.2748C196.251 69.3248 197.721 67.9448 199.626 67.9448ZM199.626 73.2998C200.781 73.2998 201.501 72.5048 201.501 71.2898C201.501 69.8498 200.556 69.2648 199.626 69.2648C198.696 69.2648 197.751 69.8498 197.751 71.2898C197.751 72.5048 198.471 73.2998 199.626 73.2998ZM204.535 68.1098H207.01C207.385 68.1098 207.97 68.1248 208.45 68.4848C208.675 68.6648 209.035 69.0398 209.035 69.6998C209.035 70.2098 208.795 70.6748 208.285 70.9298C208.585 70.9898 208.9 71.1398 209.14 71.3498C209.425 71.6048 209.635 71.9948 209.635 72.5648C209.635 73.3298 209.26 73.7648 208.945 74.0048C208.42 74.3948 207.775 74.4248 207.49 74.4248H204.535V68.1098ZM206.005 70.5698H206.755C207.1 70.5698 207.295 70.4648 207.34 70.4348C207.58 70.2848 207.625 70.0748 207.625 69.9248C207.625 69.6998 207.52 69.5348 207.37 69.4298C207.175 69.2948 206.95 69.3098 206.725 69.3098H206.005V70.5698ZM206.005 73.2248H207.1C207.34 73.2248 207.64 73.1948 207.865 73.0448C208 72.9548 208.165 72.7748 208.165 72.4898C208.165 72.2048 208.03 72.0248 207.88 71.9348C207.655 71.7848 207.355 71.7698 207.145 71.7698H206.005V73.2248ZM211.171 74.4248V68.1098H212.641V70.3448H213.481C214.096 70.3448 214.816 70.3598 215.386 70.9898C215.806 71.4548 215.881 71.9948 215.881 72.3698C215.881 73.1048 215.596 73.5998 215.311 73.8848C214.756 74.4248 214.096 74.4248 213.466 74.4248H211.171ZM212.641 73.1648H213.316C213.601 73.1648 213.886 73.1498 214.081 73.0298C214.186 72.9548 214.411 72.7748 214.411 72.3848C214.411 72.0698 214.276 71.8748 214.096 71.7548C213.856 71.6048 213.556 71.6048 213.331 71.6048H212.641V73.1648ZM216.541 74.4248V68.1098H218.011V74.4248H216.541ZM224.297 72.2948L225.527 72.9848C225.257 73.4648 224.867 73.8848 224.462 74.1398C223.952 74.4698 223.277 74.6198 222.602 74.6198C221.762 74.6198 221.072 74.4098 220.472 73.8098C219.872 73.2098 219.542 72.3398 219.542 71.3948C219.542 70.4198 219.887 69.4748 220.547 68.7998C221.072 68.2748 221.762 67.9448 222.662 67.9448C223.667 67.9448 224.312 68.3798 224.687 68.7698C225.497 69.6098 225.572 70.7798 225.572 71.4398V71.6198H221.042C221.072 72.0698 221.267 72.5798 221.582 72.8948C221.927 73.2398 222.347 73.2998 222.707 73.2998C223.112 73.2998 223.412 73.2098 223.712 72.9848C223.967 72.7898 224.162 72.5348 224.297 72.2948ZM221.147 70.4198H224.072C224.012 70.0748 223.847 69.7748 223.622 69.5648C223.427 69.3848 223.112 69.2048 222.632 69.2048C222.122 69.2048 221.792 69.4148 221.597 69.6098C221.387 69.8048 221.222 70.1048 221.147 70.4198ZM230.61 68.1098H232.08V71.6948L236.4 67.5398V74.4248H234.93V70.7498L230.61 74.9048V68.1098ZM26.1589 90.3948V92.0448C25.4839 91.3848 24.8239 91.2648 24.3739 91.2648C23.6839 91.2648 23.2489 91.5498 22.9789 91.8198C22.7089 92.0898 22.4389 92.5698 22.4389 93.2748C22.4389 94.0098 22.7239 94.5048 23.0089 94.7898C23.3389 95.1048 23.8039 95.2998 24.3439 95.2998C24.9439 95.2998 25.6489 95.0598 26.1589 94.4898V96.1248C25.7989 96.3498 25.2139 96.6198 24.2389 96.6198C23.1889 96.6198 22.4389 96.3198 21.8389 95.6898C21.3889 95.2248 20.9389 94.4748 20.9389 93.3198C20.9389 92.1348 21.4339 91.3398 21.8989 90.8748C22.3939 90.3798 23.1889 89.9448 24.4339 89.9448C24.9139 89.9448 25.4839 90.0198 26.1589 90.3948ZM31.9927 94.2948L33.2227 94.9848C32.9527 95.4648 32.5627 95.8848 32.1577 96.1398C31.6477 96.4698 30.9727 96.6198 30.2977 96.6198C29.4577 96.6198 28.7677 96.4098 28.1677 95.8098C27.5677 95.2098 27.2377 94.3398 27.2377 93.3948C27.2377 92.4198 27.5827 91.4748 28.2427 90.7998C28.7677 90.2748 29.4577 89.9448 30.3577 89.9448C31.3627 89.9448 32.0077 90.3798 32.3827 90.7698C33.1927 91.6098 33.2677 92.7798 33.2677 93.4398V93.6198H28.7377C28.7677 94.0698 28.9627 94.5798 29.2777 94.8948C29.6227 95.2398 30.0427 95.2998 30.4027 95.2998C30.8077 95.2998 31.1077 95.2098 31.4077 94.9848C31.6627 94.7898 31.8577 94.5348 31.9927 94.2948ZM28.8427 92.4198H31.7677C31.7077 92.0748 31.5427 91.7748 31.3177 91.5648C31.1227 91.3848 30.8077 91.2048 30.3277 91.2048C29.8177 91.2048 29.4877 91.4148 29.2927 91.6098C29.0827 91.8048 28.9177 92.1048 28.8427 92.4198ZM36.274 95.6898V99.8598H34.804V90.1098H36.274V90.7998C36.814 90.1548 37.519 89.9448 38.149 89.9448C39.814 89.9448 41.224 91.2198 41.224 93.2298C41.224 95.3598 39.664 96.6198 38.164 96.6198C37.819 96.6198 36.934 96.4998 36.274 95.6898ZM37.969 91.2648C37.039 91.2648 36.184 91.9248 36.184 93.3048C36.184 94.6248 37.039 95.2998 37.969 95.2998C39.034 95.2998 39.724 94.3848 39.724 93.2898C39.724 92.1648 39.034 91.2648 37.969 91.2648ZM42.7581 90.1098H45.2331C45.6081 90.1098 46.1931 90.1248 46.6731 90.4848C46.8981 90.6648 47.2581 91.0398 47.2581 91.6998C47.2581 92.2098 47.0181 92.6748 46.5081 92.9298C46.8081 92.9898 47.1231 93.1398 47.3631 93.3498C47.6481 93.6048 47.8581 93.9948 47.8581 94.5648C47.8581 95.3298 47.4831 95.7648 47.1681 96.0048C46.6431 96.3948 45.9981 96.4248 45.7131 96.4248H42.7581V90.1098ZM44.2281 92.5698H44.9781C45.3231 92.5698 45.5181 92.4648 45.5631 92.4348C45.8031 92.2848 45.8481 92.0748 45.8481 91.9248C45.8481 91.6998 45.7431 91.5348 45.5931 91.4298C45.3981 91.2948 45.1731 91.3098 44.9481 91.3098H44.2281V92.5698ZM44.2281 95.2248H45.3231C45.5631 95.2248 45.8631 95.1948 46.0881 95.0448C46.2231 94.9548 46.3881 94.7748 46.3881 94.4898C46.3881 94.2048 46.2531 94.0248 46.1031 93.9348C45.8781 93.7848 45.5781 93.7698 45.3681 93.7698H44.2281V95.2248ZM49.3939 90.1098H50.8639V93.6948L55.1839 89.5398V96.4248H53.7139V92.7498L49.3939 96.9048V90.1098ZM61.9304 90.3948V92.0448C61.2554 91.3848 60.5954 91.2648 60.1454 91.2648C59.4554 91.2648 59.0204 91.5498 58.7504 91.8198C58.4804 92.0898 58.2104 92.5698 58.2104 93.2748C58.2104 94.0098 58.4954 94.5048 58.7804 94.7898C59.1104 95.1048 59.5754 95.2998 60.1154 95.2998C60.7154 95.2998 61.4204 95.0598 61.9304 94.4898V96.1248C61.5704 96.3498 60.9854 96.6198 60.0104 96.6198C58.9604 96.6198 58.2104 96.3198 57.6104 95.6898C57.1604 95.2248 56.7104 94.4748 56.7104 93.3198C56.7104 92.1348 57.2054 91.3398 57.6704 90.8748C58.1654 90.3798 58.9604 89.9448 60.2054 89.9448C60.6854 89.9448 61.2554 90.0198 61.9304 90.3948ZM63.3392 96.4248V90.1098H64.8092V92.4498H67.4192V90.1098H68.8892V96.4248H67.4192V93.7998H64.8092V96.4248H63.3392ZM70.7513 96.4248V90.1098H72.2213V92.3448H73.0613C73.6763 92.3448 74.3963 92.3598 74.9663 92.9898C75.3863 93.4548 75.4613 93.9948 75.4613 94.3698C75.4613 95.1048 75.1763 95.5998 74.8913 95.8848C74.3363 96.4248 73.6763 96.4248 73.0463 96.4248H70.7513ZM72.2213 95.1648H72.8963C73.1813 95.1648 73.4663 95.1498 73.6613 95.0298C73.7663 94.9548 73.9913 94.7748 73.9913 94.3848C73.9913 94.0698 73.8563 93.8748 73.6763 93.7548C73.4363 93.6048 73.1363 93.6048 72.9113 93.6048H72.2213V95.1648ZM76.1213 96.4248V90.1098H77.5913V96.4248H76.1213ZM83.8775 94.2948L85.1075 94.9848C84.8375 95.4648 84.4475 95.8848 84.0425 96.1398C83.5325 96.4698 82.8575 96.6198 82.1825 96.6198C81.3425 96.6198 80.6525 96.4098 80.0525 95.8098C79.4525 95.2098 79.1225 94.3398 79.1225 93.3948C79.1225 92.4198 79.4675 91.4748 80.1275 90.7998C80.6525 90.2748 81.3425 89.9448 82.2425 89.9448C83.2475 89.9448 83.8925 90.3798 84.2675 90.7698C85.0775 91.6098 85.1525 92.7798 85.1525 93.4398V93.6198H80.6225C80.6525 94.0698 80.8475 94.5798 81.1625 94.8948C81.5075 95.2398 81.9275 95.2998 82.2875 95.2998C82.6925 95.2998 82.9925 95.2098 83.2925 94.9848C83.5475 94.7898 83.7425 94.5348 83.8775 94.2948ZM80.7275 92.4198H83.6525C83.5925 92.0748 83.4275 91.7748 83.2025 91.5648C83.0075 91.3848 82.6925 91.2048 82.2125 91.2048C81.7025 91.2048 81.3725 91.4148 81.1775 91.6098C80.9675 91.8048 80.8025 92.1048 80.7275 92.4198ZM90.1898 90.1098H91.6598V92.3598L93.7598 90.1098H95.7098L92.9498 92.8698L95.8598 96.4248H93.9998L91.8998 93.8298L91.6598 94.0698V96.4248H90.1898V90.1098ZM99.724 89.9448C101.629 89.9448 103.099 91.3248 103.099 93.2748C103.099 95.2098 101.629 96.6198 99.724 96.6198C97.819 96.6198 96.349 95.2098 96.349 93.2748C96.349 91.3248 97.819 89.9448 99.724 89.9448ZM99.724 95.2998C100.879 95.2998 101.599 94.5048 101.599 93.2898C101.599 91.8498 100.654 91.2648 99.724 91.2648C98.794 91.2648 97.849 91.8498 97.849 93.2898C97.849 94.5048 98.569 95.2998 99.724 95.2998ZM103.913 96.4248L105.443 89.5398L108.053 94.3548L110.663 89.5398L112.193 96.4248H110.693L110.063 93.2598L108.053 96.9048L106.043 93.2598L105.413 96.4248H103.913ZM113.334 90.1098H118.824V96.4248H117.354V91.4598H114.804V96.4248H113.334V90.1098ZM125.308 90.8448V90.1098H126.778V96.4248H125.308V95.7648C124.663 96.5148 123.868 96.6198 123.418 96.6198C121.468 96.6198 120.358 94.9998 120.358 93.2598C120.358 91.2048 121.768 89.9448 123.433 89.9448C123.898 89.9448 124.708 90.0648 125.308 90.8448ZM123.613 91.2648C122.548 91.2648 121.858 92.1648 121.858 93.2898C121.858 94.3848 122.548 95.2998 123.613 95.2998C124.543 95.2998 125.398 94.6248 125.398 93.3048C125.398 91.9248 124.543 91.2648 123.613 91.2648ZM128.642 96.4248V90.1098H130.112V92.4498H132.722V90.1098H134.192V96.4248H132.722V93.7998H130.112V96.4248H128.642ZM136.054 90.1098H137.524V93.6948L141.844 89.5398V96.4248H140.374V92.7498L136.054 96.9048V90.1098ZM143.701 90.1098H145.171V93.6948L149.491 89.5398V96.4248H148.021V92.7498L143.701 96.9048V90.1098ZM156.648 86.4198V90.4098L160.518 86.4198H162.528L158.013 90.9498L162.558 96.4248H160.518L156.948 91.9848L156.648 92.2848V96.4248H155.118V86.4198H156.648ZM167.642 90.8448V90.1098H169.112V96.4248H167.642V95.7648C166.997 96.5148 166.202 96.6198 165.752 96.6198C163.802 96.6198 162.692 94.9998 162.692 93.2598C162.692 91.2048 164.102 89.9448 165.767 89.9448C166.232 89.9448 167.042 90.0648 167.642 90.8448ZM165.947 91.2648C164.882 91.2648 164.192 92.1648 164.192 93.2898C164.192 94.3848 164.882 95.2998 165.947 95.2998C166.877 95.2998 167.732 94.6248 167.732 93.3048C167.732 91.9248 166.877 91.2648 165.947 91.2648ZM171.831 91.7448L170.886 90.9198C171.096 90.6648 171.411 90.4098 171.846 90.2148C172.371 89.9898 172.926 89.9448 173.331 89.9448C173.871 89.9448 174.426 90.0198 174.936 90.3798C175.416 90.7248 175.596 91.1298 175.596 91.6698C175.596 91.9848 175.551 92.2548 175.326 92.5398C175.131 92.7948 174.906 92.9148 174.726 92.9898C175.071 93.0648 175.416 93.2298 175.641 93.4548C175.971 93.7848 176.046 94.1898 176.046 94.5048C176.046 95.0898 175.866 95.5398 175.506 95.8998C175.011 96.3948 174.306 96.6198 173.286 96.6198C172.836 96.6198 172.206 96.5748 171.636 96.2448C171.276 96.0348 170.886 95.6748 170.646 95.1198L171.816 94.5198C171.936 94.7748 172.131 95.0298 172.371 95.1798C172.626 95.3448 172.971 95.4198 173.316 95.4198C173.571 95.4198 174.051 95.3748 174.321 95.1048C174.456 94.9548 174.546 94.7598 174.546 94.5498C174.546 94.3398 174.471 94.1598 174.351 94.0398C174.096 93.7698 173.661 93.7698 173.301 93.7698H172.641V92.5698H173.196C173.406 92.5698 173.736 92.5248 173.916 92.4048C174.036 92.3148 174.186 92.1648 174.186 91.8498C174.186 91.5798 174.051 91.3998 173.916 91.3098C173.706 91.1598 173.406 91.1448 173.211 91.1448C172.911 91.1448 172.671 91.1898 172.386 91.3248C172.206 91.4148 172.011 91.5498 171.831 91.7448ZM182.202 90.8448V90.1098H183.672V96.4248H182.202V95.7648C181.557 96.5148 180.762 96.6198 180.312 96.6198C178.362 96.6198 177.252 94.9998 177.252 93.2598C177.252 91.2048 178.662 89.9448 180.327 89.9448C180.792 89.9448 181.602 90.0648 182.202 90.8448ZM180.507 91.2648C179.442 91.2648 178.752 92.1648 178.752 93.2898C178.752 94.3848 179.442 95.2998 180.507 95.2998C181.437 95.2998 182.292 94.6248 182.292 93.3048C182.292 91.9248 181.437 91.2648 180.507 91.2648ZM184.696 96.4248L187.486 93.0048L185.236 90.1098H186.976L188.371 91.9548L189.781 90.1098H191.581L189.256 93.0048L191.956 96.4248H190.186L188.371 94.0698L186.496 96.4248H184.696ZM197.868 90.3948V92.0448C197.193 91.3848 196.533 91.2648 196.083 91.2648C195.393 91.2648 194.958 91.5498 194.688 91.8198C194.418 92.0898 194.148 92.5698 194.148 93.2748C194.148 94.0098 194.433 94.5048 194.718 94.7898C195.048 95.1048 195.513 95.2998 196.053 95.2998C196.653 95.2998 197.358 95.0598 197.868 94.4898V96.1248C197.508 96.3498 196.923 96.6198 195.948 96.6198C194.898 96.6198 194.148 96.3198 193.548 95.6898C193.098 95.2248 192.648 94.4748 192.648 93.3198C192.648 92.1348 193.143 91.3398 193.608 90.8748C194.103 90.3798 194.898 89.9448 196.143 89.9448C196.623 89.9448 197.193 90.0198 197.868 90.3948ZM203.773 91.4598H201.928V96.4248H200.458V91.4598H198.613V90.1098H203.773V91.4598ZM209.287 90.8448V90.1098H210.757V96.4248H209.287V95.7648C208.642 96.5148 207.847 96.6198 207.397 96.6198C205.447 96.6198 204.337 94.9998 204.337 93.2598C204.337 91.2048 205.747 89.9448 207.412 89.9448C207.877 89.9448 208.687 90.0648 209.287 90.8448ZM207.592 91.2648C206.527 91.2648 205.837 92.1648 205.837 93.2898C205.837 94.3848 206.527 95.2998 207.592 95.2998C208.522 95.2998 209.377 94.6248 209.377 93.3048C209.377 91.9248 208.522 91.2648 207.592 91.2648ZM212.621 96.4248V90.1098H214.091V92.4498H216.701V90.1098H218.171V96.4248H216.701V93.7998H214.091V96.4248H212.621ZM224.654 90.8448V90.1098H226.124V96.4248H224.654V95.7648C224.009 96.5148 223.214 96.6198 222.764 96.6198C220.814 96.6198 219.704 94.9998 219.704 93.2598C219.704 91.2048 221.114 89.9448 222.779 89.9448C223.244 89.9448 224.054 90.0648 224.654 90.8448ZM222.959 91.2648C221.894 91.2648 221.204 92.1648 221.204 93.2898C221.204 94.3848 221.894 95.2998 222.959 95.2998C223.889 95.2998 224.744 94.6248 224.744 93.3048C224.744 91.9248 223.889 91.2648 222.959 91.2648ZM227.958 95.7048C227.958 95.2098 228.363 94.8048 228.858 94.8048C229.353 94.8048 229.758 95.2098 229.758 95.7048C229.758 96.1998 229.353 96.6048 228.858 96.6048C228.363 96.6048 227.958 96.1998 227.958 95.7048Z" fill="#666666"/>
</svg>
