<svg width="251" height="168" viewBox="0 0 251 168" fill="none" xmlns="http://www.w3.org/2000/svg">
<path d="M55.2009 14.436V17.622C54.1389 18.162 53.2749 18.27 52.5549 18.27C50.3409 18.27 48.8469 17.514 47.8389 16.524C46.7589 15.48 45.9669 13.896 45.9669 11.97C45.9669 10.08 46.7589 8.496 47.8389 7.452C48.9009 6.426 50.4489 5.724 52.3209 5.724C53.1129 5.724 54.0309 5.886 55.2009 6.39V9.594C54.5889 8.946 53.6709 8.316 52.3929 8.316C51.3849 8.316 50.5749 8.64 49.9449 9.252C49.2789 9.9 48.8109 10.872 48.8109 12.024C48.8109 13.266 49.3149 14.148 49.8549 14.67C50.1069 14.922 50.9709 15.678 52.4469 15.678C53.1669 15.678 54.1389 15.48 55.2009 14.436ZM63.4174 5.724C65.2894 5.724 66.8554 6.3 68.0614 7.47C69.1954 8.568 69.9334 10.152 69.9334 12.006C69.9334 13.608 69.3574 15.246 68.0614 16.506C66.9454 17.586 65.4334 18.27 63.4174 18.27C61.1674 18.27 59.6374 17.37 58.7374 16.506C57.5854 15.426 56.8654 13.806 56.8654 12.042C56.8654 10.314 57.6394 8.568 58.7194 7.488C59.5294 6.678 61.0234 5.724 63.4174 5.724ZM63.3994 8.28C62.3554 8.28 61.4194 8.658 60.7714 9.306C60.2494 9.81 59.7094 10.692 59.7094 12.024C59.7094 13.122 60.0694 14.004 60.8074 14.724C61.5814 15.462 62.4454 15.714 63.3814 15.714C64.6054 15.714 65.4694 15.264 66.0454 14.688C66.5134 14.238 67.0894 13.392 67.0894 12.006C67.0894 10.764 66.5854 9.846 66.0454 9.306C65.4514 8.73 64.4974 8.28 63.3994 8.28ZM71.9956 5.994H82.0936V18H79.3216V8.334H74.7676V18H71.9956V5.994ZM84.7222 5.994H88.9522C89.9962 5.994 91.1482 6.138 92.1022 6.984C93.1282 7.884 93.2722 9.072 93.2722 9.9C93.2722 11.412 92.6962 12.258 92.2462 12.726C91.2922 13.698 90.0322 13.788 89.1862 13.788H87.4942V18H84.7222V5.994ZM87.4942 8.262V11.52H88.4842C88.8622 11.52 89.5282 11.502 89.9782 11.07C90.2302 10.818 90.4282 10.404 90.4282 9.882C90.4282 9.378 90.2482 8.964 89.9782 8.712C89.5642 8.316 88.9702 8.262 88.4302 8.262H87.4942ZM101.017 5.724C102.889 5.724 104.455 6.3 105.661 7.47C106.795 8.568 107.533 10.152 107.533 12.006C107.533 13.608 106.957 15.246 105.661 16.506C104.545 17.586 103.033 18.27 101.017 18.27C98.767 18.27 97.237 17.37 96.337 16.506C95.185 15.426 94.465 13.806 94.465 12.042C94.465 10.314 95.239 8.568 96.319 7.488C97.129 6.678 98.623 5.724 101.017 5.724ZM100.999 8.28C99.955 8.28 99.019 8.658 98.371 9.306C97.849 9.81 97.309 10.692 97.309 12.024C97.309 13.122 97.669 14.004 98.407 14.724C99.181 15.462 100.045 15.714 100.981 15.714C102.205 15.714 103.069 15.264 103.645 14.688C104.113 14.238 104.689 13.392 104.689 12.006C104.689 10.764 104.185 9.846 103.645 9.306C103.051 8.73 102.097 8.28 100.999 8.28ZM109.595 5.994H113.267C113.915 5.994 115.391 6.03 116.327 6.912C117.101 7.65 117.191 8.658 117.191 9.18C117.191 9.648 117.119 10.188 116.795 10.71C116.489 11.214 116.075 11.466 115.787 11.592C116.363 11.682 117.011 11.97 117.443 12.402C117.839 12.798 118.217 13.482 118.217 14.544C118.217 15.75 117.749 16.506 117.281 16.974C116.291 17.928 114.851 18 114.113 18H109.595V5.994ZM112.331 8.154V10.872H112.781C113.159 10.872 113.789 10.818 114.185 10.53C114.437 10.35 114.671 9.99 114.671 9.468C114.671 8.946 114.419 8.622 114.203 8.46C113.807 8.154 113.267 8.154 112.763 8.154H112.331ZM112.331 12.924V15.84H112.997C113.699 15.84 114.545 15.822 115.049 15.354C115.301 15.12 115.445 14.778 115.445 14.346C115.445 13.86 115.247 13.536 115.067 13.374C114.581 12.924 113.645 12.924 113.087 12.924H112.331ZM126.277 5.724C128.149 5.724 129.715 6.3 130.921 7.47C132.055 8.568 132.793 10.152 132.793 12.006C132.793 13.608 132.217 15.246 130.921 16.506C129.805 17.586 128.293 18.27 126.277 18.27C124.027 18.27 122.497 17.37 121.597 16.506C120.445 15.426 119.725 13.806 119.725 12.042C119.725 10.314 120.499 8.568 121.579 7.488C122.389 6.678 123.883 5.724 126.277 5.724ZM126.259 8.28C125.215 8.28 124.279 8.658 123.631 9.306C123.109 9.81 122.569 10.692 122.569 12.024C122.569 13.122 122.929 14.004 123.667 14.724C124.441 15.462 125.305 15.714 126.241 15.714C127.465 15.714 128.329 15.264 128.905 14.688C129.373 14.238 129.949 13.392 129.949 12.006C129.949 10.764 129.445 9.846 128.905 9.306C128.311 8.73 127.357 8.28 126.259 8.28ZM139.859 18V12.618L136.241 18H132.893L137.393 11.772L133.145 5.994H136.313L139.859 11.142V5.994H142.631V11.142L146.177 5.994H149.345L145.097 11.772L149.615 18H146.267L142.631 12.618V18H139.859ZM152.214 5.994H160.818V15.696H162.168V20.7H159.684V18H152.322V20.7H149.838V15.696C150.612 15.552 151.08 15.138 151.188 15.03C152.196 14.094 152.214 12.384 152.214 11.07V5.994ZM154.878 8.298V10.98C154.878 11.808 154.842 13.05 154.644 13.788C154.5 14.31 154.212 15.03 153.564 15.696H158.082V8.298H154.878ZM170.452 5.994V8.334H166.438V10.656H170.254V12.996H166.438V15.66H170.452V18H163.666V5.994H170.452ZM175.473 5.994V10.566H180.261V5.994H183.033V18H180.261V12.906H175.473V18H172.701V5.994H175.473ZM185.656 5.994H188.428V13.842L193.99 5.85H196.438V18H193.666V10.134L188.104 18.144H185.656V5.994ZM205.854 5.994V8.334H201.84V10.656H205.656V12.996H201.84V15.66H205.854V18H199.068V5.994H205.854Z" fill="#151515"/>
<path d="M21.2464 41.995H27.4864V50.56H28.6264V54.25H27.1864V52H20.7364V54.25H19.2964V50.56C20.0164 50.59 20.5864 49.96 20.8864 49.21C21.0814 48.715 21.2464 47.965 21.2464 46.585V41.995ZM22.7764 43.435V46.585C22.7764 48.13 22.6114 48.895 22.4314 49.375C22.2214 49.93 21.9364 50.29 21.6514 50.56H25.9564V43.435H22.7764ZM34.9623 45.685V52H33.4923V47.035H31.6323V49.54C31.6323 50.08 31.5573 50.785 31.0323 51.355C30.4623 51.985 29.6373 52.105 28.9623 52V50.65C29.3973 50.755 29.8023 50.59 29.9973 50.365C30.1923 50.125 30.2223 49.78 30.2223 49.54V45.685H34.9623ZM36.0082 52L37.9882 49.495C37.5682 49.435 37.2232 49.24 36.9832 49.015C36.5782 48.625 36.4582 48.16 36.4582 47.71C36.4582 47.305 36.5482 46.72 37.0432 46.255C37.5832 45.745 38.2282 45.685 38.8732 45.685H41.2282V52H39.7582V49.675H39.4582L37.7332 52H36.0082ZM39.7582 48.475V46.945H38.9032C38.6182 46.945 38.3482 46.96 38.1382 47.08C37.9432 47.2 37.7782 47.425 37.7782 47.71C37.7782 48.025 37.9282 48.22 38.0782 48.325C38.2582 48.445 38.5282 48.475 38.8882 48.475H39.7582ZM46.5887 45.685H52.0787V52H50.6087V47.035H48.0587V52H46.5887V45.685ZM56.9872 45.52C58.8922 45.52 60.3622 46.9 60.3622 48.85C60.3622 50.785 58.8922 52.195 56.9872 52.195C55.0822 52.195 53.6122 50.785 53.6122 48.85C53.6122 46.9 55.0822 45.52 56.9872 45.52ZM56.9872 50.875C58.1422 50.875 58.8622 50.08 58.8622 48.865C58.8622 47.425 57.9172 46.84 56.9872 46.84C56.0572 46.84 55.1122 47.425 55.1122 48.865C55.1122 50.08 55.8322 50.875 56.9872 50.875ZM66.2463 47.035H64.4013V52H62.9313V47.035H61.0863V45.685H66.2463V47.035ZM68.7716 51.265V55.435H67.3016V45.685H68.7716V46.375C69.3116 45.73 70.0166 45.52 70.6466 45.52C72.3116 45.52 73.7216 46.795 73.7216 48.805C73.7216 50.935 72.1616 52.195 70.6616 52.195C70.3166 52.195 69.4316 52.075 68.7716 51.265ZM70.4666 46.84C69.5366 46.84 68.6816 47.5 68.6816 48.88C68.6816 50.2 69.5366 50.875 70.4666 50.875C71.5316 50.875 72.2216 49.96 72.2216 48.865C72.2216 47.74 71.5316 46.84 70.4666 46.84ZM79.6807 49.87L80.9107 50.56C80.6407 51.04 80.2507 51.46 79.8457 51.715C79.3357 52.045 78.6607 52.195 77.9857 52.195C77.1457 52.195 76.4557 51.985 75.8557 51.385C75.2557 50.785 74.9257 49.915 74.9257 48.97C74.9257 47.995 75.2707 47.05 75.9307 46.375C76.4557 45.85 77.1457 45.52 78.0457 45.52C79.0507 45.52 79.6957 45.955 80.0707 46.345C80.8807 47.185 80.9557 48.355 80.9557 49.015V49.195H76.4257C76.4557 49.645 76.6507 50.155 76.9657 50.47C77.3107 50.815 77.7307 50.875 78.0907 50.875C78.4957 50.875 78.7957 50.785 79.0957 50.56C79.3507 50.365 79.5457 50.11 79.6807 49.87ZM76.5307 47.995H79.4557C79.3957 47.65 79.2307 47.35 79.0057 47.14C78.8107 46.96 78.4957 46.78 78.0157 46.78C77.5057 46.78 77.1757 46.99 76.9807 47.185C76.7707 47.38 76.6057 47.68 76.5307 47.995ZM87.262 41.35H88.762C88.552 42.385 87.802 43.195 86.782 43.48L85.792 43.75C85.207 43.915 84.607 44.08 84.157 44.695C83.812 45.16 83.647 45.895 83.632 46.405H83.647C84.202 45.655 85.177 45.52 85.792 45.52C86.752 45.52 87.472 45.88 87.997 46.42C88.537 46.975 88.912 47.8 88.912 48.82C88.912 50.8 87.442 52.195 85.537 52.195C84.427 52.195 83.662 51.775 83.227 51.355C82.192 50.38 82.162 48.985 82.162 48.115C82.162 46.225 82.402 44.83 83.122 43.78C83.587 43.09 84.157 42.64 85.012 42.43L86.062 42.175C86.977 41.95 87.187 41.605 87.262 41.35ZM85.537 50.875C86.692 50.875 87.412 50.08 87.412 48.865C87.412 47.425 86.467 46.84 85.537 46.84C84.607 46.84 83.662 47.425 83.662 48.865C83.662 50.08 84.382 50.875 85.537 50.875ZM90.4461 45.685H91.9161V49.27L96.2361 45.115V52H94.7661V48.325L90.4461 52.48V45.685ZM102.443 47.035H100.598V52H99.1276V47.035H97.2826V45.685H102.443V47.035ZM107.762 49.87L108.992 50.56C108.722 51.04 108.332 51.46 107.927 51.715C107.417 52.045 106.742 52.195 106.067 52.195C105.227 52.195 104.537 51.985 103.937 51.385C103.337 50.785 103.007 49.915 103.007 48.97C103.007 47.995 103.352 47.05 104.012 46.375C104.537 45.85 105.227 45.52 106.127 45.52C107.132 45.52 107.777 45.955 108.152 46.345C108.962 47.185 109.037 48.355 109.037 49.015V49.195H104.507C104.537 49.645 104.732 50.155 105.047 50.47C105.392 50.815 105.812 50.875 106.172 50.875C106.577 50.875 106.877 50.785 107.177 50.56C107.432 50.365 107.627 50.11 107.762 49.87ZM104.612 47.995H107.537C107.477 47.65 107.312 47.35 107.087 47.14C106.892 46.96 106.577 46.78 106.097 46.78C105.587 46.78 105.257 46.99 105.062 47.185C104.852 47.38 104.687 47.68 104.612 47.995ZM115.763 45.685V52H114.293V47.035H112.433V49.54C112.433 50.08 112.358 50.785 111.833 51.355C111.263 51.985 110.438 52.105 109.763 52V50.65C110.198 50.755 110.603 50.59 110.798 50.365C110.993 50.125 111.023 49.78 111.023 49.54V45.685H115.763ZM122.044 49.87L123.274 50.56C123.004 51.04 122.614 51.46 122.209 51.715C121.699 52.045 121.024 52.195 120.349 52.195C119.509 52.195 118.819 51.985 118.219 51.385C117.619 50.785 117.289 49.915 117.289 48.97C117.289 47.995 117.634 47.05 118.294 46.375C118.819 45.85 119.509 45.52 120.409 45.52C121.414 45.52 122.059 45.955 122.434 46.345C123.244 47.185 123.319 48.355 123.319 49.015V49.195H118.789C118.819 49.645 119.014 50.155 119.329 50.47C119.674 50.815 120.094 50.875 120.454 50.875C120.859 50.875 121.159 50.785 121.459 50.56C121.714 50.365 121.909 50.11 122.044 49.87ZM118.894 47.995H121.819C121.759 47.65 121.594 47.35 121.369 47.14C121.174 46.96 120.859 46.78 120.379 46.78C119.869 46.78 119.539 46.99 119.344 47.185C119.134 47.38 118.969 47.68 118.894 47.995ZM124.855 45.685H126.325V49.27L130.645 45.115V52H129.175V48.325L124.855 52.48V45.685ZM125.335 42.955L126.535 42.61C126.79 43.48 127.405 43.585 127.765 43.585C128.41 43.585 128.785 43.285 128.995 42.61L130.195 42.955C129.85 44.2 128.62 44.725 127.765 44.725C126.91 44.725 125.68 44.2 125.335 42.955ZM136.003 45.685H138.478C138.853 45.685 139.438 45.7 139.918 46.06C140.143 46.24 140.503 46.615 140.503 47.275C140.503 47.785 140.263 48.25 139.753 48.505C140.053 48.565 140.368 48.715 140.608 48.925C140.893 49.18 141.103 49.57 141.103 50.14C141.103 50.905 140.728 51.34 140.413 51.58C139.888 51.97 139.243 52 138.958 52H136.003V45.685ZM137.473 48.145H138.223C138.568 48.145 138.763 48.04 138.808 48.01C139.048 47.86 139.093 47.65 139.093 47.5C139.093 47.275 138.988 47.11 138.838 47.005C138.643 46.87 138.418 46.885 138.193 46.885H137.473V48.145ZM137.473 50.8H138.568C138.808 50.8 139.108 50.77 139.333 50.62C139.468 50.53 139.633 50.35 139.633 50.065C139.633 49.78 139.498 49.6 139.348 49.51C139.123 49.36 138.823 49.345 138.613 49.345H137.473V50.8ZM146.139 52V45.685H147.609V48.025H150.219V45.685H151.689V52H150.219V49.375H147.609V52H146.139ZM157.977 49.87L159.207 50.56C158.937 51.04 158.547 51.46 158.142 51.715C157.632 52.045 156.957 52.195 156.282 52.195C155.442 52.195 154.752 51.985 154.152 51.385C153.552 50.785 153.222 49.915 153.222 48.97C153.222 47.995 153.567 47.05 154.227 46.375C154.752 45.85 155.442 45.52 156.342 45.52C157.347 45.52 157.992 45.955 158.367 46.345C159.177 47.185 159.252 48.355 159.252 49.015V49.195H154.722C154.752 49.645 154.947 50.155 155.262 50.47C155.607 50.815 156.027 50.875 156.387 50.875C156.792 50.875 157.092 50.785 157.392 50.56C157.647 50.365 157.842 50.11 157.977 49.87ZM154.827 47.995H157.752C157.692 47.65 157.527 47.35 157.302 47.14C157.107 46.96 156.792 46.78 156.312 46.78C155.802 46.78 155.472 46.99 155.277 47.185C155.067 47.38 154.902 47.68 154.827 47.995ZM164.148 55.435V52.105C162.963 52.12 162.108 51.76 161.553 51.28C160.983 50.8 160.488 50.05 160.488 48.835C160.488 47.515 161.118 46.765 161.538 46.405C162.303 45.745 163.323 45.58 164.148 45.58V41.995H165.618V45.58C166.443 45.58 167.463 45.745 168.228 46.405C168.648 46.765 169.278 47.515 169.278 48.835C169.278 50.05 168.783 50.8 168.213 51.28C167.658 51.76 166.803 52.12 165.618 52.105V55.435H164.148ZM164.148 50.785V46.9C163.758 46.9 163.158 46.975 162.768 47.23C162.543 47.365 161.988 47.815 161.988 48.835C161.988 49.765 162.438 50.215 162.723 50.41C163.083 50.665 163.638 50.8 164.148 50.785ZM165.618 46.9V50.785C166.128 50.8 166.683 50.665 167.043 50.41C167.328 50.215 167.778 49.765 167.778 48.835C167.778 47.815 167.223 47.365 166.998 47.23C166.608 46.975 166.008 46.9 165.618 46.9ZM175.187 47.035H173.342V52H171.872V47.035H170.027V45.685H175.187V47.035ZM180.506 49.87L181.736 50.56C181.466 51.04 181.076 51.46 180.671 51.715C180.161 52.045 179.486 52.195 178.811 52.195C177.971 52.195 177.281 51.985 176.681 51.385C176.081 50.785 175.751 49.915 175.751 48.97C175.751 47.995 176.096 47.05 176.756 46.375C177.281 45.85 177.971 45.52 178.871 45.52C179.876 45.52 180.521 45.955 180.896 46.345C181.706 47.185 181.781 48.355 181.781 49.015V49.195H177.251C177.281 49.645 177.476 50.155 177.791 50.47C178.136 50.815 178.556 50.875 178.916 50.875C179.321 50.875 179.621 50.785 179.921 50.56C180.176 50.365 180.371 50.11 180.506 49.87ZM177.356 47.995H180.281C180.221 47.65 180.056 47.35 179.831 47.14C179.636 46.96 179.321 46.78 178.841 46.78C178.331 46.78 178.001 46.99 177.806 47.185C177.596 47.38 177.431 47.68 177.356 47.995ZM183.317 52V45.685H187.187V47.035H184.787V52H183.317ZM192.713 46.42V45.685H194.183V52H192.713V51.34C192.068 52.09 191.273 52.195 190.823 52.195C188.873 52.195 187.763 50.575 187.763 48.835C187.763 46.78 189.173 45.52 190.838 45.52C191.303 45.52 192.113 45.64 192.713 46.42ZM191.018 46.84C189.953 46.84 189.263 47.74 189.263 48.865C189.263 49.96 189.953 50.875 191.018 50.875C191.948 50.875 192.803 50.2 192.803 48.88C192.803 47.5 191.948 46.84 191.018 46.84ZM196.902 47.32L195.957 46.495C196.167 46.24 196.482 45.985 196.917 45.79C197.442 45.565 197.997 45.52 198.402 45.52C198.942 45.52 199.497 45.595 200.007 45.955C200.487 46.3 200.667 46.705 200.667 47.245C200.667 47.56 200.622 47.83 200.397 48.115C200.202 48.37 199.977 48.49 199.797 48.565C200.142 48.64 200.487 48.805 200.712 49.03C201.042 49.36 201.117 49.765 201.117 50.08C201.117 50.665 200.937 51.115 200.577 51.475C200.082 51.97 199.377 52.195 198.357 52.195C197.907 52.195 197.277 52.15 196.707 51.82C196.347 51.61 195.957 51.25 195.717 50.695L196.887 50.095C197.007 50.35 197.202 50.605 197.442 50.755C197.697 50.92 198.042 50.995 198.387 50.995C198.642 50.995 199.122 50.95 199.392 50.68C199.527 50.53 199.617 50.335 199.617 50.125C199.617 49.915 199.542 49.735 199.422 49.615C199.167 49.345 198.732 49.345 198.372 49.345H197.712V48.145H198.267C198.477 48.145 198.807 48.1 198.987 47.98C199.107 47.89 199.257 47.74 199.257 47.425C199.257 47.155 199.122 46.975 198.987 46.885C198.777 46.735 198.477 46.72 198.282 46.72C197.982 46.72 197.742 46.765 197.457 46.9C197.277 46.99 197.082 47.125 196.902 47.32ZM205.698 45.52C207.603 45.52 209.073 46.9 209.073 48.85C209.073 50.785 207.603 52.195 205.698 52.195C203.793 52.195 202.323 50.785 202.323 48.85C202.323 46.9 203.793 45.52 205.698 45.52ZM205.698 50.875C206.853 50.875 207.573 50.08 207.573 48.865C207.573 47.425 206.628 46.84 205.698 46.84C204.768 46.84 203.823 47.425 203.823 48.865C203.823 50.08 204.543 50.875 205.698 50.875ZM210.607 45.685H213.082C213.457 45.685 214.042 45.7 214.522 46.06C214.747 46.24 215.107 46.615 215.107 47.275C215.107 47.785 214.867 48.25 214.357 48.505C214.657 48.565 214.972 48.715 215.212 48.925C215.497 49.18 215.707 49.57 215.707 50.14C215.707 50.905 215.332 51.34 215.017 51.58C214.492 51.97 213.847 52 213.562 52H210.607V45.685ZM212.077 48.145H212.827C213.172 48.145 213.367 48.04 213.412 48.01C213.652 47.86 213.697 47.65 213.697 47.5C213.697 47.275 213.592 47.11 213.442 47.005C213.247 46.87 213.022 46.885 212.797 46.885H212.077V48.145ZM212.077 50.8H213.172C213.412 50.8 213.712 50.77 213.937 50.62C214.072 50.53 214.237 50.35 214.237 50.065C214.237 49.78 214.102 49.6 213.952 49.51C213.727 49.36 213.427 49.345 213.217 49.345H212.077V50.8ZM220.288 45.52C222.193 45.52 223.663 46.9 223.663 48.85C223.663 50.785 222.193 52.195 220.288 52.195C218.383 52.195 216.913 50.785 216.913 48.85C216.913 46.9 218.383 45.52 220.288 45.52ZM220.288 50.875C221.443 50.875 222.163 50.08 222.163 48.865C222.163 47.425 221.218 46.84 220.288 46.84C219.358 46.84 218.413 47.425 218.413 48.865C218.413 50.08 219.133 50.875 220.288 50.875ZM225.197 45.685H226.667V49.27L230.987 45.115V52H229.517V48.325L225.197 52.48V45.685ZM225.677 42.955L226.877 42.61C227.132 43.48 227.747 43.585 228.107 43.585C228.752 43.585 229.127 43.285 229.337 42.61L230.537 42.955C230.192 44.2 228.962 44.725 228.107 44.725C227.252 44.725 226.022 44.2 225.677 42.955ZM40.7714 67.52C42.6764 67.52 44.1464 68.9 44.1464 70.85C44.1464 72.785 42.6764 74.195 40.7714 74.195C38.8664 74.195 37.3964 72.785 37.3964 70.85C37.3964 68.9 38.8664 67.52 40.7714 67.52ZM40.7714 72.875C41.9264 72.875 42.6464 72.08 42.6464 70.865C42.6464 69.425 41.7014 68.84 40.7714 68.84C39.8414 68.84 38.8964 69.425 38.8964 70.865C38.8964 72.08 39.6164 72.875 40.7714 72.875ZM50.0305 69.035H48.1855V74H46.7155V69.035H44.8705V67.685H50.0305V69.035ZM52.5558 73.265V77.435H51.0858V67.685H52.5558V68.375C53.0958 67.73 53.8008 67.52 54.4308 67.52C56.0958 67.52 57.5058 68.795 57.5058 70.805C57.5058 72.935 55.9458 74.195 54.4458 74.195C54.1008 74.195 53.2158 74.075 52.5558 73.265ZM54.2508 68.84C53.3208 68.84 52.4658 69.5 52.4658 70.88C52.4658 72.2 53.3208 72.875 54.2508 72.875C55.3158 72.875 56.0058 71.96 56.0058 70.865C56.0058 69.74 55.3158 68.84 54.2508 68.84ZM63.6599 68.42V67.685H65.1299V74H63.6599V73.34C63.0149 74.09 62.2199 74.195 61.7699 74.195C59.8199 74.195 58.7099 72.575 58.7099 70.835C58.7099 68.78 60.1199 67.52 61.7849 67.52C62.2499 67.52 63.0599 67.64 63.6599 68.42ZM61.9649 68.84C60.8999 68.84 60.2099 69.74 60.2099 70.865C60.2099 71.96 60.8999 72.875 61.9649 72.875C62.8949 72.875 63.7499 72.2 63.7499 70.88C63.7499 69.5 62.8949 68.84 61.9649 68.84ZM71.884 67.97V69.62C71.209 68.96 70.549 68.84 70.099 68.84C69.409 68.84 68.974 69.125 68.704 69.395C68.434 69.665 68.164 70.145 68.164 70.85C68.164 71.585 68.449 72.08 68.734 72.365C69.064 72.68 69.529 72.875 70.069 72.875C70.669 72.875 71.374 72.635 71.884 72.065V73.7C71.524 73.925 70.939 74.195 69.964 74.195C68.914 74.195 68.164 73.895 67.564 73.265C67.114 72.8 66.664 72.05 66.664 70.895C66.664 69.71 67.159 68.915 67.624 68.45C68.119 67.955 68.914 67.52 70.159 67.52C70.639 67.52 71.209 67.595 71.884 67.97ZM78.6293 67.685V74H77.1593V69.035H75.2993V71.54C75.2993 72.08 75.2243 72.785 74.6993 73.355C74.1293 73.985 73.3043 74.105 72.6293 74V72.65C73.0643 72.755 73.4693 72.59 73.6643 72.365C73.8593 72.125 73.8893 71.78 73.8893 71.54V67.685H78.6293ZM80.4852 67.685H81.9552V71.27L86.2752 67.115V74H84.8052V70.325L80.4852 74.48V67.685ZM91.6326 67.685H97.1226V74H95.6526V69.035H93.1026V74H91.6326V67.685ZM100.456 73.265V77.435H98.9862V67.685H100.456V68.375C100.996 67.73 101.701 67.52 102.331 67.52C103.996 67.52 105.406 68.795 105.406 70.805C105.406 72.935 103.846 74.195 102.346 74.195C102.001 74.195 101.116 74.075 100.456 73.265ZM102.151 68.84C101.221 68.84 100.366 69.5 100.366 70.88C100.366 72.2 101.221 72.875 102.151 72.875C103.216 72.875 103.906 71.96 103.906 70.865C103.906 69.74 103.216 68.84 102.151 68.84ZM106.94 67.685H108.41V71.27L112.73 67.115V74H111.26V70.325L106.94 74.48V67.685ZM118.088 74V67.685H119.558V70.025H122.168V67.685H123.638V74H122.168V71.375H119.558V74H118.088ZM129.925 71.87L131.155 72.56C130.885 73.04 130.495 73.46 130.09 73.715C129.58 74.045 128.905 74.195 128.23 74.195C127.39 74.195 126.7 73.985 126.1 73.385C125.5 72.785 125.17 71.915 125.17 70.97C125.17 69.995 125.515 69.05 126.175 68.375C126.7 67.85 127.39 67.52 128.29 67.52C129.295 67.52 129.94 67.955 130.315 68.345C131.125 69.185 131.2 70.355 131.2 71.015V71.195H126.67C126.7 71.645 126.895 72.155 127.21 72.47C127.555 72.815 127.975 72.875 128.335 72.875C128.74 72.875 129.04 72.785 129.34 72.56C129.595 72.365 129.79 72.11 129.925 71.87ZM126.775 69.995H129.7C129.64 69.65 129.475 69.35 129.25 69.14C129.055 68.96 128.74 68.78 128.26 68.78C127.75 68.78 127.42 68.99 127.225 69.185C127.015 69.38 126.85 69.68 126.775 69.995ZM135.781 67.52C137.686 67.52 139.156 68.9 139.156 70.85C139.156 72.785 137.686 74.195 135.781 74.195C133.876 74.195 132.406 72.785 132.406 70.85C132.406 68.9 133.876 67.52 135.781 67.52ZM135.781 72.875C136.936 72.875 137.656 72.08 137.656 70.865C137.656 69.425 136.711 68.84 135.781 68.84C134.851 68.84 133.906 69.425 133.906 70.865C133.906 72.08 134.626 72.875 135.781 72.875ZM145.46 63.35H146.96C146.75 64.385 146 65.195 144.98 65.48L143.99 65.75C143.405 65.915 142.805 66.08 142.355 66.695C142.01 67.16 141.845 67.895 141.83 68.405H141.845C142.4 67.655 143.375 67.52 143.99 67.52C144.95 67.52 145.67 67.88 146.195 68.42C146.735 68.975 147.11 69.8 147.11 70.82C147.11 72.8 145.64 74.195 143.735 74.195C142.625 74.195 141.86 73.775 141.425 73.355C140.39 72.38 140.36 70.985 140.36 70.115C140.36 68.225 140.6 66.83 141.32 65.78C141.785 65.09 142.355 64.64 143.21 64.43L144.26 64.175C145.175 63.95 145.385 63.605 145.46 63.35ZM143.735 72.875C144.89 72.875 145.61 72.08 145.61 70.865C145.61 69.425 144.665 68.84 143.735 68.84C142.805 68.84 141.86 69.425 141.86 70.865C141.86 72.08 142.58 72.875 143.735 72.875ZM147.804 74L150.594 70.58L148.344 67.685H150.084L151.479 69.53L152.889 67.685H154.689L152.364 70.58L155.064 74H153.294L151.479 71.645L149.604 74H147.804ZM159.131 67.52C161.036 67.52 162.506 68.9 162.506 70.85C162.506 72.785 161.036 74.195 159.131 74.195C157.226 74.195 155.756 72.785 155.756 70.85C155.756 68.9 157.226 67.52 159.131 67.52ZM159.131 72.875C160.286 72.875 161.006 72.08 161.006 70.865C161.006 69.425 160.061 68.84 159.131 68.84C158.201 68.84 157.256 69.425 157.256 70.865C157.256 72.08 157.976 72.875 159.131 72.875ZM164.58 67.685H169.32V72.65H170.28V75.8H168.93V74H164.52V75.8H163.17V72.65C163.74 72.62 164.13 72.215 164.325 71.825C164.505 71.435 164.58 70.925 164.58 70.16V67.685ZM167.85 72.65V69.035H165.99V70.715C165.99 71.81 165.645 72.35 165.255 72.65H167.85ZM171.335 67.685H172.805V71.27L177.125 67.115V74H175.655V70.325L171.335 74.48V67.685ZM178.261 74L179.791 67.115L182.401 71.93L185.011 67.115L186.541 74H185.041L184.411 70.835L182.401 74.48L180.391 70.835L179.761 74H178.261ZM190.727 67.52C192.632 67.52 194.102 68.9 194.102 70.85C194.102 72.785 192.632 74.195 190.727 74.195C188.822 74.195 187.352 72.785 187.352 70.85C187.352 68.9 188.822 67.52 190.727 67.52ZM190.727 72.875C191.882 72.875 192.602 72.08 192.602 70.865C192.602 69.425 191.657 68.84 190.727 68.84C189.797 68.84 188.852 69.425 188.852 70.865C188.852 72.08 189.572 72.875 190.727 72.875ZM200.527 67.97V69.62C199.852 68.96 199.192 68.84 198.742 68.84C198.052 68.84 197.617 69.125 197.347 69.395C197.077 69.665 196.807 70.145 196.807 70.85C196.807 71.585 197.092 72.08 197.377 72.365C197.707 72.68 198.172 72.875 198.712 72.875C199.312 72.875 200.017 72.635 200.527 72.065V73.7C200.167 73.925 199.582 74.195 198.607 74.195C197.557 74.195 196.807 73.895 196.207 73.265C195.757 72.8 195.307 72.05 195.307 70.895C195.307 69.71 195.802 68.915 196.267 68.45C196.762 67.955 197.557 67.52 198.802 67.52C199.282 67.52 199.852 67.595 200.527 67.97ZM206.432 69.035H204.587V74H203.117V69.035H201.272V67.685H206.432V69.035ZM207.487 67.685H208.957V71.27L213.277 67.115V74H211.807V70.325L207.487 74.48V67.685ZM45.7079 89.52C47.6129 89.52 49.0829 90.9 49.0829 92.85C49.0829 94.785 47.6129 96.195 45.7079 96.195C43.8029 96.195 42.3329 94.785 42.3329 92.85C42.3329 90.9 43.8029 89.52 45.7079 89.52ZM45.7079 94.875C46.8629 94.875 47.5829 94.08 47.5829 92.865C47.5829 91.425 46.6379 90.84 45.7079 90.84C44.7779 90.84 43.8329 91.425 43.8329 92.865C43.8329 94.08 44.5529 94.875 45.7079 94.875ZM55.507 89.97V91.62C54.832 90.96 54.172 90.84 53.722 90.84C53.032 90.84 52.597 91.125 52.327 91.395C52.057 91.665 51.787 92.145 51.787 92.85C51.787 93.585 52.072 94.08 52.357 94.365C52.687 94.68 53.152 94.875 53.692 94.875C54.292 94.875 54.997 94.635 55.507 94.065V95.7C55.147 95.925 54.562 96.195 53.587 96.195C52.537 96.195 51.787 95.895 51.187 95.265C50.737 94.8 50.287 94.05 50.287 92.895C50.287 91.71 50.782 90.915 51.247 90.45C51.742 89.955 52.537 89.52 53.782 89.52C54.262 89.52 54.832 89.595 55.507 89.97ZM56.4508 99.435L58.7758 95.01L56.0758 89.685H57.8458L59.6458 93.375L61.4758 89.685H63.1258L58.1008 99.435H56.4508ZM64.1522 96V89.685H65.6222V94.65H67.7222V89.685H69.1922V94.65H71.2922V89.685H72.7622V94.65H73.8122V97.8H72.4622V96H64.1522ZM79.2852 93.87L80.5152 94.56C80.2452 95.04 79.8552 95.46 79.4502 95.715C78.9402 96.045 78.2652 96.195 77.5902 96.195C76.7502 96.195 76.0602 95.985 75.4602 95.385C74.8602 94.785 74.5302 93.915 74.5302 92.97C74.5302 91.995 74.8752 91.05 75.5352 90.375C76.0602 89.85 76.7502 89.52 77.6502 89.52C78.6552 89.52 79.3002 89.955 79.6752 90.345C80.4852 91.185 80.5602 92.355 80.5602 93.015V93.195H76.0302C76.0602 93.645 76.2552 94.155 76.5702 94.47C76.9152 94.815 77.3352 94.875 77.6952 94.875C78.1002 94.875 78.4002 94.785 78.7002 94.56C78.9552 94.365 79.1502 94.11 79.2852 93.87ZM76.1352 91.995H79.0602C79.0002 91.65 78.8352 91.35 78.6102 91.14C78.4152 90.96 78.1002 90.78 77.6202 90.78C77.1102 90.78 76.7802 90.99 76.5852 91.185C76.3752 91.38 76.2102 91.68 76.1352 91.995ZM86.9865 89.97V91.62C86.3115 90.96 85.6515 90.84 85.2015 90.84C84.5115 90.84 84.0765 91.125 83.8065 91.395C83.5365 91.665 83.2665 92.145 83.2665 92.85C83.2665 93.585 83.5515 94.08 83.8365 94.365C84.1665 94.68 84.6315 94.875 85.1715 94.875C85.7715 94.875 86.4765 94.635 86.9865 94.065V95.7C86.6265 95.925 86.0415 96.195 85.0665 96.195C84.0165 96.195 83.2665 95.895 82.6665 95.265C82.2165 94.8 81.7665 94.05 81.7665 92.895C81.7665 91.71 82.2615 90.915 82.7265 90.45C83.2215 89.955 84.0165 89.52 85.2615 89.52C85.7415 89.52 86.3115 89.595 86.9865 89.97ZM92.8918 91.035H91.0468V96H89.5768V91.035H87.7318V89.685H92.8918V91.035ZM93.9471 89.685H96.4221C96.7971 89.685 97.3821 89.7 97.8621 90.06C98.0871 90.24 98.4471 90.615 98.4471 91.275C98.4471 91.785 98.2071 92.25 97.6971 92.505C97.9971 92.565 98.3121 92.715 98.5521 92.925C98.8371 93.18 99.0471 93.57 99.0471 94.14C99.0471 94.905 98.6721 95.34 98.3571 95.58C97.8321 95.97 97.1871 96 96.9021 96H93.9471V89.685ZM95.4171 92.145H96.1671C96.5121 92.145 96.7071 92.04 96.7521 92.01C96.9921 91.86 97.0371 91.65 97.0371 91.5C97.0371 91.275 96.9321 91.11 96.7821 91.005C96.5871 90.87 96.3621 90.885 96.1371 90.885H95.4171V92.145ZM95.4171 94.8H96.5121C96.7521 94.8 97.0521 94.77 97.2771 94.62C97.4121 94.53 97.5771 94.35 97.5771 94.065C97.5771 93.78 97.4421 93.6 97.2921 93.51C97.0671 93.36 96.7671 93.345 96.5571 93.345H95.4171V94.8ZM105.773 89.685V96H104.303V91.035H102.443V93.54C102.443 94.08 102.368 94.785 101.843 95.355C101.273 95.985 100.448 96.105 99.7728 96V94.65C100.208 94.755 100.613 94.59 100.808 94.365C101.003 94.125 101.033 93.78 101.033 93.54V89.685H105.773ZM106.819 96L108.799 93.495C108.379 93.435 108.034 93.24 107.794 93.015C107.389 92.625 107.269 92.16 107.269 91.71C107.269 91.305 107.359 90.72 107.854 90.255C108.394 89.745 109.039 89.685 109.684 89.685H112.039V96H110.569V93.675H110.269L108.544 96H106.819ZM110.569 92.475V90.945H109.714C109.429 90.945 109.159 90.96 108.949 91.08C108.754 91.2 108.589 91.425 108.589 91.71C108.589 92.025 108.739 92.22 108.889 92.325C109.069 92.445 109.339 92.475 109.699 92.475H110.569ZM118.323 93.87L119.553 94.56C119.283 95.04 118.893 95.46 118.488 95.715C117.978 96.045 117.303 96.195 116.628 96.195C115.788 96.195 115.098 95.985 114.498 95.385C113.898 94.785 113.568 93.915 113.568 92.97C113.568 91.995 113.913 91.05 114.573 90.375C115.098 89.85 115.788 89.52 116.688 89.52C117.693 89.52 118.338 89.955 118.713 90.345C119.523 91.185 119.598 92.355 119.598 93.015V93.195H115.068C115.098 93.645 115.293 94.155 115.608 94.47C115.953 94.815 116.373 94.875 116.733 94.875C117.138 94.875 117.438 94.785 117.738 94.56C117.993 94.365 118.188 94.11 118.323 93.87ZM115.173 91.995H118.098C118.038 91.65 117.873 91.35 117.648 91.14C117.453 90.96 117.138 90.78 116.658 90.78C116.148 90.78 115.818 90.99 115.623 91.185C115.413 91.38 115.248 91.68 115.173 91.995ZM120.415 96L121.945 89.115L124.555 93.93L127.165 89.115L128.695 96H127.195L126.565 92.835L124.555 96.48L122.545 92.835L121.915 96H120.415ZM133.337 89.685H134.807V93.27L139.127 89.115V96H137.657V92.325L133.337 96.48V89.685ZM140.983 96V89.685H142.453V92.025H145.063V89.685H146.533V96H145.063V93.375H142.453V96H140.983ZM151.41 89.685H152.88V92.025L154.785 89.685H156.555L154.11 92.565L156.795 96H154.965L153.06 93.465L152.88 93.675V96H151.41V93.675L151.23 93.465L149.325 96H147.495L150.18 92.565L147.735 89.685H149.505L151.41 92.025V89.685ZM162.181 93.87L163.411 94.56C163.141 95.04 162.751 95.46 162.346 95.715C161.836 96.045 161.161 96.195 160.486 96.195C159.646 96.195 158.956 95.985 158.356 95.385C157.756 94.785 157.426 93.915 157.426 92.97C157.426 91.995 157.771 91.05 158.431 90.375C158.956 89.85 159.646 89.52 160.546 89.52C161.551 89.52 162.196 89.955 162.571 90.345C163.381 91.185 163.456 92.355 163.456 93.015V93.195H158.926C158.956 93.645 159.151 94.155 159.466 94.47C159.811 94.815 160.231 94.875 160.591 94.875C160.996 94.875 161.296 94.785 161.596 94.56C161.851 94.365 162.046 94.11 162.181 93.87ZM159.031 91.995H161.956C161.896 91.65 161.731 91.35 161.506 91.14C161.311 90.96 160.996 90.78 160.516 90.78C160.006 90.78 159.676 90.99 159.481 91.185C159.271 91.38 159.106 91.68 159.031 91.995ZM164.992 96V89.685H166.462V92.025H169.072V89.685H170.542V96H169.072V93.375H166.462V96H164.992ZM176.829 93.87L178.059 94.56C177.789 95.04 177.399 95.46 176.994 95.715C176.484 96.045 175.809 96.195 175.134 96.195C174.294 96.195 173.604 95.985 173.004 95.385C172.404 94.785 172.074 93.915 172.074 92.97C172.074 91.995 172.419 91.05 173.079 90.375C173.604 89.85 174.294 89.52 175.194 89.52C176.199 89.52 176.844 89.955 177.219 90.345C178.029 91.185 178.104 92.355 178.104 93.015V93.195H173.574C173.604 93.645 173.799 94.155 174.114 94.47C174.459 94.815 174.879 94.875 175.239 94.875C175.644 94.875 175.944 94.785 176.244 94.56C176.499 94.365 176.694 94.11 176.829 93.87ZM173.679 91.995H176.604C176.544 91.65 176.379 91.35 176.154 91.14C175.959 90.96 175.644 90.78 175.164 90.78C174.654 90.78 174.324 90.99 174.129 91.185C173.919 91.38 173.754 91.68 173.679 91.995ZM181.11 95.265V99.435H179.64V89.685H181.11V90.375C181.65 89.73 182.355 89.52 182.985 89.52C184.65 89.52 186.06 90.795 186.06 92.805C186.06 94.935 184.5 96.195 183 96.195C182.655 96.195 181.77 96.075 181.11 95.265ZM182.805 90.84C181.875 90.84 181.02 91.5 181.02 92.88C181.02 94.2 181.875 94.875 182.805 94.875C183.87 94.875 184.56 93.96 184.56 92.865C184.56 91.74 183.87 90.84 182.805 90.84ZM187.595 96V89.685H189.065V92.025H191.675V89.685H193.145V96H191.675V93.375H189.065V96H187.595ZM198.052 89.52C199.957 89.52 201.427 90.9 201.427 92.85C201.427 94.785 199.957 96.195 198.052 96.195C196.147 96.195 194.677 94.785 194.677 92.85C194.677 90.9 196.147 89.52 198.052 89.52ZM198.052 94.875C199.207 94.875 199.927 94.08 199.927 92.865C199.927 91.425 198.982 90.84 198.052 90.84C197.122 90.84 196.177 91.425 196.177 92.865C196.177 94.08 196.897 94.875 198.052 94.875ZM207.386 93.87L208.616 94.56C208.346 95.04 207.956 95.46 207.551 95.715C207.041 96.045 206.366 96.195 205.691 96.195C204.851 96.195 204.161 95.985 203.561 95.385C202.961 94.785 202.631 93.915 202.631 92.97C202.631 91.995 202.976 91.05 203.636 90.375C204.161 89.85 204.851 89.52 205.751 89.52C206.756 89.52 207.401 89.955 207.776 90.345C208.586 91.185 208.661 92.355 208.661 93.015V93.195H204.131C204.161 93.645 204.356 94.155 204.671 94.47C205.016 94.815 205.436 94.875 205.796 94.875C206.201 94.875 206.501 94.785 206.801 94.56C207.056 94.365 207.251 94.11 207.386 93.87ZM204.236 91.995H207.161C207.101 91.65 206.936 91.35 206.711 91.14C206.516 90.96 206.201 90.78 205.721 90.78C205.211 90.78 204.881 90.99 204.686 91.185C204.476 91.38 204.311 91.68 204.236 91.995ZM13.0558 111.97V113.62C12.3808 112.96 11.7208 112.84 11.2708 112.84C10.5808 112.84 10.1458 113.125 9.87584 113.395C9.60584 113.665 9.33584 114.145 9.33584 114.85C9.33584 115.585 9.62084 116.08 9.90584 116.365C10.2358 116.68 10.7008 116.875 11.2408 116.875C11.8408 116.875 12.5458 116.635 13.0558 116.065V117.7C12.6958 117.925 12.1108 118.195 11.1358 118.195C10.0858 118.195 9.33584 117.895 8.73584 117.265C8.28584 116.8 7.83584 116.05 7.83584 114.895C7.83584 113.71 8.33084 112.915 8.79584 112.45C9.29084 111.955 10.0858 111.52 11.3308 111.52C11.8108 111.52 12.3808 111.595 13.0558 111.97ZM17.5097 111.52C19.4147 111.52 20.8847 112.9 20.8847 114.85C20.8847 116.785 19.4147 118.195 17.5097 118.195C15.6047 118.195 14.1347 116.785 14.1347 114.85C14.1347 112.9 15.6047 111.52 17.5097 111.52ZM17.5097 116.875C18.6647 116.875 19.3847 116.08 19.3847 114.865C19.3847 113.425 18.4397 112.84 17.5097 112.84C16.5797 112.84 15.6347 113.425 15.6347 114.865C15.6347 116.08 16.3547 116.875 17.5097 116.875ZM22.4188 111.685H27.9088V118H26.4388V113.035H23.8888V118H22.4188V111.685ZM31.2423 117.265V121.435H29.7723V111.685H31.2423V112.375C31.7823 111.73 32.4873 111.52 33.1173 111.52C34.7823 111.52 36.1923 112.795 36.1923 114.805C36.1923 116.935 34.6323 118.195 33.1323 118.195C32.7873 118.195 31.9023 118.075 31.2423 117.265ZM32.9373 112.84C32.0073 112.84 31.1523 113.5 31.1523 114.88C31.1523 116.2 32.0073 116.875 32.9373 116.875C34.0023 116.875 34.6923 115.96 34.6923 114.865C34.6923 113.74 34.0023 112.84 32.9373 112.84ZM40.7714 111.52C42.6764 111.52 44.1464 112.9 44.1464 114.85C44.1464 116.785 42.6764 118.195 40.7714 118.195C38.8664 118.195 37.3964 116.785 37.3964 114.85C37.3964 112.9 38.8664 111.52 40.7714 111.52ZM40.7714 116.875C41.9264 116.875 42.6464 116.08 42.6464 114.865C42.6464 113.425 41.7014 112.84 40.7714 112.84C39.8414 112.84 38.8964 113.425 38.8964 114.865C38.8964 116.08 39.6164 116.875 40.7714 116.875ZM45.6805 111.685H48.1555C48.5305 111.685 49.1155 111.7 49.5955 112.06C49.8205 112.24 50.1805 112.615 50.1805 113.275C50.1805 113.785 49.9405 114.25 49.4305 114.505C49.7305 114.565 50.0455 114.715 50.2855 114.925C50.5705 115.18 50.7805 115.57 50.7805 116.14C50.7805 116.905 50.4055 117.34 50.0905 117.58C49.5655 117.97 48.9205 118 48.6355 118H45.6805V111.685ZM47.1505 114.145H47.9005C48.2455 114.145 48.4405 114.04 48.4855 114.01C48.7255 113.86 48.7705 113.65 48.7705 113.5C48.7705 113.275 48.6655 113.11 48.5155 113.005C48.3205 112.87 48.0955 112.885 47.8705 112.885H47.1505V114.145ZM47.1505 116.8H48.2455C48.4855 116.8 48.7855 116.77 49.0105 116.62C49.1455 116.53 49.3105 116.35 49.3105 116.065C49.3105 115.78 49.1755 115.6 49.0255 115.51C48.8005 115.36 48.5005 115.345 48.2905 115.345H47.1505V116.8ZM55.3612 111.52C57.2662 111.52 58.7362 112.9 58.7362 114.85C58.7362 116.785 57.2662 118.195 55.3612 118.195C53.4562 118.195 51.9862 116.785 51.9862 114.85C51.9862 112.9 53.4562 111.52 55.3612 111.52ZM55.3612 116.875C56.5162 116.875 57.2362 116.08 57.2362 114.865C57.2362 113.425 56.2912 112.84 55.3612 112.84C54.4312 112.84 53.4862 113.425 53.4862 114.865C53.4862 116.08 54.2062 116.875 55.3612 116.875ZM63.2853 111.685H64.7553V114.025L66.6603 111.685H68.4303L65.9853 114.565L68.6703 118H66.8403L64.9353 115.465L64.7553 115.675V118H63.2853V115.675L63.1053 115.465L61.2003 118H59.3703L62.0553 114.565L59.6103 111.685H61.3803L63.2853 114.025V111.685ZM70.4929 111.685H75.2329V116.65H76.1929V119.8H74.8429V118H70.4329V119.8H69.0829V116.65C69.6529 116.62 70.0429 116.215 70.2379 115.825C70.4179 115.435 70.4929 114.925 70.4929 114.16V111.685ZM73.7629 116.65V113.035H71.9029V114.715C71.9029 115.81 71.5579 116.35 71.1679 116.65H73.7629ZM81.6729 115.87L82.9029 116.56C82.6329 117.04 82.2429 117.46 81.8379 117.715C81.3279 118.045 80.6529 118.195 79.9779 118.195C79.1379 118.195 78.4479 117.985 77.8479 117.385C77.2479 116.785 76.9179 115.915 76.9179 114.97C76.9179 113.995 77.2629 113.05 77.9229 112.375C78.4479 111.85 79.1379 111.52 80.0379 111.52C81.0429 111.52 81.6879 111.955 82.0629 112.345C82.8729 113.185 82.9479 114.355 82.9479 115.015V115.195H78.4179C78.4479 115.645 78.6429 116.155 78.9579 116.47C79.3029 116.815 79.7229 116.875 80.0829 116.875C80.4879 116.875 80.7879 116.785 81.0879 116.56C81.3429 116.365 81.5379 116.11 81.6729 115.87ZM78.5229 113.995H81.4479C81.3879 113.65 81.2229 113.35 80.9979 113.14C80.8029 112.96 80.4879 112.78 80.0079 112.78C79.4979 112.78 79.1679 112.99 78.9729 113.185C78.7629 113.38 78.5979 113.68 78.5229 113.995ZM84.4842 118V111.685H85.9542V114.025H88.5642V111.685H90.0342V118H88.5642V115.375H85.9542V118H84.4842ZM91.8963 111.685H93.3663V115.27L97.6863 111.115V118H96.2163V114.325L91.8963 118.48V111.685ZM103.968 115.87L105.198 116.56C104.928 117.04 104.538 117.46 104.133 117.715C103.623 118.045 102.948 118.195 102.273 118.195C101.433 118.195 100.743 117.985 100.143 117.385C99.5428 116.785 99.2128 115.915 99.2128 114.97C99.2128 113.995 99.5578 113.05 100.218 112.375C100.743 111.85 101.433 111.52 102.333 111.52C103.338 111.52 103.983 111.955 104.358 112.345C105.168 113.185 105.243 114.355 105.243 115.015V115.195H100.713C100.743 115.645 100.938 116.155 101.253 116.47C101.598 116.815 102.018 116.875 102.378 116.875C102.783 116.875 103.083 116.785 103.383 116.56C103.638 116.365 103.833 116.11 103.968 115.87ZM100.818 113.995H103.743C103.683 113.65 103.518 113.35 103.293 113.14C103.098 112.96 102.783 112.78 102.303 112.78C101.793 112.78 101.463 112.99 101.268 113.185C101.058 113.38 100.893 113.68 100.818 113.995ZM115.17 111.97V113.62C114.495 112.96 113.835 112.84 113.385 112.84C112.695 112.84 112.26 113.125 111.99 113.395C111.72 113.665 111.45 114.145 111.45 114.85C111.45 115.585 111.735 116.08 112.02 116.365C112.35 116.68 112.815 116.875 113.355 116.875C113.955 116.875 114.66 116.635 115.17 116.065V117.7C114.81 117.925 114.225 118.195 113.25 118.195C112.2 118.195 111.45 117.895 110.85 117.265C110.4 116.8 109.95 116.05 109.95 114.895C109.95 113.71 110.445 112.915 110.91 112.45C111.405 111.955 112.2 111.52 113.445 111.52C113.925 111.52 114.495 111.595 115.17 111.97ZM116.579 111.685H119.054C119.429 111.685 120.014 111.7 120.494 112.06C120.719 112.24 121.079 112.615 121.079 113.275C121.079 113.785 120.839 114.25 120.329 114.505C120.629 114.565 120.944 114.715 121.184 114.925C121.469 115.18 121.679 115.57 121.679 116.14C121.679 116.905 121.304 117.34 120.989 117.58C120.464 117.97 119.819 118 119.534 118H116.579V111.685ZM118.049 114.145H118.799C119.144 114.145 119.339 114.04 119.384 114.01C119.624 113.86 119.669 113.65 119.669 113.5C119.669 113.275 119.564 113.11 119.414 113.005C119.219 112.87 118.994 112.885 118.769 112.885H118.049V114.145ZM118.049 116.8H119.144C119.384 116.8 119.684 116.77 119.909 116.62C120.044 116.53 120.209 116.35 120.209 116.065C120.209 115.78 120.074 115.6 119.924 115.51C119.699 115.36 119.399 115.345 119.189 115.345H118.049V116.8ZM123.215 111.685H124.685V115.27L129.005 111.115V118H127.535V114.325L123.215 118.48V111.685ZM130.861 118V111.685H132.331V114.025H134.941V111.685H136.411V118H134.941V115.375H132.331V118H130.861ZM141.693 118V115.555C141.093 115.675 140.613 115.69 140.403 115.69C139.908 115.69 139.248 115.63 138.738 115.225C138.153 114.76 138.123 114.13 138.123 113.71V111.685H139.593V113.41C139.593 113.785 139.668 114.1 139.968 114.28C140.193 114.415 140.553 114.43 140.703 114.43C141.093 114.43 141.408 114.37 141.693 114.265V111.685H143.163V118H141.693ZM145.026 111.685H146.496V115.27L150.816 111.115V118H149.346V114.325L145.026 118.48V111.685ZM152.673 111.685H155.148C155.523 111.685 156.108 111.7 156.588 112.06C156.813 112.24 157.173 112.615 157.173 113.275C157.173 113.785 156.933 114.25 156.423 114.505C156.723 114.565 157.038 114.715 157.278 114.925C157.563 115.18 157.773 115.57 157.773 116.14C157.773 116.905 157.398 117.34 157.083 117.58C156.558 117.97 155.913 118 155.628 118H152.673V111.685ZM154.143 114.145H154.893C155.238 114.145 155.433 114.04 155.478 114.01C155.718 113.86 155.763 113.65 155.763 113.5C155.763 113.275 155.658 113.11 155.508 113.005C155.313 112.87 155.088 112.885 154.863 112.885H154.143V114.145ZM154.143 116.8H155.238C155.478 116.8 155.778 116.77 156.003 116.62C156.138 116.53 156.303 116.35 156.303 116.065C156.303 115.78 156.168 115.6 156.018 115.51C155.793 115.36 155.493 115.345 155.283 115.345H154.143V116.8ZM163.928 112.42V111.685H165.398V118H163.928V117.34C163.283 118.09 162.488 118.195 162.038 118.195C160.088 118.195 158.978 116.575 158.978 114.835C158.978 112.78 160.388 111.52 162.053 111.52C162.518 111.52 163.328 111.64 163.928 112.42ZM162.233 112.84C161.168 112.84 160.478 113.74 160.478 114.865C160.478 115.96 161.168 116.875 162.233 116.875C163.163 116.875 164.018 116.2 164.018 114.88C164.018 113.5 163.163 112.84 162.233 112.84ZM167.263 118V111.685H168.733V114.025H171.343V111.685H172.813V118H171.343V115.375H168.733V118H167.263ZM174.675 111.685H176.145V115.27L180.465 111.115V118H178.995V114.325L174.675 118.48V111.685ZM181.511 118L183.491 115.495C183.071 115.435 182.726 115.24 182.486 115.015C182.081 114.625 181.961 114.16 181.961 113.71C181.961 113.305 182.051 112.72 182.546 112.255C183.086 111.745 183.731 111.685 184.376 111.685H186.731V118H185.261V115.675H184.961L183.236 118H181.511ZM185.261 114.475V112.945H184.406C184.121 112.945 183.851 112.96 183.641 113.08C183.446 113.2 183.281 113.425 183.281 113.71C183.281 114.025 183.431 114.22 183.581 114.325C183.761 114.445 184.031 114.475 184.391 114.475H185.261ZM192.092 111.685H193.562V115.27L197.882 111.115V118H196.412V114.325L192.092 118.48V111.685ZM208.129 111.97V113.62C207.454 112.96 206.794 112.84 206.344 112.84C205.654 112.84 205.219 113.125 204.949 113.395C204.679 113.665 204.409 114.145 204.409 114.85C204.409 115.585 204.694 116.08 204.979 116.365C205.309 116.68 205.774 116.875 206.314 116.875C206.914 116.875 207.619 116.635 208.129 116.065V117.7C207.769 117.925 207.184 118.195 206.209 118.195C205.159 118.195 204.409 117.895 203.809 117.265C203.359 116.8 202.909 116.05 202.909 114.895C202.909 113.71 203.404 112.915 203.869 112.45C204.364 111.955 205.159 111.52 206.404 111.52C206.884 111.52 207.454 111.595 208.129 111.97ZM209.538 111.685H215.028V118H213.558V113.035H211.008V118H209.538V111.685ZM216.426 121.435L218.751 117.01L216.051 111.685H217.821L219.621 115.375L221.451 111.685H223.101L218.076 121.435H216.426ZM228.695 111.97V113.62C228.02 112.96 227.36 112.84 226.91 112.84C226.22 112.84 225.785 113.125 225.515 113.395C225.245 113.665 224.975 114.145 224.975 114.85C224.975 115.585 225.26 116.08 225.545 116.365C225.875 116.68 226.34 116.875 226.88 116.875C227.48 116.875 228.185 116.635 228.695 116.065V117.7C228.335 117.925 227.75 118.195 226.775 118.195C225.725 118.195 224.975 117.895 224.375 117.265C223.925 116.8 223.475 116.05 223.475 114.895C223.475 113.71 223.97 112.915 224.435 112.45C224.93 111.955 225.725 111.52 226.97 111.52C227.45 111.52 228.02 111.595 228.695 111.97ZM230.104 111.685H231.574V113.935L233.674 111.685H235.624L232.864 114.445L235.774 118H233.914L231.814 115.405L231.574 115.645V118H230.104V111.685ZM241.36 112.42V111.685H242.83V118H241.36V117.34C240.715 118.09 239.92 118.195 239.47 118.195C237.52 118.195 236.41 116.575 236.41 114.835C236.41 112.78 237.82 111.52 239.485 111.52C239.95 111.52 240.76 111.64 241.36 112.42ZM239.665 112.84C238.6 112.84 237.91 113.74 237.91 114.865C237.91 115.96 238.6 116.875 239.665 116.875C240.595 116.875 241.45 116.2 241.45 114.88C241.45 113.5 240.595 112.84 239.665 112.84ZM39.5702 133.52C41.4752 133.52 42.9452 134.9 42.9452 136.85C42.9452 138.785 41.4752 140.195 39.5702 140.195C37.6652 140.195 36.1952 138.785 36.1952 136.85C36.1952 134.9 37.6652 133.52 39.5702 133.52ZM39.5702 138.875C40.7252 138.875 41.4452 138.08 41.4452 136.865C41.4452 135.425 40.5002 134.84 39.5702 134.84C38.6402 134.84 37.6952 135.425 37.6952 136.865C37.6952 138.08 38.4152 138.875 39.5702 138.875ZM49.2493 129.35H50.7493C50.5393 130.385 49.7893 131.195 48.7693 131.48L47.7793 131.75C47.1943 131.915 46.5943 132.08 46.1443 132.695C45.7993 133.16 45.6343 133.895 45.6193 134.405H45.6343C46.1893 133.655 47.1643 133.52 47.7793 133.52C48.7393 133.52 49.4593 133.88 49.9843 134.42C50.5243 134.975 50.8993 135.8 50.8993 136.82C50.8993 138.8 49.4293 140.195 47.5243 140.195C46.4143 140.195 45.6493 139.775 45.2143 139.355C44.1793 138.38 44.1493 136.985 44.1493 136.115C44.1493 134.225 44.3893 132.83 45.1093 131.78C45.5743 131.09 46.1443 130.64 46.9993 130.43L48.0493 130.175C48.9643 129.95 49.1743 129.605 49.2493 129.35ZM47.5243 138.875C48.6793 138.875 49.3993 138.08 49.3993 136.865C49.3993 135.425 48.4543 134.84 47.5243 134.84C46.5943 134.84 45.6493 135.425 45.6493 136.865C45.6493 138.08 46.3693 138.875 47.5243 138.875ZM57.3234 133.97V135.62C56.6484 134.96 55.9884 134.84 55.5384 134.84C54.8484 134.84 54.4134 135.125 54.1434 135.395C53.8734 135.665 53.6034 136.145 53.6034 136.85C53.6034 137.585 53.8884 138.08 54.1734 138.365C54.5034 138.68 54.9684 138.875 55.5084 138.875C56.1084 138.875 56.8134 138.635 57.3234 138.065V139.7C56.9634 139.925 56.3784 140.195 55.4034 140.195C54.3534 140.195 53.6034 139.895 53.0034 139.265C52.5534 138.8 52.1034 138.05 52.1034 136.895C52.1034 135.71 52.5984 134.915 53.0634 134.45C53.5584 133.955 54.3534 133.52 55.5984 133.52C56.0784 133.52 56.6484 133.595 57.3234 133.97ZM63.3522 134.42V133.685H64.8222V140H63.3522V139.34C62.7072 140.09 61.9122 140.195 61.4622 140.195C59.5122 140.195 58.4022 138.575 58.4022 136.835C58.4022 134.78 59.8122 133.52 61.4772 133.52C61.9422 133.52 62.7522 133.64 63.3522 134.42ZM61.6572 134.84C60.5922 134.84 59.9022 135.74 59.9022 136.865C59.9022 137.96 60.5922 138.875 61.6572 138.875C62.5872 138.875 63.4422 138.2 63.4422 136.88C63.4422 135.5 62.5872 134.84 61.6572 134.84ZM67.2263 133.685H71.9663V138.65H72.9263V141.8H71.5763V140H67.1663V141.8H65.8163V138.65C66.3863 138.62 66.7763 138.215 66.9713 137.825C67.1513 137.435 67.2263 136.925 67.2263 136.16V133.685ZM70.4963 138.65V135.035H68.6363V136.715C68.6363 137.81 68.2913 138.35 67.9013 138.65H70.4963ZM73.9813 140V133.685H75.4513V136.025H78.0613V133.685H79.5313V140H78.0613V137.375H75.4513V140H73.9813ZM81.3934 140V133.685H82.8634V135.92H83.7034C84.3184 135.92 85.0384 135.935 85.6084 136.565C86.0284 137.03 86.1034 137.57 86.1034 137.945C86.1034 138.68 85.8184 139.175 85.5334 139.46C84.9784 140 84.3184 140 83.6884 140H81.3934ZM82.8634 138.74H83.5384C83.8234 138.74 84.1084 138.725 84.3034 138.605C84.4084 138.53 84.6334 138.35 84.6334 137.96C84.6334 137.645 84.4984 137.45 84.3184 137.33C84.0784 137.18 83.7784 137.18 83.5534 137.18H82.8634V138.74ZM86.7634 140V133.685H88.2334V140H86.7634ZM89.2546 140L92.0446 136.58L89.7946 133.685H91.5346L92.9296 135.53L94.3396 133.685H96.1396L93.8146 136.58L96.5146 140H94.7446L92.9296 137.645L91.0546 140H89.2546ZM101.037 133.685H102.507V135.935L104.607 133.685H106.557L103.797 136.445L106.707 140H104.847L102.747 137.405L102.507 137.645V140H101.037V133.685ZM110.571 133.52C112.476 133.52 113.946 134.9 113.946 136.85C113.946 138.785 112.476 140.195 110.571 140.195C108.666 140.195 107.196 138.785 107.196 136.85C107.196 134.9 108.666 133.52 110.571 133.52ZM110.571 138.875C111.726 138.875 112.446 138.08 112.446 136.865C112.446 135.425 111.501 134.84 110.571 134.84C109.641 134.84 108.696 135.425 108.696 136.865C108.696 138.08 109.416 138.875 110.571 138.875ZM120.67 133.685V140H119.2V135.035H117.34V137.54C117.34 138.08 117.265 138.785 116.74 139.355C116.17 139.985 115.345 140.105 114.67 140V138.65C115.105 138.755 115.51 138.59 115.705 138.365C115.9 138.125 115.93 137.78 115.93 137.54V133.685H120.67ZM125.571 133.52C127.476 133.52 128.946 134.9 128.946 136.85C128.946 138.785 127.476 140.195 125.571 140.195C123.666 140.195 122.196 138.785 122.196 136.85C122.196 134.9 123.666 133.52 125.571 133.52ZM125.571 138.875C126.726 138.875 127.446 138.08 127.446 136.865C127.446 135.425 126.501 134.84 125.571 134.84C124.641 134.84 123.696 135.425 123.696 136.865C123.696 138.08 124.416 138.875 125.571 138.875ZM130.48 140V133.685H131.95V136.025H134.56V133.685H136.03V140H134.56V137.375H131.95V140H130.48ZM137.892 140V133.685H139.362V136.025H141.972V133.685H143.442V140H141.972V137.375H139.362V140H137.892ZM148.805 133.685H150.275V137.27L154.595 133.115V140H153.125V136.325L148.805 140.48V133.685ZM159.953 140V133.685H161.423V136.025H164.033V133.685H165.503V140H164.033V137.375H161.423V140H159.953ZM171.985 134.42V133.685H173.455V140H171.985V139.34C171.34 140.09 170.545 140.195 170.095 140.195C168.145 140.195 167.035 138.575 167.035 136.835C167.035 134.78 168.445 133.52 170.11 133.52C170.575 133.52 171.385 133.64 171.985 134.42ZM170.29 134.84C169.225 134.84 168.535 135.74 168.535 136.865C168.535 137.96 169.225 138.875 170.29 138.875C171.22 138.875 172.075 138.2 172.075 136.88C172.075 135.5 171.22 134.84 170.29 134.84ZM180.209 133.97V135.62C179.534 134.96 178.874 134.84 178.424 134.84C177.734 134.84 177.299 135.125 177.029 135.395C176.759 135.665 176.489 136.145 176.489 136.85C176.489 137.585 176.774 138.08 177.059 138.365C177.389 138.68 177.854 138.875 178.394 138.875C178.994 138.875 179.699 138.635 180.209 138.065V139.7C179.849 139.925 179.264 140.195 178.289 140.195C177.239 140.195 176.489 139.895 175.889 139.265C175.439 138.8 174.989 138.05 174.989 136.895C174.989 135.71 175.484 134.915 175.949 134.45C176.444 133.955 177.239 133.52 178.484 133.52C178.964 133.52 179.534 133.595 180.209 133.97ZM184.663 133.52C186.568 133.52 188.038 134.9 188.038 136.85C188.038 138.785 186.568 140.195 184.663 140.195C182.758 140.195 181.288 138.785 181.288 136.85C181.288 134.9 182.758 133.52 184.663 133.52ZM184.663 138.875C185.818 138.875 186.538 138.08 186.538 136.865C186.538 135.425 185.593 134.84 184.663 134.84C183.733 134.84 182.788 135.425 182.788 136.865C182.788 138.08 183.508 138.875 184.663 138.875ZM194.462 133.97V135.62C193.787 134.96 193.127 134.84 192.677 134.84C191.987 134.84 191.552 135.125 191.282 135.395C191.012 135.665 190.742 136.145 190.742 136.85C190.742 137.585 191.027 138.08 191.312 138.365C191.642 138.68 192.107 138.875 192.647 138.875C193.247 138.875 193.952 138.635 194.462 138.065V139.7C194.102 139.925 193.517 140.195 192.542 140.195C191.492 140.195 190.742 139.895 190.142 139.265C189.692 138.8 189.242 138.05 189.242 136.895C189.242 135.71 189.737 134.915 190.202 134.45C190.697 133.955 191.492 133.52 192.737 133.52C193.217 133.52 193.787 133.595 194.462 133.97ZM195.871 140V133.685H197.341V136.025H199.951V133.685H201.421V140H199.951V137.375H197.341V140H195.871ZM206.328 133.52C208.233 133.52 209.703 134.9 209.703 136.85C209.703 138.785 208.233 140.195 206.328 140.195C204.423 140.195 202.953 138.785 202.953 136.85C202.953 134.9 204.423 133.52 206.328 133.52ZM206.328 138.875C207.483 138.875 208.203 138.08 208.203 136.865C208.203 135.425 207.258 134.84 206.328 134.84C205.398 134.84 204.453 135.425 204.453 136.865C204.453 138.08 205.173 138.875 206.328 138.875ZM211.057 137.57V136.04H214.657V137.57H211.057ZM22.5872 155.685H24.0572V157.935L26.1572 155.685H28.1072L25.3472 158.445L28.2572 162H26.3972L24.2972 159.405L24.0572 159.645V162H22.5872V155.685ZM32.1215 155.52C34.0265 155.52 35.4965 156.9 35.4965 158.85C35.4965 160.785 34.0265 162.195 32.1215 162.195C30.2165 162.195 28.7465 160.785 28.7465 158.85C28.7465 156.9 30.2165 155.52 32.1215 155.52ZM32.1215 160.875C33.2765 160.875 33.9965 160.08 33.9965 158.865C33.9965 157.425 33.0515 156.84 32.1215 156.84C31.1915 156.84 30.2465 157.425 30.2465 158.865C30.2465 160.08 30.9665 160.875 32.1215 160.875ZM36.3106 162L37.8406 155.115L40.4506 159.93L43.0606 155.115L44.5906 162H43.0906L42.4606 158.835L40.4506 162.48L38.4406 158.835L37.8106 162H36.3106ZM45.7318 155.685H51.2218V162H49.7518V157.035H47.2018V162H45.7318V155.685ZM54.5553 161.265V165.435H53.0853V155.685H54.5553V156.375C55.0953 155.73 55.8003 155.52 56.4303 155.52C58.0953 155.52 59.5053 156.795 59.5053 158.805C59.5053 160.935 57.9453 162.195 56.4453 162.195C56.1003 162.195 55.2153 162.075 54.5553 161.265ZM56.2503 156.84C55.3203 156.84 54.4653 157.5 54.4653 158.88C54.4653 160.2 55.3203 160.875 56.2503 160.875C57.3153 160.875 58.0053 159.96 58.0053 158.865C58.0053 157.74 57.3153 156.84 56.2503 156.84ZM65.4644 159.87L66.6944 160.56C66.4244 161.04 66.0344 161.46 65.6294 161.715C65.1194 162.045 64.4444 162.195 63.7694 162.195C62.9294 162.195 62.2394 161.985 61.6394 161.385C61.0394 160.785 60.7094 159.915 60.7094 158.97C60.7094 157.995 61.0544 157.05 61.7144 156.375C62.2394 155.85 62.9294 155.52 63.8294 155.52C64.8344 155.52 65.4794 155.955 65.8544 156.345C66.6644 157.185 66.7394 158.355 66.7394 159.015V159.195H62.2094C62.2394 159.645 62.4344 160.155 62.7494 160.47C63.0944 160.815 63.5144 160.875 63.8744 160.875C64.2794 160.875 64.5794 160.785 64.8794 160.56C65.1344 160.365 65.3294 160.11 65.4644 159.87ZM62.3144 157.995H65.2394C65.1794 157.65 65.0144 157.35 64.7894 157.14C64.5944 156.96 64.2794 156.78 63.7994 156.78C63.2894 156.78 62.9594 156.99 62.7644 157.185C62.5544 157.38 62.3894 157.68 62.3144 157.995ZM73.1657 155.97V157.62C72.4907 156.96 71.8307 156.84 71.3807 156.84C70.6907 156.84 70.2557 157.125 69.9857 157.395C69.7157 157.665 69.4457 158.145 69.4457 158.85C69.4457 159.585 69.7307 160.08 70.0157 160.365C70.3457 160.68 70.8107 160.875 71.3507 160.875C71.9507 160.875 72.6557 160.635 73.1657 160.065V161.7C72.8057 161.925 72.2207 162.195 71.2457 162.195C70.1957 162.195 69.4457 161.895 68.8457 161.265C68.3957 160.8 67.9457 160.05 67.9457 158.895C67.9457 157.71 68.4407 156.915 68.9057 156.45C69.4007 155.955 70.1957 155.52 71.4407 155.52C71.9207 155.52 72.4907 155.595 73.1657 155.97ZM79.4645 155.97V157.62C78.7895 156.96 78.1295 156.84 77.6795 156.84C76.9895 156.84 76.5545 157.125 76.2845 157.395C76.0145 157.665 75.7445 158.145 75.7445 158.85C75.7445 159.585 76.0295 160.08 76.3145 160.365C76.6445 160.68 77.1095 160.875 77.6495 160.875C78.2495 160.875 78.9545 160.635 79.4645 160.065V161.7C79.1045 161.925 78.5195 162.195 77.5445 162.195C76.4945 162.195 75.7445 161.895 75.1445 161.265C74.6945 160.8 74.2445 160.05 74.2445 158.895C74.2445 157.71 74.7395 156.915 75.2045 156.45C75.6995 155.955 76.4945 155.52 77.7395 155.52C78.2195 155.52 78.7895 155.595 79.4645 155.97ZM83.9184 155.52C85.8234 155.52 87.2934 156.9 87.2934 158.85C87.2934 160.785 85.8234 162.195 83.9184 162.195C82.0134 162.195 80.5434 160.785 80.5434 158.85C80.5434 156.9 82.0134 155.52 83.9184 155.52ZM83.9184 160.875C85.0734 160.875 85.7934 160.08 85.7934 158.865C85.7934 157.425 84.8484 156.84 83.9184 156.84C82.9884 156.84 82.0434 157.425 82.0434 158.865C82.0434 160.08 82.7634 160.875 83.9184 160.875ZM90.2975 161.265V165.435H88.8275V155.685H90.2975V156.375C90.8375 155.73 91.5425 155.52 92.1725 155.52C93.8375 155.52 95.2475 156.795 95.2475 158.805C95.2475 160.935 93.6875 162.195 92.1875 162.195C91.8425 162.195 90.9575 162.075 90.2975 161.265ZM91.9925 156.84C91.0625 156.84 90.2075 157.5 90.2075 158.88C90.2075 160.2 91.0625 160.875 91.9925 160.875C93.0575 160.875 93.7475 159.96 93.7475 158.865C93.7475 157.74 93.0575 156.84 91.9925 156.84ZM96.7816 162V155.685H98.2516V158.025H100.862V155.685H102.332V162H100.862V159.375H98.2516V162H96.7816ZM104.194 162V155.685H105.664V157.92H106.504C107.119 157.92 107.839 157.935 108.409 158.565C108.829 159.03 108.904 159.57 108.904 159.945C108.904 160.68 108.619 161.175 108.334 161.46C107.779 162 107.119 162 106.489 162H104.194ZM105.664 160.74H106.339C106.624 160.74 106.909 160.725 107.104 160.605C107.209 160.53 107.434 160.35 107.434 159.96C107.434 159.645 107.299 159.45 107.119 159.33C106.879 159.18 106.579 159.18 106.354 159.18H105.664V160.74ZM109.564 162V155.685H111.034V162H109.564ZM112.055 162L114.845 158.58L112.595 155.685H114.335L115.73 157.53L117.14 155.685H118.94L116.615 158.58L119.315 162H117.545L115.73 159.645L113.855 162H112.055ZM128.187 157.035H126.342V162H124.872V157.035H123.027V155.685H128.187V157.035ZM130.713 161.265V165.435H129.243V155.685H130.713V156.375C131.253 155.73 131.958 155.52 132.588 155.52C134.253 155.52 135.663 156.795 135.663 158.805C135.663 160.935 134.103 162.195 132.603 162.195C132.258 162.195 131.373 162.075 130.713 161.265ZM132.408 156.84C131.478 156.84 130.623 157.5 130.623 158.88C130.623 160.2 131.478 160.875 132.408 160.875C133.473 160.875 134.163 159.96 134.163 158.865C134.163 157.74 133.473 156.84 132.408 156.84ZM136.732 165.435L139.057 161.01L136.357 155.685H138.127L139.927 159.375L141.757 155.685H143.407L138.382 165.435H136.732ZM149.203 151.35H150.703C150.493 152.385 149.743 153.195 148.723 153.48L147.733 153.75C147.148 153.915 146.548 154.08 146.098 154.695C145.753 155.16 145.588 155.895 145.573 156.405H145.588C146.143 155.655 147.118 155.52 147.733 155.52C148.693 155.52 149.413 155.88 149.938 156.42C150.478 156.975 150.853 157.8 150.853 158.82C150.853 160.8 149.383 162.195 147.478 162.195C146.368 162.195 145.603 161.775 145.168 161.355C144.133 160.38 144.103 158.985 144.103 158.115C144.103 156.225 144.343 154.83 145.063 153.78C145.528 153.09 146.098 152.64 146.953 152.43L148.003 152.175C148.918 151.95 149.128 151.605 149.203 151.35ZM147.478 160.875C148.633 160.875 149.353 160.08 149.353 158.865C149.353 157.425 148.408 156.84 147.478 156.84C146.548 156.84 145.603 157.425 145.603 158.865C145.603 160.08 146.323 160.875 147.478 160.875ZM155.888 155.685H158.363C158.738 155.685 159.323 155.7 159.803 156.06C160.028 156.24 160.388 156.615 160.388 157.275C160.388 157.785 160.148 158.25 159.638 158.505C159.938 158.565 160.253 158.715 160.493 158.925C160.778 159.18 160.988 159.57 160.988 160.14C160.988 160.905 160.613 161.34 160.298 161.58C159.773 161.97 159.128 162 158.843 162H155.888V155.685ZM157.358 158.145H158.108C158.453 158.145 158.648 158.04 158.693 158.01C158.933 157.86 158.978 157.65 158.978 157.5C158.978 157.275 158.873 157.11 158.723 157.005C158.528 156.87 158.303 156.885 158.078 156.885H157.358V158.145ZM157.358 160.8H158.453C158.693 160.8 158.993 160.77 159.218 160.62C159.353 160.53 159.518 160.35 159.518 160.065C159.518 159.78 159.383 159.6 159.233 159.51C159.008 159.36 158.708 159.345 158.498 159.345H157.358V160.8ZM170.915 155.97V157.62C170.24 156.96 169.58 156.84 169.13 156.84C168.44 156.84 168.005 157.125 167.735 157.395C167.465 157.665 167.195 158.145 167.195 158.85C167.195 159.585 167.48 160.08 167.765 160.365C168.095 160.68 168.56 160.875 169.1 160.875C169.7 160.875 170.405 160.635 170.915 160.065V161.7C170.555 161.925 169.97 162.195 168.995 162.195C167.945 162.195 167.195 161.895 166.595 161.265C166.145 160.8 165.695 160.05 165.695 158.895C165.695 157.71 166.19 156.915 166.655 156.45C167.15 155.955 167.945 155.52 169.19 155.52C169.67 155.52 170.24 155.595 170.915 155.97ZM172.324 155.685H173.794V157.935L175.894 155.685H177.844L175.084 158.445L177.994 162H176.134L174.034 159.405L173.794 159.645V162H172.324V155.685ZM178.959 155.685H181.434C181.809 155.685 182.394 155.7 182.874 156.06C183.099 156.24 183.459 156.615 183.459 157.275C183.459 157.785 183.219 158.25 182.709 158.505C183.009 158.565 183.324 158.715 183.564 158.925C183.849 159.18 184.059 159.57 184.059 160.14C184.059 160.905 183.684 161.34 183.369 161.58C182.844 161.97 182.199 162 181.914 162H178.959V155.685ZM180.429 158.145H181.179C181.524 158.145 181.719 158.04 181.764 158.01C182.004 157.86 182.049 157.65 182.049 157.5C182.049 157.275 181.944 157.11 181.794 157.005C181.599 156.87 181.374 156.885 181.149 156.885H180.429V158.145ZM180.429 160.8H181.524C181.764 160.8 182.064 160.77 182.289 160.62C182.424 160.53 182.589 160.35 182.589 160.065C182.589 159.78 182.454 159.6 182.304 159.51C182.079 159.36 181.779 159.345 181.569 159.345H180.429V160.8ZM190.215 156.42V155.685H191.685V162H190.215V161.34C189.57 162.09 188.775 162.195 188.325 162.195C186.375 162.195 185.265 160.575 185.265 158.835C185.265 156.78 186.675 155.52 188.34 155.52C188.805 155.52 189.615 155.64 190.215 156.42ZM188.52 156.84C187.455 156.84 186.765 157.74 186.765 158.865C186.765 159.96 187.455 160.875 188.52 160.875C189.45 160.875 190.305 160.2 190.305 158.88C190.305 157.5 189.45 156.84 188.52 156.84ZM196.564 155.685H198.034V158.025L199.939 155.685H201.709L199.264 158.565L201.949 162H200.119L198.214 159.465L198.034 159.675V162H196.564V159.675L196.384 159.465L194.479 162H192.649L195.334 158.565L192.889 155.685H194.659L196.564 158.025V155.685ZM202.909 155.685H204.379V159.27L208.699 155.115V162H207.229V158.325L202.909 162.48V155.685ZM210.556 162V155.685H212.026V158.025H214.636V155.685H216.106V162H214.636V159.375H212.026V162H210.556ZM217.968 162V155.685H219.438V157.92H220.278C220.893 157.92 221.613 157.935 222.183 158.565C222.603 159.03 222.678 159.57 222.678 159.945C222.678 160.68 222.393 161.175 222.108 161.46C221.553 162 220.893 162 220.263 162H217.968ZM219.438 160.74H220.113C220.398 160.74 220.683 160.725 220.878 160.605C220.983 160.53 221.208 160.35 221.208 159.96C221.208 159.645 221.073 159.45 220.893 159.33C220.653 159.18 220.353 159.18 220.128 159.18H219.438V160.74ZM223.338 162V155.685H224.808V162H223.338ZM226.639 161.28C226.639 160.785 227.044 160.38 227.539 160.38C228.034 160.38 228.439 160.785 228.439 161.28C228.439 161.775 228.034 162.18 227.539 162.18C227.044 162.18 226.639 161.775 226.639 161.28Z" fill="#666666"/>
</svg>
