<svg width="251" height="168" viewBox="0 0 251 168" fill="none" xmlns="http://www.w3.org/2000/svg">
<path d="M11.5269 5.994H21.6249V18H18.8529V8.334H14.2989V18H11.5269V5.994ZM31.0395 5.994V8.334H27.0255V10.656H30.8415V12.996H27.0255V15.66H31.0395V18H24.2535V5.994H31.0395ZM33.2886 5.994H37.5186C38.5626 5.994 39.7146 6.138 40.6686 6.984C41.6946 7.884 41.8386 9.072 41.8386 9.9C41.8386 11.412 41.2626 12.258 40.8126 12.726C39.8586 13.698 38.5986 13.788 37.7526 13.788H36.0606V18H33.2886V5.994ZM36.0606 8.262V11.52H37.0506C37.4286 11.52 38.0946 11.502 38.5446 11.07C38.7966 10.818 38.9946 10.404 38.9946 9.882C38.9946 9.378 38.8146 8.964 38.5446 8.712C38.1306 8.316 37.5366 8.262 36.9966 8.262H36.0606ZM52.2654 14.436V17.622C51.2034 18.162 50.3394 18.27 49.6194 18.27C47.4054 18.27 45.9114 17.514 44.9034 16.524C43.8234 15.48 43.0314 13.896 43.0314 11.97C43.0314 10.08 43.8234 8.496 44.9034 7.452C45.9654 6.426 47.5134 5.724 49.3854 5.724C50.1774 5.724 51.0954 5.886 52.2654 6.39V9.594C51.6534 8.946 50.7354 8.316 49.4574 8.316C48.4494 8.316 47.6394 8.64 47.0094 9.252C46.3434 9.9 45.8754 10.872 45.8754 12.024C45.8754 13.266 46.3794 14.148 46.9194 14.67C47.1714 14.922 48.0354 15.678 49.5114 15.678C50.2314 15.678 51.2034 15.48 52.2654 14.436ZM60.4818 5.724C62.3538 5.724 63.9198 6.3 65.1258 7.47C66.2598 8.568 66.9978 10.152 66.9978 12.006C66.9978 13.608 66.4218 15.246 65.1258 16.506C64.0098 17.586 62.4978 18.27 60.4818 18.27C58.2318 18.27 56.7018 17.37 55.8018 16.506C54.6498 15.426 53.9298 13.806 53.9298 12.042C53.9298 10.314 54.7038 8.568 55.7838 7.488C56.5938 6.678 58.0878 5.724 60.4818 5.724ZM60.4638 8.28C59.4198 8.28 58.4838 8.658 57.8358 9.306C57.3138 9.81 56.7738 10.692 56.7738 12.024C56.7738 13.122 57.1338 14.004 57.8718 14.724C58.6458 15.462 59.5098 15.714 60.4458 15.714C61.6698 15.714 62.5338 15.264 63.1098 14.688C63.5778 14.238 64.1538 13.392 64.1538 12.006C64.1538 10.764 63.6498 9.846 63.1098 9.306C62.5158 8.73 61.5618 8.28 60.4638 8.28ZM71.8321 5.994V10.566H76.6201V5.994H79.3921V18H76.6201V12.906H71.8321V18H69.0601V5.994H71.8321ZM89.9712 18L89.0712 15.732H84.5352L83.6172 18H80.7372L85.5792 5.994H88.1172L92.8512 18H89.9712ZM85.3452 13.608H88.3152L86.8392 9.576L85.3452 13.608ZM95.7715 5.994H104.502V18H101.73V8.334H98.4715V12.456C98.4715 14.508 98.2195 16.218 97.2655 17.19C96.7615 17.694 95.9335 18.144 94.5655 18.144C94.1515 18.144 93.7915 18.09 93.4495 18V15.516C93.6475 15.588 93.8815 15.624 94.1335 15.624C94.6015 15.624 94.9975 15.462 95.2315 15.228C95.7355 14.724 95.7715 13.662 95.7715 12.708V5.994ZM107.134 18V5.994H109.906V10.674H111.598C112.624 10.674 113.938 10.782 114.892 11.682C115.756 12.492 115.9 13.554 115.9 14.346C115.9 15.138 115.756 16.2 114.928 16.992C113.938 17.928 112.516 18 111.508 18H107.134ZM109.906 12.906V15.768H111.13C111.616 15.768 112.192 15.714 112.57 15.444C112.786 15.3 113.092 14.958 113.092 14.328C113.092 13.572 112.678 13.248 112.588 13.194C112.39 13.05 112.012 12.906 111.148 12.906H109.906ZM120.453 5.994V10.566H125.241V5.994H128.013V18H125.241V12.906H120.453V18H117.681V5.994H120.453ZM140.482 5.994H143.254V18H140.482V5.994ZM130.636 18V5.994H133.408V10.674H135.064C136.09 10.674 137.404 10.782 138.358 11.682C139.222 12.492 139.366 13.554 139.366 14.346C139.366 15.138 139.222 16.2 138.394 16.992C137.404 17.928 135.982 18 134.974 18H130.636ZM133.408 12.906V15.768H134.632C135.118 15.768 135.694 15.714 136.072 15.444C136.288 15.3 136.594 14.958 136.594 14.328C136.594 13.572 136.18 13.248 136.09 13.194C135.892 13.05 135.514 12.906 134.65 12.906H133.408ZM152.663 5.994V8.334H148.649V10.656H152.465V12.996H148.649V15.66H152.663V18H145.877V5.994H152.663ZM157.871 5.994H160.967L163.487 11.538L165.899 5.994H168.887L163.397 18H160.409L162.155 14.544L157.871 5.994ZM178.828 14.436V17.622C177.766 18.162 176.902 18.27 176.182 18.27C173.968 18.27 172.474 17.514 171.466 16.524C170.386 15.48 169.594 13.896 169.594 11.97C169.594 10.08 170.386 8.496 171.466 7.452C172.528 6.426 174.076 5.724 175.948 5.724C176.74 5.724 177.658 5.886 178.828 6.39V9.594C178.216 8.946 177.298 8.316 176.02 8.316C175.012 8.316 174.202 8.64 173.572 9.252C172.906 9.9 172.438 10.872 172.438 12.024C172.438 13.266 172.942 14.148 173.482 14.67C173.734 14.922 174.598 15.678 176.074 15.678C176.794 15.678 177.766 15.48 178.828 14.436ZM182.238 5.994H190.968V18H188.196V8.334H184.938V12.456C184.938 14.508 184.686 16.218 183.732 17.19C183.228 17.694 182.4 18.144 181.032 18.144C180.618 18.144 180.258 18.09 179.916 18V15.516C180.114 15.588 180.348 15.624 180.6 15.624C181.068 15.624 181.464 15.462 181.698 15.228C182.202 14.724 182.238 13.662 182.238 12.708V5.994ZM199.595 5.724C201.467 5.724 203.033 6.3 204.239 7.47C205.373 8.568 206.111 10.152 206.111 12.006C206.111 13.608 205.535 15.246 204.239 16.506C203.123 17.586 201.611 18.27 199.595 18.27C197.345 18.27 195.815 17.37 194.915 16.506C193.763 15.426 193.043 13.806 193.043 12.042C193.043 10.314 193.817 8.568 194.897 7.488C195.707 6.678 197.201 5.724 199.595 5.724ZM199.577 8.28C198.533 8.28 197.597 8.658 196.949 9.306C196.427 9.81 195.887 10.692 195.887 12.024C195.887 13.122 196.247 14.004 196.985 14.724C197.759 15.462 198.623 15.714 199.559 15.714C200.783 15.714 201.647 15.264 202.223 14.688C202.691 14.238 203.267 13.392 203.267 12.006C203.267 10.764 202.763 9.846 202.223 9.306C201.629 8.73 200.675 8.28 199.577 8.28ZM208.173 5.994H211.845C212.493 5.994 213.969 6.03 214.905 6.912C215.679 7.65 215.769 8.658 215.769 9.18C215.769 9.648 215.697 10.188 215.373 10.71C215.067 11.214 214.653 11.466 214.365 11.592C214.941 11.682 215.589 11.97 216.021 12.402C216.417 12.798 216.795 13.482 216.795 14.544C216.795 15.75 216.327 16.506 215.859 16.974C214.869 17.928 213.429 18 212.691 18H208.173V5.994ZM210.909 8.154V10.872H211.359C211.737 10.872 212.367 10.818 212.763 10.53C213.015 10.35 213.249 9.99 213.249 9.468C213.249 8.946 212.997 8.622 212.781 8.46C212.385 8.154 211.845 8.154 211.341 8.154H210.909ZM210.909 12.924V15.84H211.575C212.277 15.84 213.123 15.822 213.627 15.354C213.879 15.12 214.023 14.778 214.023 14.346C214.023 13.86 213.825 13.536 213.645 13.374C213.159 12.924 212.223 12.924 211.665 12.924H210.909ZM218.861 5.994H221.633V13.842L227.195 5.85H229.643V18H226.871V10.134L221.309 18.144H218.861V5.994ZM240.481 5.994V18H237.709V13.626H237.349L234.523 18H231.319L234.775 13.302C234.091 13.176 233.479 12.852 233.065 12.456C232.201 11.646 232.057 10.62 232.057 9.792C232.057 8.802 232.309 7.92 233.029 7.164C234.001 6.156 235.261 5.994 236.359 5.994H240.481ZM237.709 11.502V8.262H237.061C236.647 8.262 235.927 8.28 235.423 8.694C235.225 8.874 234.901 9.252 234.901 9.9C234.901 10.494 235.153 10.854 235.369 11.052C235.873 11.502 236.629 11.502 237.061 11.502H237.709Z" fill="#151515"/>
<path d="M64.3965 52.195L63.6465 51.445C62.8665 51.94 61.9965 52.195 60.8415 52.195C57.8415 52.195 55.6365 49.975 55.6365 47.005C55.6365 44.065 57.8415 41.815 60.8415 41.815C63.8265 41.815 66.0465 44.065 66.0465 47.005C66.0465 48.835 65.2365 49.975 64.6665 50.59L66.2865 52.195H64.3965ZM62.1015 48.04L63.6315 49.555C64.1115 49 64.5165 48.265 64.5165 47.005C64.5165 44.785 62.9865 43.225 60.8415 43.225C58.6965 43.225 57.1665 44.785 57.1665 47.005C57.1665 49.225 58.6965 50.785 60.8415 50.785C61.5915 50.785 62.1315 50.62 62.5665 50.395L60.1965 48.04H62.1015ZM72.3171 46.42V45.685H73.7871V52H72.3171V51.34C71.6721 52.09 70.8771 52.195 70.4271 52.195C68.4771 52.195 67.3671 50.575 67.3671 48.835C67.3671 46.78 68.7771 45.52 70.4421 45.52C70.9071 45.52 71.7171 45.64 72.3171 46.42ZM70.6221 46.84C69.5571 46.84 68.8671 47.74 68.8671 48.865C68.8671 49.96 69.5571 50.875 70.6221 50.875C71.5521 50.875 72.4071 50.2 72.4071 48.88C72.4071 47.5 71.5521 46.84 70.6221 46.84ZM81.5082 45.685L77.4432 50.65H81.1932V52H74.5482L78.6432 47.035H75.4182V45.685H81.5082ZM88.3553 41.995V43.435H84.3653V45.97H88.2353V47.41H84.3653V50.56H88.3553V52H82.8353V41.995H88.3553ZM89.2253 52L92.0153 48.58L89.7653 45.685H91.5053L92.9003 47.53L94.3103 45.685H96.1103L93.7853 48.58L96.4853 52H94.7153L92.9003 49.645L91.0253 52H89.2253ZM98.9767 51.265V55.435H97.5067V45.685H98.9767V46.375C99.5167 45.73 100.222 45.52 100.852 45.52C102.517 45.52 103.927 46.795 103.927 48.805C103.927 50.935 102.367 52.195 100.867 52.195C100.522 52.195 99.6367 52.075 98.9767 51.265ZM100.672 46.84C99.7417 46.84 98.8867 47.5 98.8867 48.88C98.8867 50.2 99.7417 50.875 100.672 50.875C101.737 50.875 102.427 49.96 102.427 48.865C102.427 47.74 101.737 46.84 100.672 46.84ZM108.506 45.52C110.411 45.52 111.881 46.9 111.881 48.85C111.881 50.785 110.411 52.195 108.506 52.195C106.601 52.195 105.131 50.785 105.131 48.85C105.131 46.9 106.601 45.52 108.506 45.52ZM108.506 50.875C109.661 50.875 110.381 50.08 110.381 48.865C110.381 47.425 109.436 46.84 108.506 46.84C107.576 46.84 106.631 47.425 106.631 48.865C106.631 50.08 107.351 50.875 108.506 50.875ZM121.095 42.535V44.335C119.985 43.33 118.95 43.225 118.38 43.225C116.205 43.225 114.735 44.83 114.735 47.035C114.735 49.15 116.265 50.785 118.395 50.785C119.595 50.785 120.525 50.17 121.095 49.63V51.445C120.09 52.045 119.04 52.195 118.35 52.195C116.535 52.195 115.395 51.37 114.81 50.815C113.64 49.72 113.205 48.445 113.205 47.035C113.205 45.19 113.97 43.915 114.81 43.12C115.845 42.145 117.045 41.815 118.425 41.815C119.34 41.815 120.225 41.98 121.095 42.535ZM127.142 49.87L128.372 50.56C128.102 51.04 127.712 51.46 127.307 51.715C126.797 52.045 126.122 52.195 125.447 52.195C124.607 52.195 123.917 51.985 123.317 51.385C122.717 50.785 122.387 49.915 122.387 48.97C122.387 47.995 122.732 47.05 123.392 46.375C123.917 45.85 124.607 45.52 125.507 45.52C126.512 45.52 127.157 45.955 127.532 46.345C128.342 47.185 128.417 48.355 128.417 49.015V49.195H123.887C123.917 49.645 124.112 50.155 124.427 50.47C124.772 50.815 125.192 50.875 125.552 50.875C125.957 50.875 126.257 50.785 126.557 50.56C126.812 50.365 127.007 50.11 127.142 49.87ZM123.992 47.995H126.917C126.857 47.65 126.692 47.35 126.467 47.14C126.272 46.96 125.957 46.78 125.477 46.78C124.967 46.78 124.637 46.99 124.442 47.185C124.232 47.38 124.067 47.68 123.992 47.995ZM129.938 52V45.685H131.408V46.27C132.038 45.565 132.758 45.52 133.118 45.52C134.288 45.52 134.783 46.105 134.978 46.375C135.218 46.72 135.368 47.155 135.368 48.13V52H133.898V48.49C133.898 46.885 133.298 46.84 132.743 46.84C132.083 46.84 131.408 46.93 131.408 48.97V52H129.938ZM139.873 47.035H138.748V52H137.278V47.035H136.663V45.685H137.278V43.375H138.748V45.685H139.873V47.035ZM140.866 52V45.685H142.336V46.255C142.501 46.06 142.741 45.85 142.951 45.73C143.236 45.565 143.521 45.52 143.851 45.52C144.211 45.52 144.601 45.58 145.006 45.82L144.406 47.155C144.076 46.945 143.806 46.93 143.656 46.93C143.341 46.93 143.026 46.975 142.741 47.275C142.336 47.71 142.336 48.31 142.336 48.73V52H140.866ZM149.803 49.87L151.033 50.56C150.763 51.04 150.373 51.46 149.968 51.715C149.458 52.045 148.783 52.195 148.108 52.195C147.268 52.195 146.578 51.985 145.978 51.385C145.378 50.785 145.048 49.915 145.048 48.97C145.048 47.995 145.393 47.05 146.053 46.375C146.578 45.85 147.268 45.52 148.168 45.52C149.173 45.52 149.818 45.955 150.193 46.345C151.003 47.185 151.078 48.355 151.078 49.015V49.195H146.548C146.578 49.645 146.773 50.155 147.088 50.47C147.433 50.815 147.853 50.875 148.213 50.875C148.618 50.875 148.918 50.785 149.218 50.56C149.473 50.365 149.668 50.11 149.803 49.87ZM146.653 47.995H149.578C149.518 47.65 149.353 47.35 149.128 47.14C148.933 46.96 148.618 46.78 148.138 46.78C147.628 46.78 147.298 46.99 147.103 47.185C146.893 47.38 146.728 47.68 146.653 47.995ZM153.21 49.57V48.04H156.81V49.57H153.21ZM158.758 41.995H160.963C161.578 41.995 162.433 42.055 163.153 42.535C163.993 43.09 164.398 44.05 164.398 44.965C164.398 45.55 164.248 46.45 163.423 47.155C162.628 47.83 161.713 47.935 160.978 47.935H160.288V52H158.758V41.995ZM160.288 43.405V46.525H160.978C162.298 46.525 162.928 45.88 162.928 44.95C162.928 44.395 162.703 43.405 160.963 43.405H160.288ZM165.695 45.685H167.165V52H165.695V45.685ZM165.485 43.075C165.485 42.535 165.89 42.13 166.43 42.13C166.97 42.13 167.375 42.535 167.375 43.075C167.375 43.615 166.97 44.02 166.43 44.02C165.89 44.02 165.485 43.615 165.485 43.075ZM170.49 51.265V55.435H169.02V45.685H170.49V46.375C171.03 45.73 171.735 45.52 172.365 45.52C174.03 45.52 175.44 46.795 175.44 48.805C175.44 50.935 173.88 52.195 172.38 52.195C172.035 52.195 171.15 52.075 170.49 51.265ZM172.185 46.84C171.255 46.84 170.4 47.5 170.4 48.88C170.4 50.2 171.255 50.875 172.185 50.875C173.25 50.875 173.94 49.96 173.94 48.865C173.94 47.74 173.25 46.84 172.185 46.84ZM181.399 49.87L182.629 50.56C182.359 51.04 181.969 51.46 181.564 51.715C181.054 52.045 180.379 52.195 179.704 52.195C178.864 52.195 178.174 51.985 177.574 51.385C176.974 50.785 176.644 49.915 176.644 48.97C176.644 47.995 176.989 47.05 177.649 46.375C178.174 45.85 178.864 45.52 179.764 45.52C180.769 45.52 181.414 45.955 181.789 46.345C182.599 47.185 182.674 48.355 182.674 49.015V49.195H178.144C178.174 49.645 178.369 50.155 178.684 50.47C179.029 50.815 179.449 50.875 179.809 50.875C180.214 50.875 180.514 50.785 180.814 50.56C181.069 50.365 181.264 50.11 181.399 49.87ZM178.249 47.995H181.174C181.114 47.65 180.949 47.35 180.724 47.14C180.529 46.96 180.214 46.78 179.734 46.78C179.224 46.78 178.894 46.99 178.699 47.185C178.489 47.38 178.324 47.68 178.249 47.995ZM187.832 49.48V48.13H195.032V49.48H187.832ZM12.9632 67.685H14.4332V69.935L16.5332 67.685H18.4832L15.7232 70.445L18.6332 74H16.7732L14.6732 71.405L14.4332 71.645V74H12.9632V67.685ZM24.9354 67.685V74H23.4654V69.035H21.6054V71.54C21.6054 72.08 21.5304 72.785 21.0054 73.355C20.4354 73.985 19.6104 74.105 18.9354 74V72.65C19.3704 72.755 19.7754 72.59 19.9704 72.365C20.1654 72.125 20.1954 71.78 20.1954 71.54V67.685H24.9354ZM26.7913 67.685H28.2613V71.27L32.5813 67.115V74H31.1113V70.325L26.7913 74.48V67.685ZM38.8628 71.87L40.0928 72.56C39.8228 73.04 39.4328 73.46 39.0278 73.715C38.5178 74.045 37.8428 74.195 37.1678 74.195C36.3278 74.195 35.6378 73.985 35.0378 73.385C34.4378 72.785 34.1078 71.915 34.1078 70.97C34.1078 69.995 34.4528 69.05 35.1128 68.375C35.6378 67.85 36.3278 67.52 37.2278 67.52C38.2328 67.52 38.8778 67.955 39.2528 68.345C40.0628 69.185 40.1378 70.355 40.1378 71.015V71.195H35.6078C35.6378 71.645 35.8328 72.155 36.1478 72.47C36.4928 72.815 36.9128 72.875 37.2728 72.875C37.6778 72.875 37.9778 72.785 38.2778 72.56C38.5328 72.365 38.7278 72.11 38.8628 71.87ZM35.7128 69.995H38.6378C38.5778 69.65 38.4128 69.35 38.1878 69.14C37.9928 68.96 37.6778 68.78 37.1978 68.78C36.6878 68.78 36.3578 68.99 36.1628 69.185C35.9528 69.38 35.7878 69.68 35.7128 69.995ZM41.6741 74V67.685H43.1441V70.025H45.7541V67.685H47.2241V74H45.7541V71.375H43.1441V74H41.6741ZM53.4363 69.035H51.5913V74H50.1213V69.035H48.2763V67.685H53.4363V69.035ZM57.3754 67.52C59.2804 67.52 60.7504 68.9 60.7504 70.85C60.7504 72.785 59.2804 74.195 57.3754 74.195C55.4704 74.195 54.0004 72.785 54.0004 70.85C54.0004 68.9 55.4704 67.52 57.3754 67.52ZM57.3754 72.875C58.5304 72.875 59.2504 72.08 59.2504 70.865C59.2504 69.425 58.3054 68.84 57.3754 68.84C56.4454 68.84 55.5004 69.425 55.5004 70.865C55.5004 72.08 56.2204 72.875 57.3754 72.875ZM65.3295 67.52C67.2345 67.52 68.7045 68.9 68.7045 70.85C68.7045 72.785 67.2345 74.195 65.3295 74.195C63.4245 74.195 61.9545 72.785 61.9545 70.85C61.9545 68.9 63.4245 67.52 65.3295 67.52ZM65.3295 72.875C66.4845 72.875 67.2045 72.08 67.2045 70.865C67.2045 69.425 66.2595 68.84 65.3295 68.84C64.3995 68.84 63.4545 69.425 63.4545 70.865C63.4545 72.08 64.1745 72.875 65.3295 72.875ZM71.7086 73.265V77.435H70.2386V67.685H71.7086V68.375C72.2486 67.73 72.9536 67.52 73.5836 67.52C75.2486 67.52 76.6586 68.795 76.6586 70.805C76.6586 72.935 75.0986 74.195 73.5986 74.195C73.2536 74.195 72.3686 74.075 71.7086 73.265ZM73.4036 68.84C72.4736 68.84 71.6186 69.5 71.6186 70.88C71.6186 72.2 72.4736 72.875 73.4036 72.875C74.4686 72.875 75.1586 71.96 75.1586 70.865C75.1586 69.74 74.4686 68.84 73.4036 68.84ZM78.1927 67.685H79.6627V71.27L83.9827 67.115V74H82.5127V70.325L78.1927 74.48V67.685ZM90.2642 71.87L91.4942 72.56C91.2242 73.04 90.8342 73.46 90.4292 73.715C89.9192 74.045 89.2442 74.195 88.5692 74.195C87.7292 74.195 87.0392 73.985 86.4392 73.385C85.8392 72.785 85.5092 71.915 85.5092 70.97C85.5092 69.995 85.8542 69.05 86.5142 68.375C87.0392 67.85 87.7292 67.52 88.6292 67.52C89.6342 67.52 90.2792 67.955 90.6542 68.345C91.4642 69.185 91.5392 70.355 91.5392 71.015V71.195H87.0092C87.0392 71.645 87.2342 72.155 87.5492 72.47C87.8942 72.815 88.3142 72.875 88.6742 72.875C89.0792 72.875 89.3792 72.785 89.6792 72.56C89.9342 72.365 90.1292 72.11 90.2642 71.87ZM87.1142 69.995H90.0392C89.9792 69.65 89.8142 69.35 89.5892 69.14C89.3942 68.96 89.0792 68.78 88.5992 68.78C88.0892 68.78 87.7592 68.99 87.5642 69.185C87.3542 69.38 87.1892 69.68 87.1142 69.995ZM93.0755 74V67.685H94.5455V70.025H97.1555V67.685H98.6255V74H97.1555V71.375H94.5455V74H93.0755ZM104.838 69.035H102.993V74H101.523V69.035H99.6776V67.685H104.838V69.035ZM105.893 67.685H107.363V71.27L111.683 67.115V74H110.213V70.325L105.893 74.48V67.685ZM115.009 73.265V77.435H113.539V67.685H115.009V68.375C115.549 67.73 116.254 67.52 116.884 67.52C118.549 67.52 119.959 68.795 119.959 70.805C119.959 72.935 118.399 74.195 116.899 74.195C116.554 74.195 115.669 74.075 115.009 73.265ZM116.704 68.84C115.774 68.84 114.919 69.5 114.919 70.88C114.919 72.2 115.774 72.875 116.704 72.875C117.769 72.875 118.459 71.96 118.459 70.865C118.459 69.74 117.769 68.84 116.704 68.84ZM124.538 67.52C126.443 67.52 127.913 68.9 127.913 70.85C127.913 72.785 126.443 74.195 124.538 74.195C122.633 74.195 121.163 72.785 121.163 70.85C121.163 68.9 122.633 67.52 124.538 67.52ZM124.538 72.875C125.693 72.875 126.413 72.08 126.413 70.865C126.413 69.425 125.468 68.84 124.538 68.84C123.608 68.84 122.663 69.425 122.663 70.865C122.663 72.08 123.383 72.875 124.538 72.875ZM129.448 67.685H131.923C132.298 67.685 132.883 67.7 133.363 68.06C133.588 68.24 133.948 68.615 133.948 69.275C133.948 69.785 133.708 70.25 133.198 70.505C133.498 70.565 133.813 70.715 134.053 70.925C134.338 71.18 134.548 71.57 134.548 72.14C134.548 72.905 134.173 73.34 133.858 73.58C133.333 73.97 132.688 74 132.403 74H129.448V67.685ZM130.918 70.145H131.668C132.013 70.145 132.208 70.04 132.253 70.01C132.493 69.86 132.538 69.65 132.538 69.5C132.538 69.275 132.433 69.11 132.283 69.005C132.088 68.87 131.863 68.885 131.638 68.885H130.918V70.145ZM130.918 72.8H132.013C132.253 72.8 132.553 72.77 132.778 72.62C132.913 72.53 133.078 72.35 133.078 72.065C133.078 71.78 132.943 71.6 132.793 71.51C132.568 71.36 132.268 71.345 132.058 71.345H130.918V72.8ZM140.703 68.42V67.685H142.173V74H140.703V73.34C140.058 74.09 139.263 74.195 138.813 74.195C136.863 74.195 135.753 72.575 135.753 70.835C135.753 68.78 137.163 67.52 138.828 67.52C139.293 67.52 140.103 67.64 140.703 68.42ZM139.008 68.84C137.943 68.84 137.253 69.74 137.253 70.865C137.253 71.96 137.943 72.875 139.008 72.875C139.938 72.875 140.793 72.2 140.793 70.88C140.793 69.5 139.938 68.84 139.008 68.84ZM144.037 74V67.685H145.507V70.025H148.117V67.685H149.587V74H148.117V71.375H145.507V74H144.037ZM151.45 74V67.685H152.92V70.025H155.53V67.685H157V74H155.53V71.375H152.92V74H151.45ZM163.482 68.42V67.685H164.952V74H163.482V73.34C162.837 74.09 162.042 74.195 161.592 74.195C159.642 74.195 158.532 72.575 158.532 70.835C158.532 68.78 159.942 67.52 161.607 67.52C162.072 67.52 162.882 67.64 163.482 68.42ZM161.787 68.84C160.722 68.84 160.032 69.74 160.032 70.865C160.032 71.96 160.722 72.875 161.787 72.875C162.717 72.875 163.572 72.2 163.572 70.88C163.572 69.5 162.717 68.84 161.787 68.84ZM166.006 74L167.986 71.495C167.566 71.435 167.221 71.24 166.981 71.015C166.576 70.625 166.456 70.16 166.456 69.71C166.456 69.305 166.546 68.72 167.041 68.255C167.581 67.745 168.226 67.685 168.871 67.685H171.226V74H169.756V71.675H169.456L167.731 74H166.006ZM169.756 70.475V68.945H168.901C168.616 68.945 168.346 68.96 168.136 69.08C167.941 69.2 167.776 69.425 167.776 69.71C167.776 70.025 167.926 70.22 168.076 70.325C168.256 70.445 168.526 70.475 168.886 70.475H169.756ZM176.586 67.685H178.056V69.935L180.156 67.685H182.106L179.346 70.445L182.256 74H180.396L178.296 71.405L178.056 71.645V74H176.586V67.685ZM186.121 67.52C188.026 67.52 189.496 68.9 189.496 70.85C189.496 72.785 188.026 74.195 186.121 74.195C184.216 74.195 182.746 72.785 182.746 70.85C182.746 68.9 184.216 67.52 186.121 67.52ZM186.121 72.875C187.276 72.875 187.996 72.08 187.996 70.865C187.996 69.425 187.051 68.84 186.121 68.84C185.191 68.84 184.246 69.425 184.246 70.865C184.246 72.08 184.966 72.875 186.121 72.875ZM190.31 74L191.84 67.115L194.45 71.93L197.06 67.115L198.59 74H197.09L196.46 70.835L194.45 74.48L192.44 70.835L191.81 74H190.31ZM199.731 67.685H205.221V74H203.751V69.035H201.201V74H199.731V67.685ZM211.704 68.42V67.685H213.174V74H211.704V73.34C211.059 74.09 210.264 74.195 209.814 74.195C207.864 74.195 206.754 72.575 206.754 70.835C206.754 68.78 208.164 67.52 209.829 67.52C210.294 67.52 211.104 67.64 211.704 68.42ZM210.009 68.84C208.944 68.84 208.254 69.74 208.254 70.865C208.254 71.96 208.944 72.875 210.009 72.875C210.939 72.875 211.794 72.2 211.794 70.88C211.794 69.5 210.939 68.84 210.009 68.84ZM215.038 74V67.685H216.508V70.025H219.118V67.685H220.588V74H219.118V71.375H216.508V74H215.038ZM222.451 67.685H223.921V71.27L228.241 67.115V74H226.771V70.325L222.451 74.48V67.685ZM229.287 74L231.267 71.495C230.847 71.435 230.502 71.24 230.262 71.015C229.857 70.625 229.737 70.16 229.737 69.71C229.737 69.305 229.827 68.72 230.322 68.255C230.862 67.745 231.507 67.685 232.152 67.685H234.507V74H233.037V71.675H232.737L231.012 74H229.287ZM233.037 70.475V68.945H232.182C231.897 68.945 231.627 68.96 231.417 69.08C231.222 69.2 231.057 69.425 231.057 69.71C231.057 70.025 231.207 70.22 231.357 70.325C231.537 70.445 231.807 70.475 232.167 70.475H233.037ZM235.362 75.935L236.892 72.125L238.212 72.635L236.352 76.34L235.362 75.935ZM9.16193 89.685H14.6519V96H13.1819V91.035H10.6319V96H9.16193V89.685ZM19.5604 89.52C21.4654 89.52 22.9354 90.9 22.9354 92.85C22.9354 94.785 21.4654 96.195 19.5604 96.195C17.6554 96.195 16.1854 94.785 16.1854 92.85C16.1854 90.9 17.6554 89.52 19.5604 89.52ZM19.5604 94.875C20.7154 94.875 21.4354 94.08 21.4354 92.865C21.4354 91.425 20.4904 90.84 19.5604 90.84C18.6304 90.84 17.6854 91.425 17.6854 92.865C17.6854 94.08 18.4054 94.875 19.5604 94.875ZM23.8173 91.245V89.85C24.4323 89.61 25.0623 89.52 25.6023 89.52C26.8623 89.52 27.6723 90 28.1223 90.45C28.5723 90.9 29.0373 91.665 29.0373 92.835C29.0373 93.75 28.7673 94.575 28.1073 95.25C27.5073 95.88 26.7723 96.195 25.7523 96.195C25.2123 96.195 24.5073 96.105 23.8173 95.835V94.44C24.5073 94.83 25.1373 94.875 25.5423 94.875C26.3373 94.875 26.7573 94.575 26.9673 94.365C27.2073 94.125 27.3723 93.765 27.4323 93.39H24.5073V92.16H27.3873C27.2973 91.68 27.0273 91.335 26.7573 91.155C26.3973 90.9 25.9173 90.84 25.5423 90.84C25.0023 90.84 24.4623 90.93 23.8173 91.245ZM34.9133 91.035H33.0683V96H31.5983V91.035H29.7533V89.685H34.9133V91.035ZM38.8524 89.52C40.7574 89.52 42.2274 90.9 42.2274 92.85C42.2274 94.785 40.7574 96.195 38.8524 96.195C36.9474 96.195 35.4774 94.785 35.4774 92.85C35.4774 90.9 36.9474 89.52 38.8524 89.52ZM38.8524 94.875C40.0074 94.875 40.7274 94.08 40.7274 92.865C40.7274 91.425 39.7824 90.84 38.8524 90.84C37.9224 90.84 36.9774 91.425 36.9774 92.865C36.9774 94.08 37.6974 94.875 38.8524 94.875ZM43.0415 96L44.5715 89.115L47.1815 93.93L49.7915 89.115L51.3215 96H49.8215L49.1915 92.835L47.1815 96.48L45.1715 92.835L44.5415 96H43.0415ZM51.9977 99.435L54.3227 95.01L51.6227 89.685H53.3927L55.1927 93.375L57.0227 89.685H58.6727L53.6477 99.435H51.9977ZM63.2 89.685H68.69V96H67.22V91.035H64.67V96H63.2V89.685ZM72.0235 95.265V99.435H70.5535V89.685H72.0235V90.375C72.5635 89.73 73.2685 89.52 73.8985 89.52C75.5635 89.52 76.9735 90.795 76.9735 92.805C76.9735 94.935 75.4135 96.195 73.9135 96.195C73.5685 96.195 72.6835 96.075 72.0235 95.265ZM73.7185 90.84C72.7885 90.84 71.9335 91.5 71.9335 92.88C71.9335 94.2 72.7885 94.875 73.7185 94.875C74.7835 94.875 75.4735 93.96 75.4735 92.865C75.4735 91.74 74.7835 90.84 73.7185 90.84ZM82.9326 93.87L84.1626 94.56C83.8926 95.04 83.5026 95.46 83.0976 95.715C82.5876 96.045 81.9126 96.195 81.2376 96.195C80.3976 96.195 79.7076 95.985 79.1076 95.385C78.5076 94.785 78.1776 93.915 78.1776 92.97C78.1776 91.995 78.5226 91.05 79.1826 90.375C79.7076 89.85 80.3976 89.52 81.2976 89.52C82.3026 89.52 82.9476 89.955 83.3226 90.345C84.1326 91.185 84.2076 92.355 84.2076 93.015V93.195H79.6776C79.7076 93.645 79.9026 94.155 80.2176 94.47C80.5626 94.815 80.9826 94.875 81.3426 94.875C81.7476 94.875 82.0476 94.785 82.3476 94.56C82.6026 94.365 82.7976 94.11 82.9326 93.87ZM79.7826 91.995H82.7076C82.6476 91.65 82.4826 91.35 82.2576 91.14C82.0626 90.96 81.7476 90.78 81.2676 90.78C80.7576 90.78 80.4276 90.99 80.2326 91.185C80.0226 91.38 79.8576 91.68 79.7826 91.995ZM86.284 89.685H91.024V94.65H91.984V97.8H90.634V96H86.224V97.8H84.874V94.65C85.444 94.62 85.834 94.215 86.029 93.825C86.209 93.435 86.284 92.925 86.284 92.16V89.685ZM89.554 94.65V91.035H87.694V92.715C87.694 93.81 87.349 94.35 86.959 94.65H89.554ZM98.5512 89.685V96H97.0812V91.035H95.2212V93.54C95.2212 94.08 95.1462 94.785 94.6212 95.355C94.0512 95.985 93.2262 96.105 92.5512 96V94.65C92.9862 94.755 93.3912 94.59 93.5862 94.365C93.7812 94.125 93.8112 93.78 93.8112 93.54V89.685H98.5512ZM105.027 90.42V89.685H106.497V96H105.027V95.34C104.382 96.09 103.587 96.195 103.137 96.195C101.187 96.195 100.077 94.575 100.077 92.835C100.077 90.78 101.487 89.52 103.152 89.52C103.617 89.52 104.427 89.64 105.027 90.42ZM103.332 90.84C102.267 90.84 101.577 91.74 101.577 92.865C101.577 93.96 102.267 94.875 103.332 94.875C104.262 94.875 105.117 94.2 105.117 92.88C105.117 91.5 104.262 90.84 103.332 90.84ZM108.361 96V89.685H112.231V91.035H109.831V96H108.361ZM117.757 90.42V89.685H119.227V96H117.757V95.34C117.112 96.09 116.317 96.195 115.867 96.195C113.917 96.195 112.807 94.575 112.807 92.835C112.807 90.78 114.217 89.52 115.882 89.52C116.347 89.52 117.157 89.64 117.757 90.42ZM116.062 90.84C114.997 90.84 114.307 91.74 114.307 92.865C114.307 93.96 114.997 94.875 116.062 94.875C116.992 94.875 117.847 94.2 117.847 92.88C117.847 91.5 116.992 90.84 116.062 90.84ZM125.516 93.87L126.746 94.56C126.476 95.04 126.086 95.46 125.681 95.715C125.171 96.045 124.496 96.195 123.821 96.195C122.981 96.195 122.291 95.985 121.691 95.385C121.091 94.785 120.761 93.915 120.761 92.97C120.761 91.995 121.106 91.05 121.766 90.375C122.291 89.85 122.981 89.52 123.881 89.52C124.886 89.52 125.531 89.955 125.906 90.345C126.716 91.185 126.791 92.355 126.791 93.015V93.195H122.261C122.291 93.645 122.486 94.155 122.801 94.47C123.146 94.815 123.566 94.875 123.926 94.875C124.331 94.875 124.631 94.785 124.931 94.56C125.186 94.365 125.381 94.11 125.516 93.87ZM122.366 91.995H125.291C125.231 91.65 125.066 91.35 124.841 91.14C124.646 90.96 124.331 90.78 123.851 90.78C123.341 90.78 123.011 90.99 122.816 91.185C122.606 91.38 122.441 91.68 122.366 91.995ZM127.607 96L129.137 89.115L131.747 93.93L134.357 89.115L135.887 96H134.387L133.757 92.835L131.747 96.48L129.737 92.835L129.107 96H127.607ZM140.529 89.685H141.999V93.27L146.319 89.115V96H144.849V92.325L140.529 96.48V89.685ZM148.176 96V89.685H149.646V92.025H152.256V89.685H153.726V96H152.256V93.375H149.646V96H148.176ZM156.128 89.685H160.868V94.65H161.828V97.8H160.478V96H156.068V97.8H154.718V94.65C155.288 94.62 155.678 94.215 155.873 93.825C156.053 93.435 156.128 92.925 156.128 92.16V89.685ZM159.398 94.65V91.035H157.538V92.715C157.538 93.81 157.193 94.35 156.803 94.65H159.398ZM162.883 89.685H164.353V93.27L168.673 89.115V96H167.203V92.325L162.883 96.48V89.685ZM170.529 89.685H173.004C173.379 89.685 173.964 89.7 174.444 90.06C174.669 90.24 175.029 90.615 175.029 91.275C175.029 91.785 174.789 92.25 174.279 92.505C174.579 92.565 174.894 92.715 175.134 92.925C175.419 93.18 175.629 93.57 175.629 94.14C175.629 94.905 175.254 95.34 174.939 95.58C174.414 95.97 173.769 96 173.484 96H170.529V89.685ZM171.999 92.145H172.749C173.094 92.145 173.289 92.04 173.334 92.01C173.574 91.86 173.619 91.65 173.619 91.5C173.619 91.275 173.514 91.11 173.364 91.005C173.169 90.87 172.944 90.885 172.719 90.885H171.999V92.145ZM171.999 94.8H173.094C173.334 94.8 173.634 94.77 173.859 94.62C173.994 94.53 174.159 94.35 174.159 94.065C174.159 93.78 174.024 93.6 173.874 93.51C173.649 93.36 173.349 93.345 173.139 93.345H171.999V94.8ZM177.165 89.685H178.635V93.27L182.955 89.115V96H181.485V92.325L177.165 96.48V89.685ZM185.351 89.685H190.091V94.65H191.051V97.8H189.701V96H185.291V97.8H183.941V94.65C184.511 94.62 184.901 94.215 185.096 93.825C185.276 93.435 185.351 92.925 185.351 92.16V89.685ZM188.621 94.65V91.035H186.761V92.715C186.761 93.81 186.416 94.35 186.026 94.65H188.621ZM191.641 99.435L193.966 95.01L191.266 89.685H193.036L194.836 93.375L196.666 89.685H198.316L193.291 99.435H191.641ZM203.963 90.42V89.685H205.433V96H203.963V95.34C203.318 96.09 202.523 96.195 202.073 96.195C200.123 96.195 199.013 94.575 199.013 92.835C199.013 90.78 200.423 89.52 202.088 89.52C202.553 89.52 203.363 89.64 203.963 90.42ZM202.268 90.84C201.203 90.84 200.513 91.74 200.513 92.865C200.513 93.96 201.203 94.875 202.268 94.875C203.198 94.875 204.053 94.2 204.053 92.88C204.053 91.5 203.198 90.84 202.268 90.84ZM212.487 89.685V96H211.017V91.035H209.157V93.54C209.157 94.08 209.082 94.785 208.557 95.355C207.987 95.985 207.162 96.105 206.487 96V94.65C206.922 94.755 207.327 94.59 207.522 94.365C207.717 94.125 207.747 93.78 207.747 93.54V89.685H212.487ZM214.343 96V89.685H215.813V91.92H216.653C217.268 91.92 217.988 91.935 218.558 92.565C218.978 93.03 219.053 93.57 219.053 93.945C219.053 94.68 218.768 95.175 218.483 95.46C217.928 96 217.268 96 216.638 96H214.343ZM215.813 94.74H216.488C216.773 94.74 217.058 94.725 217.253 94.605C217.358 94.53 217.583 94.35 217.583 93.96C217.583 93.645 217.448 93.45 217.268 93.33C217.028 93.18 216.728 93.18 216.503 93.18H215.813V94.74ZM220.348 96V89.685H221.818V92.025H224.428V89.685H225.898V96H224.428V93.375H221.818V96H220.348ZM227.761 96V89.685H229.231V91.92H230.071C230.686 91.92 231.406 91.935 231.976 92.565C232.396 93.03 232.471 93.57 232.471 93.945C232.471 94.68 232.186 95.175 231.901 95.46C231.346 96 230.686 96 230.056 96H227.761ZM229.231 94.74H229.906C230.191 94.74 230.476 94.725 230.671 94.605C230.776 94.53 231.001 94.35 231.001 93.96C231.001 93.645 230.866 93.45 230.686 93.33C230.446 93.18 230.146 93.18 229.921 93.18H229.231V94.74ZM233.131 96V89.685H234.601V96H233.131ZM240.887 93.87L242.117 94.56C241.847 95.04 241.457 95.46 241.052 95.715C240.542 96.045 239.867 96.195 239.192 96.195C238.352 96.195 237.662 95.985 237.062 95.385C236.462 94.785 236.132 93.915 236.132 92.97C236.132 91.995 236.477 91.05 237.137 90.375C237.662 89.85 238.352 89.52 239.252 89.52C240.257 89.52 240.902 89.955 241.277 90.345C242.087 91.185 242.162 92.355 242.162 93.015V93.195H237.632C237.662 93.645 237.857 94.155 238.172 94.47C238.517 94.815 238.937 94.875 239.297 94.875C239.702 94.875 240.002 94.785 240.302 94.56C240.557 94.365 240.752 94.11 240.887 93.87ZM237.737 91.995H240.662C240.602 91.65 240.437 91.35 240.212 91.14C240.017 90.96 239.702 90.78 239.222 90.78C238.712 90.78 238.382 90.99 238.187 91.185C237.977 91.38 237.812 91.68 237.737 91.995ZM32.9767 121.435L35.3017 117.01L32.6017 111.685H34.3717L36.1717 115.375L38.0017 111.685H39.6517L34.6267 121.435H32.9767ZM45.2458 111.97V113.62C44.5708 112.96 43.9108 112.84 43.4608 112.84C42.7708 112.84 42.3358 113.125 42.0658 113.395C41.7958 113.665 41.5258 114.145 41.5258 114.85C41.5258 115.585 41.8108 116.08 42.0958 116.365C42.4258 116.68 42.8908 116.875 43.4308 116.875C44.0308 116.875 44.7358 116.635 45.2458 116.065V117.7C44.8858 117.925 44.3008 118.195 43.3258 118.195C42.2758 118.195 41.5258 117.895 40.9258 117.265C40.4758 116.8 40.0258 116.05 40.0258 114.895C40.0258 113.71 40.5208 112.915 40.9858 112.45C41.4808 111.955 42.2758 111.52 43.5208 111.52C44.0008 111.52 44.5708 111.595 45.2458 111.97ZM51.9911 111.685V118H50.5211V113.035H48.6611V115.54C48.6611 116.08 48.5861 116.785 48.0611 117.355C47.4911 117.985 46.6661 118.105 45.9911 118V116.65C46.4261 116.755 46.8311 116.59 47.0261 116.365C47.2211 116.125 47.2511 115.78 47.2511 115.54V111.685H51.9911ZM56.892 111.52C58.797 111.52 60.267 112.9 60.267 114.85C60.267 116.785 58.797 118.195 56.892 118.195C54.987 118.195 53.517 116.785 53.517 114.85C53.517 112.9 54.987 111.52 56.892 111.52ZM56.892 116.875C58.047 116.875 58.767 116.08 58.767 114.865C58.767 113.425 57.822 112.84 56.892 112.84C55.962 112.84 55.017 113.425 55.017 114.865C55.017 116.08 55.737 116.875 56.892 116.875ZM61.8011 111.685H64.2761C64.6511 111.685 65.2361 111.7 65.7161 112.06C65.9411 112.24 66.3011 112.615 66.3011 113.275C66.3011 113.785 66.0611 114.25 65.5511 114.505C65.8511 114.565 66.1661 114.715 66.4061 114.925C66.6911 115.18 66.9011 115.57 66.9011 116.14C66.9011 116.905 66.5261 117.34 66.2111 117.58C65.6861 117.97 65.0411 118 64.7561 118H61.8011V111.685ZM63.2711 114.145H64.0211C64.3661 114.145 64.5611 114.04 64.6061 114.01C64.8461 113.86 64.8911 113.65 64.8911 113.5C64.8911 113.275 64.7861 113.11 64.6361 113.005C64.4411 112.87 64.2161 112.885 63.9911 112.885H63.2711V114.145ZM63.2711 116.8H64.3661C64.6061 116.8 64.9061 116.77 65.1311 116.62C65.2661 116.53 65.4311 116.35 65.4311 116.065C65.4311 115.78 65.2961 115.6 65.1461 115.51C64.9211 115.36 64.6211 115.345 64.4111 115.345H63.2711V116.8ZM68.4368 111.685H69.9068V115.27L74.2268 111.115V118H72.7568V114.325L68.4368 118.48V111.685ZM75.2733 118L77.2533 115.495C76.8333 115.435 76.4883 115.24 76.2483 115.015C75.8433 114.625 75.7233 114.16 75.7233 113.71C75.7233 113.305 75.8133 112.72 76.3083 112.255C76.8483 111.745 77.4933 111.685 78.1383 111.685H80.4933V118H79.0233V115.675H78.7233L76.9983 118H75.2733ZM79.0233 114.475V112.945H78.1683C77.8833 112.945 77.6133 112.96 77.4033 113.08C77.2083 113.2 77.0433 113.425 77.0433 113.71C77.0433 114.025 77.1933 114.22 77.3433 114.325C77.5233 114.445 77.7933 114.475 78.1533 114.475H79.0233ZM85.8538 111.685H91.3438V118H89.8738V113.035H87.3238V118H85.8538V111.685ZM96.2523 111.52C98.1573 111.52 99.6273 112.9 99.6273 114.85C99.6273 116.785 98.1573 118.195 96.2523 118.195C94.3473 118.195 92.8773 116.785 92.8773 114.85C92.8773 112.9 94.3473 111.52 96.2523 111.52ZM96.2523 116.875C97.4073 116.875 98.1273 116.08 98.1273 114.865C98.1273 113.425 97.1823 112.84 96.2523 112.84C95.3223 112.84 94.3773 113.425 94.3773 114.865C94.3773 116.08 95.0973 116.875 96.2523 116.875ZM106.051 111.97V113.62C105.376 112.96 104.716 112.84 104.266 112.84C103.576 112.84 103.141 113.125 102.871 113.395C102.601 113.665 102.331 114.145 102.331 114.85C102.331 115.585 102.616 116.08 102.901 116.365C103.231 116.68 103.696 116.875 104.236 116.875C104.836 116.875 105.541 116.635 106.051 116.065V117.7C105.691 117.925 105.106 118.195 104.131 118.195C103.081 118.195 102.331 117.895 101.731 117.265C101.281 116.8 100.831 116.05 100.831 114.895C100.831 113.71 101.326 112.915 101.791 112.45C102.286 111.955 103.081 111.52 104.326 111.52C104.806 111.52 105.376 111.595 106.051 111.97ZM111.957 113.035H110.112V118H108.642V113.035H106.797V111.685H111.957V113.035ZM117.471 112.42V111.685H118.941V118H117.471V117.34C116.826 118.09 116.031 118.195 115.581 118.195C113.631 118.195 112.521 116.575 112.521 114.835C112.521 112.78 113.931 111.52 115.596 111.52C116.061 111.52 116.871 111.64 117.471 112.42ZM115.776 112.84C114.711 112.84 114.021 113.74 114.021 114.865C114.021 115.96 114.711 116.875 115.776 116.875C116.706 116.875 117.561 116.2 117.561 114.88C117.561 113.5 116.706 112.84 115.776 112.84ZM120.805 111.685H123.28C123.655 111.685 124.24 111.7 124.72 112.06C124.945 112.24 125.305 112.615 125.305 113.275C125.305 113.785 125.065 114.25 124.555 114.505C124.855 114.565 125.17 114.715 125.41 114.925C125.695 115.18 125.905 115.57 125.905 116.14C125.905 116.905 125.53 117.34 125.215 117.58C124.69 117.97 124.045 118 123.76 118H120.805V111.685ZM122.275 114.145H123.025C123.37 114.145 123.565 114.04 123.61 114.01C123.85 113.86 123.895 113.65 123.895 113.5C123.895 113.275 123.79 113.11 123.64 113.005C123.445 112.87 123.22 112.885 122.995 112.885H122.275V114.145ZM122.275 116.8H123.37C123.61 116.8 123.91 116.77 124.135 116.62C124.27 116.53 124.435 116.35 124.435 116.065C124.435 115.78 124.3 115.6 124.15 115.51C123.925 115.36 123.625 115.345 123.415 115.345H122.275V116.8ZM127.441 111.685H128.911V113.935L131.011 111.685H132.961L130.201 114.445L133.111 118H131.251L129.151 115.405L128.911 115.645V118H127.441V111.685ZM134.076 111.685H135.546V115.27L139.866 111.115V118H138.396V114.325L134.076 118.48V111.685ZM140.718 119.935L142.248 116.125L143.568 116.635L141.708 120.34L140.718 119.935ZM148.754 111.685H151.229C151.604 111.685 152.189 111.7 152.669 112.06C152.894 112.24 153.254 112.615 153.254 113.275C153.254 113.785 153.014 114.25 152.504 114.505C152.804 114.565 153.119 114.715 153.359 114.925C153.644 115.18 153.854 115.57 153.854 116.14C153.854 116.905 153.479 117.34 153.164 117.58C152.639 117.97 151.994 118 151.709 118H148.754V111.685ZM150.224 114.145H150.974C151.319 114.145 151.514 114.04 151.559 114.01C151.799 113.86 151.844 113.65 151.844 113.5C151.844 113.275 151.739 113.11 151.589 113.005C151.394 112.87 151.169 112.885 150.944 112.885H150.224V114.145ZM150.224 116.8H151.319C151.559 116.8 151.859 116.77 152.084 116.62C152.219 116.53 152.384 116.35 152.384 116.065C152.384 115.78 152.249 115.6 152.099 115.51C151.874 115.36 151.574 115.345 151.364 115.345H150.224V116.8ZM163.241 113.035H161.396V118H159.926V113.035H158.081V111.685H163.241V113.035ZM167.18 111.52C169.085 111.52 170.555 112.9 170.555 114.85C170.555 116.785 169.085 118.195 167.18 118.195C165.275 118.195 163.805 116.785 163.805 114.85C163.805 112.9 165.275 111.52 167.18 111.52ZM167.18 116.875C168.335 116.875 169.055 116.08 169.055 114.865C169.055 113.425 168.11 112.84 167.18 112.84C166.25 112.84 165.305 113.425 165.305 114.865C165.305 116.08 166.025 116.875 167.18 116.875ZM171.369 118L172.899 111.115L175.509 115.93L178.119 111.115L179.649 118H178.149L177.519 114.835L175.509 118.48L173.499 114.835L172.869 118H171.369ZM187.711 118V115.555C187.111 115.675 186.631 115.69 186.421 115.69C185.926 115.69 185.266 115.63 184.756 115.225C184.171 114.76 184.141 114.13 184.141 113.71V111.685H185.611V113.41C185.611 113.785 185.686 114.1 185.986 114.28C186.211 114.415 186.571 114.43 186.721 114.43C187.111 114.43 187.426 114.37 187.711 114.265V111.685H189.181V118H187.711ZM191.044 111.685H192.514V115.27L196.834 111.115V118H195.364V114.325L191.044 118.48V111.685ZM203.581 111.97V113.62C202.906 112.96 202.246 112.84 201.796 112.84C201.106 112.84 200.671 113.125 200.401 113.395C200.131 113.665 199.861 114.145 199.861 114.85C199.861 115.585 200.146 116.08 200.431 116.365C200.761 116.68 201.226 116.875 201.766 116.875C202.366 116.875 203.071 116.635 203.581 116.065V117.7C203.221 117.925 202.636 118.195 201.661 118.195C200.611 118.195 199.861 117.895 199.261 117.265C198.811 116.8 198.361 116.05 198.361 114.895C198.361 113.71 198.856 112.915 199.321 112.45C199.816 111.955 200.611 111.52 201.856 111.52C202.336 111.52 202.906 111.595 203.581 111.97ZM210.326 111.685V118H208.856V113.035H206.996V115.54C206.996 116.08 206.921 116.785 206.396 117.355C205.826 117.985 205.001 118.105 204.326 118V116.65C204.761 116.755 205.166 116.59 205.361 116.365C205.556 116.125 205.586 115.78 205.586 115.54V111.685H210.326ZM216.607 115.87L217.837 116.56C217.567 117.04 217.177 117.46 216.772 117.715C216.262 118.045 215.587 118.195 214.912 118.195C214.072 118.195 213.382 117.985 212.782 117.385C212.182 116.785 211.852 115.915 211.852 114.97C211.852 113.995 212.197 113.05 212.857 112.375C213.382 111.85 214.072 111.52 214.972 111.52C215.977 111.52 216.622 111.955 216.997 112.345C217.807 113.185 217.882 114.355 217.882 115.015V115.195H213.352C213.382 115.645 213.577 116.155 213.892 116.47C214.237 116.815 214.657 116.875 215.017 116.875C215.422 116.875 215.722 116.785 216.022 116.56C216.277 116.365 216.472 116.11 216.607 115.87ZM213.457 113.995H216.382C216.322 113.65 216.157 113.35 215.932 113.14C215.737 112.96 215.422 112.78 214.942 112.78C214.432 112.78 214.102 112.99 213.907 113.185C213.697 113.38 213.532 113.68 213.457 113.995ZM2.17838 143.435L4.50338 139.01L1.80338 133.685H3.57338L5.37338 137.375L7.20338 133.685H8.85338L3.82838 143.435H2.17838ZM13.2997 140V137.555C12.6997 137.675 12.2197 137.69 12.0097 137.69C11.5147 137.69 10.8547 137.63 10.3447 137.225C9.75971 136.76 9.72971 136.13 9.72971 135.71V133.685H11.1997V135.41C11.1997 135.785 11.2747 136.1 11.5747 136.28C11.7997 136.415 12.1597 136.43 12.3097 136.43C12.6997 136.43 13.0147 136.37 13.2997 136.265V133.685H14.7697V140H13.2997ZM16.6326 133.685H18.1026V137.27L22.4226 133.115V140H20.9526V136.325L16.6326 140.48V133.685ZM28.6291 135.035H26.7841V140H25.3141V135.035H23.4691V133.685H28.6291V135.035ZM29.6844 140V133.685H31.1544V135.92H31.9944C32.6094 135.92 33.3294 135.935 33.8994 136.565C34.3194 137.03 34.3944 137.57 34.3944 137.945C34.3944 138.68 34.1094 139.175 33.8244 139.46C33.2694 140 32.6094 140 31.9794 140H29.6844ZM31.1544 138.74H31.8294C32.1144 138.74 32.3994 138.725 32.5944 138.605C32.6994 138.53 32.9244 138.35 32.9244 137.96C32.9244 137.645 32.7894 137.45 32.6094 137.33C32.3694 137.18 32.0694 137.18 31.8444 137.18H31.1544V138.74ZM35.0544 140V133.685H36.5244V140H35.0544ZM38.3856 133.685H40.8606C41.2356 133.685 41.8206 133.7 42.3006 134.06C42.5256 134.24 42.8856 134.615 42.8856 135.275C42.8856 135.785 42.6456 136.25 42.1356 136.505C42.4356 136.565 42.7506 136.715 42.9906 136.925C43.2756 137.18 43.4856 137.57 43.4856 138.14C43.4856 138.905 43.1106 139.34 42.7956 139.58C42.2706 139.97 41.6256 140 41.3406 140H38.3856V133.685ZM39.8556 136.145H40.6056C40.9506 136.145 41.1456 136.04 41.1906 136.01C41.4306 135.86 41.4756 135.65 41.4756 135.5C41.4756 135.275 41.3706 135.11 41.2206 135.005C41.0256 134.87 40.8006 134.885 40.5756 134.885H39.8556V136.145ZM39.8556 138.8H40.9506C41.1906 138.8 41.4906 138.77 41.7156 138.62C41.8506 138.53 42.0156 138.35 42.0156 138.065C42.0156 137.78 41.8806 137.6 41.7306 137.51C41.5056 137.36 41.2056 137.345 40.9956 137.345H39.8556V138.8ZM49.6413 134.42V133.685H51.1113V140H49.6413V139.34C48.9963 140.09 48.2013 140.195 47.7513 140.195C45.8013 140.195 44.6913 138.575 44.6913 136.835C44.6913 134.78 46.1013 133.52 47.7663 133.52C48.2313 133.52 49.0413 133.64 49.6413 134.42ZM47.9463 134.84C46.8813 134.84 46.1913 135.74 46.1913 136.865C46.1913 137.96 46.8813 138.875 47.9463 138.875C48.8763 138.875 49.7313 138.2 49.7313 136.88C49.7313 135.5 48.8763 134.84 47.9463 134.84ZM54.4454 136.025H55.4504C55.5254 135.59 55.7354 135.005 56.2754 134.45C56.7404 133.985 57.4904 133.52 58.6304 133.52C60.4904 133.52 61.9454 134.9 61.9454 136.85C61.9454 138.785 60.5054 140.195 58.6304 140.195C57.3104 140.195 56.5604 139.58 56.2004 139.19C55.8704 138.83 55.4954 138.23 55.4204 137.375H54.4454V140H52.9754V133.685H54.4454V136.025ZM58.6304 134.84C57.7154 134.84 56.8154 135.425 56.8154 136.865C56.8154 138.305 57.7154 138.875 58.6304 138.875C59.5454 138.875 60.4454 138.305 60.4454 136.865C60.4454 135.425 59.5454 134.84 58.6304 134.84ZM63.4783 140V133.685H64.9483V138.65H67.0483V133.685H68.5183V138.65H70.6183V133.685H72.0883V138.65H73.1383V141.8H71.7883V140H63.4783ZM74.1863 133.685H75.6563V137.27L79.9763 133.115V140H78.5063V136.325L74.1863 140.48V133.685ZM86.2578 137.87L87.4878 138.56C87.2178 139.04 86.8278 139.46 86.4228 139.715C85.9128 140.045 85.2378 140.195 84.5628 140.195C83.7228 140.195 83.0328 139.985 82.4328 139.385C81.8328 138.785 81.5028 137.915 81.5028 136.97C81.5028 135.995 81.8478 135.05 82.5078 134.375C83.0328 133.85 83.7228 133.52 84.6228 133.52C85.6278 133.52 86.2728 133.955 86.6478 134.345C87.4578 135.185 87.5328 136.355 87.5328 137.015V137.195H83.0028C83.0328 137.645 83.2278 138.155 83.5428 138.47C83.8878 138.815 84.3078 138.875 84.6678 138.875C85.0728 138.875 85.3728 138.785 85.6728 138.56C85.9278 138.365 86.1228 138.11 86.2578 137.87ZM83.1078 135.995H86.0328C85.9728 135.65 85.8078 135.35 85.5828 135.14C85.3878 134.96 85.0728 134.78 84.5928 134.78C84.0828 134.78 83.7528 134.99 83.5578 135.185C83.3478 135.38 83.1828 135.68 83.1078 135.995ZM92.5701 133.685H98.0601V140H96.5901V135.035H94.0401V140H92.5701V133.685ZM102.969 133.52C104.874 133.52 106.344 134.9 106.344 136.85C106.344 138.785 104.874 140.195 102.969 140.195C101.064 140.195 99.5937 138.785 99.5937 136.85C99.5937 134.9 101.064 133.52 102.969 133.52ZM102.969 138.875C104.124 138.875 104.844 138.08 104.844 136.865C104.844 135.425 103.899 134.84 102.969 134.84C102.039 134.84 101.094 135.425 101.094 136.865C101.094 138.08 101.814 138.875 102.969 138.875ZM110.893 133.685H112.363V136.025L114.268 133.685H116.038L113.593 136.565L116.278 140H114.448L112.543 137.465L112.363 137.675V140H110.893V137.675L110.713 137.465L108.808 140H106.978L109.663 136.565L107.218 133.685H108.988L110.893 136.025V133.685ZM121.663 137.87L122.893 138.56C122.623 139.04 122.233 139.46 121.828 139.715C121.318 140.045 120.643 140.195 119.968 140.195C119.128 140.195 118.438 139.985 117.838 139.385C117.238 138.785 116.908 137.915 116.908 136.97C116.908 135.995 117.253 135.05 117.913 134.375C118.438 133.85 119.128 133.52 120.028 133.52C121.033 133.52 121.678 133.955 122.053 134.345C122.863 135.185 122.938 136.355 122.938 137.015V137.195H118.408C118.438 137.645 118.633 138.155 118.948 138.47C119.293 138.815 119.713 138.875 120.073 138.875C120.478 138.875 120.778 138.785 121.078 138.56C121.333 138.365 121.528 138.11 121.663 137.87ZM118.513 135.995H121.438C121.378 135.65 121.213 135.35 120.988 135.14C120.793 134.96 120.478 134.78 119.998 134.78C119.488 134.78 119.158 134.99 118.963 135.185C118.753 135.38 118.588 135.68 118.513 135.995ZM129.664 133.685V140H128.194V135.035H126.334V137.54C126.334 138.08 126.259 138.785 125.734 139.355C125.164 139.985 124.339 140.105 123.664 140V138.65C124.099 138.755 124.504 138.59 124.699 138.365C124.894 138.125 124.924 137.78 124.924 137.54V133.685H129.664ZM136.14 134.42V133.685H137.61V140H136.14V139.34C135.495 140.09 134.7 140.195 134.25 140.195C132.3 140.195 131.19 138.575 131.19 136.835C131.19 134.78 132.6 133.52 134.265 133.52C134.73 133.52 135.54 133.64 136.14 134.42ZM134.445 134.84C133.38 134.84 132.69 135.74 132.69 136.865C132.69 137.96 133.38 138.875 134.445 138.875C135.375 138.875 136.23 138.2 136.23 136.88C136.23 135.5 135.375 134.84 134.445 134.84ZM139.474 140V133.685H140.944V136.025H143.554V133.685H145.024V140H143.554V137.375H140.944V140H139.474ZM146.887 133.685H148.357V137.27L152.677 133.115V140H151.207V136.325L146.887 140.48V133.685ZM153.723 140L155.703 137.495C155.283 137.435 154.938 137.24 154.698 137.015C154.293 136.625 154.173 136.16 154.173 135.71C154.173 135.305 154.263 134.72 154.758 134.255C155.298 133.745 155.943 133.685 156.588 133.685H158.943V140H157.473V137.675H157.173L155.448 140H153.723ZM157.473 136.475V134.945H156.618C156.333 134.945 156.063 134.96 155.853 135.08C155.658 135.2 155.493 135.425 155.493 135.71C155.493 136.025 155.643 136.22 155.793 136.325C155.973 136.445 156.243 136.475 156.603 136.475H157.473ZM164.304 133.685H169.794V140H168.324V135.035H165.774V140H164.304V133.685ZM174.702 133.52C176.607 133.52 178.077 134.9 178.077 136.85C178.077 138.785 176.607 140.195 174.702 140.195C172.797 140.195 171.327 138.785 171.327 136.85C171.327 134.9 172.797 133.52 174.702 133.52ZM174.702 138.875C175.857 138.875 176.577 138.08 176.577 136.865C176.577 135.425 175.632 134.84 174.702 134.84C173.772 134.84 172.827 135.425 172.827 136.865C172.827 138.08 173.547 138.875 174.702 138.875ZM183.961 135.035H182.116V140H180.646V135.035H178.801V133.685H183.961V135.035ZM186.486 139.265V143.435H185.016V133.685H186.486V134.375C187.026 133.73 187.731 133.52 188.361 133.52C190.026 133.52 191.436 134.795 191.436 136.805C191.436 138.935 189.876 140.195 188.376 140.195C188.031 140.195 187.146 140.075 186.486 139.265ZM188.181 134.84C187.251 134.84 186.396 135.5 186.396 136.88C186.396 138.2 187.251 138.875 188.181 138.875C189.246 138.875 189.936 137.96 189.936 136.865C189.936 135.74 189.246 134.84 188.181 134.84ZM197.396 137.87L198.626 138.56C198.356 139.04 197.966 139.46 197.561 139.715C197.051 140.045 196.376 140.195 195.701 140.195C194.861 140.195 194.171 139.985 193.571 139.385C192.971 138.785 192.641 137.915 192.641 136.97C192.641 135.995 192.986 135.05 193.646 134.375C194.171 133.85 194.861 133.52 195.761 133.52C196.766 133.52 197.411 133.955 197.786 134.345C198.596 135.185 198.671 136.355 198.671 137.015V137.195H194.141C194.171 137.645 194.366 138.155 194.681 138.47C195.026 138.815 195.446 138.875 195.806 138.875C196.211 138.875 196.511 138.785 196.811 138.56C197.066 138.365 197.261 138.11 197.396 137.87ZM194.246 135.995H197.171C197.111 135.65 196.946 135.35 196.721 135.14C196.526 134.96 196.211 134.78 195.731 134.78C195.221 134.78 194.891 134.99 194.696 135.185C194.486 135.38 194.321 135.68 194.246 135.995ZM204.977 129.35H206.477C206.267 130.385 205.517 131.195 204.497 131.48L203.507 131.75C202.922 131.915 202.322 132.08 201.872 132.695C201.527 133.16 201.362 133.895 201.347 134.405H201.362C201.917 133.655 202.892 133.52 203.507 133.52C204.467 133.52 205.187 133.88 205.712 134.42C206.252 134.975 206.627 135.8 206.627 136.82C206.627 138.8 205.157 140.195 203.252 140.195C202.142 140.195 201.377 139.775 200.942 139.355C199.907 138.38 199.877 136.985 199.877 136.115C199.877 134.225 200.117 132.83 200.837 131.78C201.302 131.09 201.872 130.64 202.727 130.43L203.777 130.175C204.692 129.95 204.902 129.605 204.977 129.35ZM203.252 138.875C204.407 138.875 205.127 138.08 205.127 136.865C205.127 135.425 204.182 134.84 203.252 134.84C202.322 134.84 201.377 135.425 201.377 136.865C201.377 138.08 202.097 138.875 203.252 138.875ZM208.161 133.685H209.631V137.27L213.951 133.115V140H212.481V136.325L208.161 140.48V133.685ZM220.157 135.035H218.312V140H216.842V135.035H214.997V133.685H220.157V135.035ZM225.477 137.87L226.707 138.56C226.437 139.04 226.047 139.46 225.642 139.715C225.132 140.045 224.457 140.195 223.782 140.195C222.942 140.195 222.252 139.985 221.652 139.385C221.052 138.785 220.722 137.915 220.722 136.97C220.722 135.995 221.067 135.05 221.727 134.375C222.252 133.85 222.942 133.52 223.842 133.52C224.847 133.52 225.492 133.955 225.867 134.345C226.677 135.185 226.752 136.355 226.752 137.015V137.195H222.222C222.252 137.645 222.447 138.155 222.762 138.47C223.107 138.815 223.527 138.875 223.887 138.875C224.292 138.875 224.592 138.785 224.892 138.56C225.147 138.365 225.342 138.11 225.477 137.87ZM222.327 135.995H225.252C225.192 135.65 225.027 135.35 224.802 135.14C224.607 134.96 224.292 134.78 223.812 134.78C223.302 134.78 222.972 134.99 222.777 135.185C222.567 135.38 222.402 135.68 222.327 135.995ZM233.478 133.685V140H232.008V135.035H230.148V137.54C230.148 138.08 230.073 138.785 229.548 139.355C228.978 139.985 228.153 140.105 227.478 140V138.65C227.913 138.755 228.318 138.59 228.513 138.365C228.708 138.125 228.738 137.78 228.738 137.54V133.685H233.478ZM239.759 137.87L240.989 138.56C240.719 139.04 240.329 139.46 239.924 139.715C239.414 140.045 238.739 140.195 238.064 140.195C237.224 140.195 236.534 139.985 235.934 139.385C235.334 138.785 235.004 137.915 235.004 136.97C235.004 135.995 235.349 135.05 236.009 134.375C236.534 133.85 237.224 133.52 238.124 133.52C239.129 133.52 239.774 133.955 240.149 134.345C240.959 135.185 241.034 136.355 241.034 137.015V137.195H236.504C236.534 137.645 236.729 138.155 237.044 138.47C237.389 138.815 237.809 138.875 238.169 138.875C238.574 138.875 238.874 138.785 239.174 138.56C239.429 138.365 239.624 138.11 239.759 137.87ZM236.609 135.995H239.534C239.474 135.65 239.309 135.35 239.084 135.14C238.889 134.96 238.574 134.78 238.094 134.78C237.584 134.78 237.254 134.99 237.059 135.185C236.849 135.38 236.684 135.68 236.609 135.995ZM242.57 133.685H244.04V137.27L248.36 133.115V140H246.89V136.325L242.57 140.48V133.685ZM243.05 130.955L244.25 130.61C244.505 131.48 245.12 131.585 245.48 131.585C246.125 131.585 246.5 131.285 246.71 130.61L247.91 130.955C247.565 132.2 246.335 132.725 245.48 132.725C244.625 132.725 243.395 132.2 243.05 130.955ZM35.5364 155.685H41.0264V162H39.5564V157.035H37.0064V162H35.5364V155.685ZM45.935 155.52C47.84 155.52 49.31 156.9 49.31 158.85C49.31 160.785 47.84 162.195 45.935 162.195C44.03 162.195 42.56 160.785 42.56 158.85C42.56 156.9 44.03 155.52 45.935 155.52ZM45.935 160.875C47.09 160.875 47.81 160.08 47.81 158.865C47.81 157.425 46.865 156.84 45.935 156.84C45.005 156.84 44.06 157.425 44.06 158.865C44.06 160.08 44.78 160.875 45.935 160.875ZM59.235 155.97V157.62C58.56 156.96 57.9 156.84 57.45 156.84C56.76 156.84 56.325 157.125 56.055 157.395C55.785 157.665 55.515 158.145 55.515 158.85C55.515 159.585 55.8 160.08 56.085 160.365C56.415 160.68 56.88 160.875 57.42 160.875C58.02 160.875 58.725 160.635 59.235 160.065V161.7C58.875 161.925 58.29 162.195 57.315 162.195C56.265 162.195 55.515 161.895 54.915 161.265C54.465 160.8 54.015 160.05 54.015 158.895C54.015 157.71 54.51 156.915 54.975 156.45C55.47 155.955 56.265 155.52 57.51 155.52C57.99 155.52 58.56 155.595 59.235 155.97ZM62.1139 161.265V165.435H60.6439V155.685H62.1139V156.375C62.6539 155.73 63.3589 155.52 63.9889 155.52C65.6539 155.52 67.0639 156.795 67.0639 158.805C67.0639 160.935 65.5039 162.195 64.0039 162.195C63.6589 162.195 62.7739 162.075 62.1139 161.265ZM63.8089 156.84C62.8789 156.84 62.0239 157.5 62.0239 158.88C62.0239 160.2 62.8789 160.875 63.8089 160.875C64.8739 160.875 65.5639 159.96 65.5639 158.865C65.5639 157.74 64.8739 156.84 63.8089 156.84ZM71.643 155.52C73.548 155.52 75.018 156.9 75.018 158.85C75.018 160.785 73.548 162.195 71.643 162.195C69.738 162.195 68.268 160.785 68.268 158.85C68.268 156.9 69.738 155.52 71.643 155.52ZM71.643 160.875C72.798 160.875 73.518 160.08 73.518 158.865C73.518 157.425 72.573 156.84 71.643 156.84C70.713 156.84 69.768 157.425 69.768 158.865C69.768 160.08 70.488 160.875 71.643 160.875ZM76.5521 155.685H78.0221V157.935L80.1221 155.685H82.0721L79.3121 158.445L82.2221 162H80.3621L78.2621 159.405L78.0221 159.645V162H76.5521V155.685ZM87.8078 156.42V155.685H89.2778V162H87.8078V161.34C87.1628 162.09 86.3678 162.195 85.9178 162.195C83.9678 162.195 82.8578 160.575 82.8578 158.835C82.8578 156.78 84.2678 155.52 85.9328 155.52C86.3978 155.52 87.2078 155.64 87.8078 156.42ZM86.1128 156.84C85.0478 156.84 84.3578 157.74 84.3578 158.865C84.3578 159.96 85.0478 160.875 86.1128 160.875C87.0428 160.875 87.8978 160.2 87.8978 158.88C87.8978 157.5 87.0428 156.84 86.1128 156.84ZM90.4219 162L91.9519 155.115L94.5619 159.93L97.1719 155.115L98.7019 162H97.2019L96.5719 158.835L94.5619 162.48L92.5519 158.835L91.9219 162H90.4219ZM103.344 155.685H104.814V159.27L109.134 155.115V162H107.664V158.325L103.344 162.48V155.685ZM117.852 165.435V162.105C116.667 162.12 115.812 161.76 115.257 161.28C114.687 160.8 114.192 160.05 114.192 158.835C114.192 157.515 114.822 156.765 115.242 156.405C116.007 155.745 117.027 155.58 117.852 155.58V151.995H119.322V155.58C120.147 155.58 121.167 155.745 121.932 156.405C122.352 156.765 122.982 157.515 122.982 158.835C122.982 160.05 122.487 160.8 121.917 161.28C121.362 161.76 120.507 162.12 119.322 162.105V165.435H117.852ZM117.852 160.785V156.9C117.462 156.9 116.862 156.975 116.472 157.23C116.247 157.365 115.692 157.815 115.692 158.835C115.692 159.765 116.142 160.215 116.427 160.41C116.787 160.665 117.342 160.8 117.852 160.785ZM119.322 156.9V160.785C119.832 160.8 120.387 160.665 120.747 160.41C121.032 160.215 121.482 159.765 121.482 158.835C121.482 157.815 120.927 157.365 120.702 157.23C120.312 156.975 119.712 156.9 119.322 156.9ZM127.585 155.52C129.49 155.52 130.96 156.9 130.96 158.85C130.96 160.785 129.49 162.195 127.585 162.195C125.68 162.195 124.21 160.785 124.21 158.85C124.21 156.9 125.68 155.52 127.585 155.52ZM127.585 160.875C128.74 160.875 129.46 160.08 129.46 158.865C129.46 157.425 128.515 156.84 127.585 156.84C126.655 156.84 125.71 157.425 125.71 158.865C125.71 160.08 126.43 160.875 127.585 160.875ZM133.964 161.265V165.435H132.494V155.685H133.964V156.375C134.504 155.73 135.209 155.52 135.839 155.52C137.504 155.52 138.914 156.795 138.914 158.805C138.914 160.935 137.354 162.195 135.854 162.195C135.509 162.195 134.624 162.075 133.964 161.265ZM135.659 156.84C134.729 156.84 133.874 157.5 133.874 158.88C133.874 160.2 134.729 160.875 135.659 160.875C136.724 160.875 137.414 159.96 137.414 158.865C137.414 157.74 136.724 156.84 135.659 156.84ZM139.729 162L141.259 155.115L143.869 159.93L146.479 155.115L148.009 162H146.509L145.879 158.835L143.869 162.48L141.859 158.835L141.229 162H139.729ZM153.77 156.42V155.685H155.24V162H153.77V161.34C153.125 162.09 152.33 162.195 151.88 162.195C149.93 162.195 148.82 160.575 148.82 158.835C148.82 156.78 150.23 155.52 151.895 155.52C152.36 155.52 153.17 155.64 153.77 156.42ZM152.075 156.84C151.01 156.84 150.32 157.74 150.32 158.865C150.32 159.96 151.01 160.875 152.075 160.875C153.005 160.875 153.86 160.2 153.86 158.88C153.86 157.5 153.005 156.84 152.075 156.84ZM156.384 162L157.914 155.115L160.524 159.93L163.134 155.115L164.664 162H163.164L162.534 158.835L160.524 162.48L158.514 158.835L157.884 162H156.384ZM172.351 155.52C174.256 155.52 175.726 156.9 175.726 158.85C175.726 160.785 174.256 162.195 172.351 162.195C170.446 162.195 168.976 160.785 168.976 158.85C168.976 156.9 170.446 155.52 172.351 155.52ZM172.351 160.875C173.506 160.875 174.226 160.08 174.226 158.865C174.226 157.425 173.281 156.84 172.351 156.84C171.421 156.84 170.476 157.425 170.476 158.865C170.476 160.08 171.196 160.875 172.351 160.875ZM177.26 155.685H182.75V162H181.28V157.035H178.73V162H177.26V155.685ZM189.804 155.685V162H188.334V157.035H186.474V159.54C186.474 160.08 186.399 160.785 185.874 161.355C185.304 161.985 184.479 162.105 183.804 162V160.65C184.239 160.755 184.644 160.59 184.839 160.365C185.034 160.125 185.064 159.78 185.064 159.54V155.685H189.804ZM196.279 156.42V155.685H197.749V162H196.279V161.34C195.634 162.09 194.839 162.195 194.389 162.195C192.439 162.195 191.329 160.575 191.329 158.835C191.329 156.78 192.739 155.52 194.404 155.52C194.869 155.52 195.679 155.64 196.279 156.42ZM194.584 156.84C193.519 156.84 192.829 157.74 192.829 158.865C192.829 159.96 193.519 160.875 194.584 160.875C195.514 160.875 196.369 160.2 196.369 158.88C196.369 157.5 195.514 156.84 194.584 156.84ZM203.964 157.035H202.119V162H200.649V157.035H198.804V155.685H203.964V157.035ZM205.019 162V155.685H206.489V157.92H207.329C207.944 157.92 208.664 157.935 209.234 158.565C209.654 159.03 209.729 159.57 209.729 159.945C209.729 160.68 209.444 161.175 209.159 161.46C208.604 162 207.944 162 207.314 162H205.019ZM206.489 160.74H207.164C207.449 160.74 207.734 160.725 207.929 160.605C208.034 160.53 208.259 160.35 208.259 159.96C208.259 159.645 208.124 159.45 207.944 159.33C207.704 159.18 207.404 159.18 207.179 159.18H206.489V160.74ZM210.389 162V155.685H211.859V162H210.389ZM213.69 161.28C213.69 160.785 214.095 160.38 214.59 160.38C215.085 160.38 215.49 160.785 215.49 161.28C215.49 161.775 215.085 162.18 214.59 162.18C214.095 162.18 213.69 161.775 213.69 161.28Z" fill="#666666"/>
</svg>
